<?xml version="1.0" encoding="UTF-8" standalone="no"?>
<svg
   xmlns:dc="http://purl.org/dc/elements/1.1/"
   xmlns:cc="http://creativecommons.org/ns#"
   xmlns:rdf="http://www.w3.org/1999/02/22-rdf-syntax-ns#"
   xmlns:svg="http://www.w3.org/2000/svg"
   xmlns="http://www.w3.org/2000/svg"
   xmlns:sodipodi="http://sodipodi.sourceforge.net/DTD/sodipodi-0.dtd"
   xmlns:inkscape="http://www.inkscape.org/namespaces/inkscape"
   width="110.03056"
   height="107.5"
   viewBox="-20 -30 130 140"
   version="1.1"
   id="svg2"
   inkscape:version="0.48.3.1 r9886"
   sodipodi:docname="Microsoft-Office-2013-lineup.svg">
  <metadata
     id="metadata126">
    <rdf:RDF>
      <cc:Work
         rdf:about="">
        <dc:format>image/svg+xml</dc:format>
        <dc:type
           rdf:resource="http://purl.org/dc/dcmitype/StillImage" />
        <dc:title></dc:title>
      </cc:Work>
    </rdf:RDF>
  </metadata>
  <defs
     id="defs124" />
  <sodipodi:namedview
     pagecolor="#ffffff"
     bordercolor="#666666"
     borderopacity="1"
     objecttolerance="10"
     gridtolerance="10"
     guidetolerance="10"
     inkscape:pageopacity="0"
     inkscape:pageshadow="2"
     inkscape:window-width="1280"
     inkscape:window-height="960"
     id="namedview122"
     showgrid="false"
     fit-margin-top="0"
     fit-margin-left="0"
     fit-margin-right="0"
     fit-margin-bottom="0"
     inkscape:zoom="1.0905983"
     inkscape:cx="321.51598"
     inkscape:cy="53.75"
     inkscape:window-x="0"
     inkscape:window-y="0"
     inkscape:window-maximized="1"
     inkscape:current-layer="svg2" />
  <g
     id="g3103"
     transform="translate(-21.015556,0)">
    <path
       id="path6"
       d="M 67.02,0 73,0 c 0,2.67 0,5.33 0,8 10.7,0.06 21.39,-0.11 32.08,0.06 2.28,-0.23 4.07,1.54 3.86,3.82 0.17,19.7 -0.04,39.41 0.1,59.11 -0.1,2.02 0.2,4.26 -0.97,6.05 -1.46,1.04 -3.35,0.91 -5.05,0.99 C 93.01,77.98 83.01,78 73,78 c 0,2.67 0,5.33 0,8 l -6.25,0 C 51.53,83.22 36.27,80.67 21.02,78 21.01,54.67 21.02,31.34 21.02,8.02 36.35,5.34 51.69,2.73 67.02,0 z"
       inkscape:connector-curvature="0"
       style="fill:#2a5699" />
    <path
       id="path46"
       d="m 73,11 c 11,0 22,0 33,0 0,21.33 0,42.67 0,64 -11,0 -22,0 -33,0 0,-2.67 0,-5.33 0,-8 8.67,0 17.33,0 26,0 0,-1.33 0,-2.67 0,-4 -8.67,0 -17.33,0 -26,0 0,-1.67 0,-3.33 0,-5 8.67,0 17.33,0 26,0 0,-1.33 0,-2.67 0,-4 -8.67,0 -17.33,0 -26,0 0,-1.67 0,-3.33 0,-5 8.67,0 17.33,0 26,0 0,-1.33 0,-2.67 0,-4 -8.67,0 -17.33,0 -26,0 0,-1.67 0,-3.33 0,-5 8.67,0 17.33,0 26,0 0,-1.33 0,-2.67 0,-4 -8.67,0 -17.33,0 -26,0 0,-1.67 0,-3.33 0,-5 8.67,0 17.33,0 26,0 0,-1.33 0,-2.67 0,-4 -8.67,0 -17.33,0 -26,0 0,-1.67 0,-3.33 0,-5 8.67,0 17.33,0 26,0 0,-1.33 0,-2.67 0,-4 -8.67,0 -17.33,0 -26,0 0,-2.33 0,-4.67 0,-7 z"
       inkscape:connector-curvature="0"
       style="fill:#ffffff" />
    <path
       id="path88"
       d="m 41.68,28.67 c 1.9,-0.11 3.8,-0.19 5.7,-0.29 1.33,6.75 2.69,13.49 4.13,20.21 1.13,-6.94 2.38,-13.86 3.59,-20.79 2,-0.07 4,-0.18 5.99,-0.3 -2.26,9.69 -4.24,19.46 -6.71,29.09 -1.67,0.87 -4.17,-0.04 -6.15,0.1 -1.33,-6.62 -2.88,-13.2 -4.07,-19.85 -1.17,6.46 -2.69,12.86 -4.03,19.28 -1.92,-0.1 -3.85,-0.22 -5.78,-0.35 -1.66,-8.8 -3.61,-17.54 -5.16,-26.36 1.71,-0.08 3.43,-0.15 5.14,-0.21 1.03,6.37 2.2,12.71 3.1,19.09 1.41,-6.54 2.85,-13.08 4.25,-19.62 z"
       inkscape:connector-curvature="0"
       style="fill:#ffffff" />
  </g>
</svg>
