<?xml version="1.0" encoding="utf-8"?>
<!-- Generator: Adobe Illustrator 16.0.0, SVG Export Plug-In . SVG Version: 6.00 Build 0)  -->
<!DOCTYPE svg PUBLIC "-//W3C//DTD SVG 1.1//EN" "http://www.w3.org/Graphics/SVG/1.1/DTD/svg11.dtd">
<svg version="1.1" id="Layer_1" xmlns="http://www.w3.org/2000/svg" xmlns:xlink="http://www.w3.org/1999/xlink" x="0px" y="0px"
	 width="864px" height="864px" viewBox="0 0 864 864" enable-background="new 0 0 864 864" xml:space="preserve">
<path  fill="rgba(128, 128, 128, .1)" d="M575.384,58.439c-17.648-23.34-53.857-38.105-53.857-38.105s-2.688,17.494-13.719,27.387
	c-11.035,9.893-18.67,23.088-16.641,38.766c2.025,15.682-4.814,37.568-7.85,44.664c-3.041,7.102-23.748,56.943-23.748,56.943
	s12.201,6.783,18.65,21.777c6.447,15,9.094,23.564,9.094,23.564s-11.111-20.445-21.162-28.486
	c-10.059-8.043-13.473-8.922-13.473-8.922s19.514,20.785,27.439,48.893c3.852,13.66,5.137,28.37,5.442,39.893
	c-1.646-12.205-5.029-27.39-11.991-40.361c-14.346-26.73-22.566-32.488-22.566-32.488s19.883,28.764,22.385,59.115
	c2,24.277,3.009,46.344,3.333,54.211c-4.26-8.113-12.325-24.629-14.415-37.059c-2.873-17.105-18.309-51.391-18.309-51.391
	l-1.967,17.076l-5.088-6.158c0,0-3.43,22.762-6.615,30.432c-3.182,7.67-3.182,7.67-3.182,7.67s11.969,19.447,13.467,30.139
	c1.378,9.876,17.318,57.625,19.746,64.863l-0.103,0.273c-2.678-4.257-17.755-28.744-21.905-46.921
	c-4.564-19.969-7.879-35.373-7.879-35.373s-1.887,26.189-0.1,35.744c1.28,6.849,14.06,33.166,21.196,47.523
	c-5.185-4.968-11.711-12.278-16.958-21.574c-10.414-18.445-14.309-52.789-14.309-52.789s-9.832,42.939-14.156,50.314
	c-4.322,7.377-9.852,24.145-9.852,24.145s3.393,24.518,20.971,57.536c10.458,19.646,15.739,29.374,18.302,34.032
	c-6.132-5.936-17.395-19.054-28.065-43.214c-15.709-35.569-16.117-38.7-16.117-38.7s4.402,44.178,9.564,59.446
	c5.166,15.279,9.701,18.871,9.701,18.871s-14.604-9.213-19.611-27.48c-5-18.258-4.785-28.512-4.785-28.512
	s-6.324,29.29,2.674,46.161c8.996,16.863,22.58,30.057,26.785,39.625c2.114,4.805,4.803,14.493,6.958,22.952
	c-2.73-6.315-6.461-13.311-10.839-17.274c-9.344-8.467-30.105-33.818-31.969-52.486c0,0-8.596,28.709-9.121,42.518
	c-0.52,13.809,2.775,31.635,2.775,31.635s15.35,25.17,25.242,36.201c9.898,11.039,15.387,20.33,15.387,20.33
	s-14.184-8.502-24.352-20.816c-10.172-12.316-12.412-17.742-12.412-17.742s8.234,24.551,24.086,38.328
	c6.416,5.574,10.235,8.892,12.511,10.868c-5.59-2.935-14.074-7.655-20.046-12.198c-9.633-7.328-25.295-28.943-27.031-45.756
	c0,0-6.34,31.713,1.506,50.709c7.85,18.99,25.65,39.334,25.65,39.334s-17.629-4.533-28.283-29.096c0,0,2.6,15.82,11.045,30.121
	c8.443,14.299,23.068,21.09,23.068,21.09s-8.986,1.938-16.361-2.389c-7.375-4.322-13.045-8.207-13.045-8.207
	s10.752,10.041,16,13.211c4.524,2.732,10.63,6.307,16.905,4.174c-8.166,45.965-15.887,89.683-20.271,113.393
	c-1.793,9.688-3.395,17.465-4.855,23.957c-5.164,22.951-8.578,29.916-12.471,49.369c-0.092,0.443-0.18,0.904-0.27,1.365
	c0,0,2.188,0.357,5.561-0.213c3.043-0.518,7.049-1.793,11.273-4.766c8.502-5.99,17.893-18.855,22.121-46.301
	c0.537-3.465,0.988-7.164,1.346-11.109c2.7-29.782,9-73.555,15.89-116.97c3.393,3.126,11.189,11.062,13.678,19.941
	c-0.887-6.249-3.248-14.879-9.39-22.267c0,0,13.871-0.477,22.143,11.352c8.273,11.83,8.273,11.83,8.273,11.83
	s-1.408-16.527-15.594-24.223c0,0,8.553-1.842,15.549,2.381c7.002,4.229,13.434,7.504,13.434,7.504s-7.688-14.104-28.918-19.562
	c-7.804-2.007-13.042-2.918-16.556-3.271c0.059-0.366,0.118-0.729,0.178-1.095c5.234-0.867,12.42-1.505,18.308,0.01
	c10.611,2.729,34.547,0.805,40.336-12.262c0,0-18.678,9.748-30.809,6.631c-5.787-1.49-13.128-3.377-19.647-3.299
	c5.105-1.748,11.256-3.047,17.987-2.793c18.412,0.695,29.283-7.018,34.658-15.336c0,0-15.428,6.535-29.287,7.012
	c-8.687,0.302-20.952,0.95-29.165,5.497c0.129-0.784,0.259-1.563,0.389-2.346c5.512-5.038,13.446-11.154,20.677-12.505
	c12.732-2.381,24.887-2.492,34.42-8.119c0,0-15.971,2.359-26.973,1.145c0,0,14.453-2.752,24.938-8.941
	c10.482-6.199,14.756-19.654,14.756-19.654l5.828-19.512l3.127-12.137c0,0-11.318,15.686-21.219,19.607
	c-9.896,3.916-23.908-1.311-35.719,3.74c-4.142,1.771-8.052,4.196-11.388,6.601c0.237-1.363,0.472-2.712,0.704-4.046
	c7.184-5.603,18.342-13.51,29.207-17.996c18.086-7.475,33.537-17.244,41.6-29.721c8.059-12.479,13.105-28.957,13.105-28.957
	s-16.201,9.564-35.957,10.951c0,0,22.814-3.826,37.156-18.732c0,0-21.734,12.191-33.305,10.025
	c-9.724-1.822-28.058,0.995-39.204,4.835c0.071-0.367,0.145-0.748,0.217-1.12c8.189-4.792,23.237-13.201,31.474-15.348
	c11.699-3.055,32.385-8.041,42.686-15.088c10.299-7.053,10.809-18.447,10.809-18.447s-12.771,14.301-36.416,14.283
	c-17.712-0.014-35.63,6.046-43.499,9.084c0.032-0.16,0.065-0.323,0.099-0.484c8.079-4.056,26.039-12.586,39.033-15.182
	c17.254-3.443,34.393-11.156,40.424-18.096c6.031-6.938,11.469-11.6,11.469-11.6l-7.537-1.33c0,0,7.105-18.186,12.467-31.961
	c5.369-13.777,3.594-25.752,6.229-35.986c2.637-10.238,2.973-18.637,2.973-18.637s-17.662,21.525-23.998,32.02
	c-6.338,10.498-38.639,27.65-55.328,31.238c-4.192,0.901-7.777,1.231-10.797,1.22c0.093-0.396,0.186-0.79,0.278-1.186
	c8.629-0.989,22.956-5.408,40.286-21.474c28.668-26.582,53.09-57.889,57.102-61.707c4.014-3.818,6.029-6.936,6.029-6.936
	s-1.039-14.82,1.578-22.635s4.668-15.775,4.668-15.775s-25.783,22.469-50.781,32.408c-17.546,6.981-29.705,8.169-35.397,8.259
	c0.09-0.291,0.179-0.583,0.269-0.874c11.832-2.442,47.335-11.138,65.34-30.532c21.807-23.492,23.381-24.908,24.584-34.299
	c0,0-23.436,32.166-63.109,44.998c0,0,46.146-21.475,63.34-57.676l3.105-16.777c0,0-18.824,23.654-39.715,38.896
	c-16.096,11.734-33.569,16.274-40.752,17.742c0.118-0.313,0.235-0.628,0.354-0.939c12.658-5.547,53.999-26.274,68.787-65.891
	c0,0-19.107,24.793-37.729,40.615c-18.627,15.822-25.32,15.926-25.32,15.926s29.562-32.418,40.299-41.176
	c10.742-8.752,33.963-30.668,35.248-52.162c1.289-21.498-1.078-49.996,1.264-59.096C591.396,111.669,593.028,81.775,575.384,58.439z
	 M487.099,306.904c0.006-0.616,0.005-1.886-0.04-3.657l1.529-1.863L487.099,306.904z"/>
</svg>
