<?xml version="1.0" encoding="UTF-8"?>
<!DOCTYPE svg PUBLIC "-//W3C//DTD SVG 1.1//EN" "http://www.w3.org/Graphics/SVG/1.1/DTD/svg11.dtd">
<!-- Creator: CorelDRAW -->
<svg xmlns="http://www.w3.org/2000/svg" xml:space="preserve" width="150mm" height="100mm" version="1.1" style="shape-rendering:geometricPrecision; text-rendering:geometricPrecision; image-rendering:optimizeQuality; fill-rule:evenodd; clip-rule:evenodd"
viewBox="0 0 15000 10000"
 xmlns:xlink="http://www.w3.org/1999/xlink"
 xmlns:xodm="http://www.corel.com/coreldraw/odm/2003">
 <defs>
  <style type="text/css">
   <![CDATA[
    .fil1 {fill:#85D0F5;fill-rule:nonzero}
    .fil0 {fill:#00A0E4;fill-rule:nonzero}
   ]]>
  </style>
 </defs>
 <g id="Ebene_x0020_1">
  <metadata id="CorelCorpID_0Corel-Layer"/>
  <path class="fil0" d="M4310.02 2576.71c611.29,0 1084.79,159.09 1420.5,477.26 335.71,318.18 503.56,848.04 503.56,1589.61 0,596.26 -150.32,1074.77 -450.95,1435.53 -300.64,360.77 -711.51,541.15 -1232.61,541.15 -380.8,0 -698.97,-67.64 -954.51,-202.93l0 1450.56 -1097.32 0 0 -4359.21c0,-305.64 169.11,-536.13 507.32,-691.46 338.21,-155.33 772.88,-235.49 1304.01,-240.51zm-90.2 3141.64c305.65,0 531.13,-85.18 676.43,-255.54 145.31,-170.36 217.96,-455.96 217.96,-856.81 0,-360.76 -63.88,-632.58 -191.65,-815.47 -127.77,-182.89 -346.98,-274.33 -657.64,-274.33 -445.94,0 -668.91,85.18 -668.91,255.54l0 1788.78c90.19,55.12 190.4,95.2 300.63,120.25 110.23,25.06 217.96,37.58 323.18,37.58z"/>
  <path class="fil1" d="M7092.34 3598.87c0,-110.23 38.83,-204.18 116.49,-281.84 77.67,-77.67 171.61,-116.5 281.85,-116.5 110.23,0 204.18,38.83 281.84,116.5 77.67,77.66 116.5,171.61 116.5,281.84 0,110.24 -38.83,204.19 -116.5,281.85 -77.66,77.66 -171.61,116.5 -281.84,116.5 -110.24,0 -204.18,-38.84 -281.85,-116.5 -77.66,-77.66 -116.49,-171.61 -116.49,-281.85zm-142.81 2585.47c0,-115.25 43.85,-215.46 131.53,-300.64 87.69,-85.18 196.67,-127.77 326.94,-127.77 95.2,0 181.64,22.55 259.3,67.64 77.66,45.1 144.05,102.72 199.17,172.87 55.12,70.15 96.46,152.82 124.01,248.02 27.56,95.21 41.34,190.41 41.34,285.61 0,145.3 -30.06,289.36 -90.19,432.16 -60.13,142.8 -132.78,274.33 -217.96,394.58 -85.18,120.26 -177.88,225.48 -278.09,315.67 -100.21,90.19 -187.89,160.34 -263.05,210.45l-67.65 -90.19c145.31,-105.23 264.31,-206.69 357.01,-304.4 92.69,-97.7 165.35,-190.4 217.96,-278.09 52.61,-87.68 87.68,-166.6 105.22,-236.75 17.54,-70.14 26.31,-130.27 26.31,-180.38 0,-160.34 -45.1,-290.61 -135.29,-390.82 -85.18,125.26 -192.91,187.89 -323.18,187.89 -95.2,0 -187.9,-35.07 -278.09,-105.22 -90.19,-70.15 -135.29,-170.36 -135.29,-300.63z"/>
  <path class="fil0" d="M12602.91 1141.18l0 4374.24c0,235.5 -82.67,435.92 -248.02,601.27 -165.35,165.35 -383.31,290.62 -653.88,375.8 -270.57,85.18 -558.68,127.77 -864.33,127.77 -646.36,0 -1146.17,-152.82 -1499.42,-458.47 -353.24,-305.65 -529.87,-834.26 -529.87,-1585.85 0,-631.34 154.08,-1121.12 462.23,-1469.36 308.15,-348.23 760.36,-522.35 1356.62,-522.35 355.75,0 643.86,65.14 864.32,195.41l0 -1638.46 1112.35 0zm-1112.35 2502.79c-200.42,-105.22 -395.83,-157.83 -586.24,-157.83 -335.71,0 -581.22,85.18 -736.55,255.54 -155.33,170.36 -232.99,458.46 -232.99,864.32 0,350.74 72.65,617.56 217.96,800.44 145.3,182.89 388.32,274.33 729.04,274.33 185.39,0 333.2,-25.05 443.43,-75.16 110.24,-50.1 165.35,-120.25 165.35,-210.44l0 -1751.2z"/>
 </g>
</svg>
