<?xml version="1.0" standalone="no"?>
<!DOCTYPE svg PUBLIC "-//W3C//DTD SVG 1.1//EN" "http://www.w3.org/Graphics/SVG/1.1/DTD/svg11.dtd" >
<svg>
<metadata>
Created by FontForge 20110222 at Sun Jul 21 00:46:45 2013
 By www-data
WebHostingHub Glyphs - author WebHostingHub.com - http://webhostinghub.com/glyphs/
</metadata>
<defs>
<font id="WebHostingHub-Glyphs" horiz-adv-x="1024" vert-adv-y="1024" >
  <font-face 
    font-family="WebHostingHub-Glyphs"
    font-weight="400"
    font-stretch="normal"
    units-per-em="1024"
    panose-1="2 0 5 3 0 0 0 0 0 0"
    ascent="819"
    descent="-205"
    x-height="1024"
    cap-height="1024"
    bbox="-2 -2 1050.75 1029"
    underline-thickness="0"
    underline-position="0"
    unicode-range="U+0024-F7F3"
  />
<missing-glyph horiz-adv-x="256" vert-adv-y="90" 
 />
    <glyph glyph-name="dollar" unicode="dollar" vert-adv-y="90" 
d="M831.5 640q-26.5 0 -45 18.5t-18.5 45.5q0 34 -37.5 64t-96.5 47t-122 17t-122 -17t-96.5 -47t-37.5 -64t37.5 -64t96.5 -47t122 -17q104 0 192.5 -34.5t140 -93t51.5 -128.5q0 -94 -91.5 -165.5t-228.5 -86.5v-4q0 -27 -19 -45.5t-45.5 -18.5t-45 18.5t-18.5 45.5v4
q-137 15 -228.5 86.5t-91.5 165.5q0 26 18.5 45t45 19t45.5 -19t19 -45q0 -34 37.5 -64t96.5 -47t122 -17t122 17t96.5 47t37.5 64t-37.5 64t-96.5 47t-122 17q-104 0 -192.5 34t-140 93t-51.5 129q0 94 91.5 165.5t228.5 86.5v4q0 26 18.5 45t45 19t45.5 -19t19 -45v-4
q137 -15 228.5 -86.5t91.5 -165.5q0 -27 -19 -45.5t-45.5 -18.5z" />
    <glyph glyph-name="percent" unicode="percent" vert-adv-y="90" 
d="M832 0q-80 0 -136 56.5t-56 136t56 135.5t136 56t136 -56t56 -135.5t-56 -136t-136 -56.5zM832.5 256q-26.5 0 -45.5 -18.5t-19 -45t19 -45.5t45.5 -19t45 19t18.5 45.5t-18.5 45t-45 18.5zM396 64q-14 -27 -43.5 -45.5t-56.5 -18.5h-129q-27 0 -35.5 19t5.5 45l491 896
q14 27 43.5 45.5t56.5 18.5h129q27 0 35.5 -18.5t-5.5 -45.5zM192 640q-80 0 -136 56.5t-56 136t56 135.5t136 56t136 -56t56 -135.5t-56 -136t-136 -56.5zM191.5 896q-26.5 0 -45 -18.5t-18.5 -45t18.5 -45.5t45.5 -19t45.5 19t18.5 45.5t-19 45t-45.5 18.5z" />
    <glyph glyph-name="asterisk" unicode="asterisk" vert-adv-y="90" 
d="M988 475l-249 -36l185 -190q15 -21 11 -47t-24 -41l-196 -149q-20 -15 -44.5 -11t-39.5 25l-111 233l-111 -233q-15 -21 -39.5 -25t-44.5 11l-196 149q-20 15 -24 41t11 47l185 190l-249 36q-25 8 -37 31t-4 47l79 236q8 25 31.5 36.5t48.5 3.5l197 -99l-39 230
q0 26 19 45t45 19h256q26 0 45 -19t19 -45l-39 -230l197 99q25 8 48.5 -3.5t31.5 -36.5l79 -236q8 -24 -4 -47t-37 -31z" />
    <glyph glyph-name="plus" unicode="plus" vert-adv-y="90" 
d="M960 384h-320v-320q0 -27 -18.5 -45.5t-45.5 -18.5h-128q-27 0 -45.5 19t-18.5 45v320h-320q-27 0 -45.5 19t-18.5 45v128q0 27 18.5 45.5t45.5 18.5h320v320q0 27 18.5 45.5t45.5 18.5h128q27 0 45.5 -18.5t18.5 -45.5v-320h320q27 0 45.5 -18.5t18.5 -45.5v-128
q0 -26 -18.5 -45t-45.5 -19z" />
    <glyph glyph-name="yen" unicode="yen" vert-adv-y="90" 
d="M879 919l-303 -303v-104h128q27 0 45.5 -19t18.5 -45.5t-18.5 -45t-45.5 -18.5h-128v-64h128q27 0 45.5 -19t18.5 -45.5t-18.5 -45t-45.5 -18.5h-128v-128q0 -27 -18.5 -45.5t-45 -18.5t-45 18.5t-18.5 45.5v128h-128q-27 0 -45.5 18.5t-18.5 45t18.5 45.5t45.5 19h128
v64h-128q-27 0 -45.5 18.5t-18.5 45t18.5 45.5t45.5 19h128v104l-303 303q-18 18 -18 43.5t18 43.5t43.5 18t43.5 -18l279 -279l280 279q18 18 43.5 18t43.5 -18t18 -43.5t-18 -43.5z" />
    <glyph glyph-name="copyright" unicode="copyright" vert-adv-y="90" 
d="M512 0q-139 0 -257 68.5t-186.5 186.5t-68.5 257t68.5 257t186.5 186.5t257 68.5t257 -68.5t186.5 -186.5t68.5 -257t-68.5 -257t-186.5 -186.5t-257 -68.5zM512 896q-104 0 -192.5 -51.5t-140 -140t-51.5 -192.5t51.5 -192.5t140 -140t192.5 -51.5t192.5 51.5t140 140
t51.5 192.5t-51.5 192.5t-140 140t-192.5 51.5zM734 592q-6 -21 -23 -34.5t-39 -13.5q-8 0 -16 3t-13 6t-11.5 10t-9 10t-7 10.5t-5.5 8.5q-39 48 -98 48q-53 0 -90.5 -37.5t-37.5 -90.5t37.5 -90.5t90.5 -37.5q59 0 98 48q2 2 9.5 13.5t12.5 17t16 11.5t24 6q22 0 39 -13.5
t23 -34.5q1 -4 2 -11t-3.5 -23.5t-18.5 -29.5q-37 -50 -90 -81t-112 -31q-106 0 -181 75t-75 181t75 181t181 75q61 0 114.5 -31.5t90.5 -83.5q12 -11 16 -26.5t2 -25.5z" />
    <glyph glyph-name="pilcrow" unicode="pilcrow" vert-adv-y="90" 
d="M960 896h-64v-832q0 -26 -19 -45t-45.5 -19t-45 19t-18.5 45v832h-256v-832q0 -26 -19 -45t-45.5 -19t-45 19t-18.5 45v320h-64q-87 0 -160.5 43t-116.5 116.5t-43 160.5t43 160.5t116.5 116.5t160.5 43h640q26 0 45 -18.5t19 -45t-18.5 -45.5t-45.5 -19z" />
    <glyph glyph-name="multiply" unicode="multiply" vert-adv-y="90" 
d="M701 512l303 -304q20 -20 20 -47.5t-20 -46.5l-94 -94q-19 -20 -47 -20t-47 20l-304 303l-304 -303q-19 -20 -47 -20t-47 20l-94 94q-20 19 -20 46.5t20 47.5l303 304l-303 303q-20 20 -20 47.5t20 47.5l94 94q19 19 47 19t47 -19l304 -304l304 304q19 19 47 19t47 -19
l94 -94q20 -20 20 -47.5t-20 -47.5z" />
    <glyph glyph-name="divide" unicode="divide" vert-adv-y="90" 
d="M960 384h-896q-27 0 -45.5 19t-18.5 45v128q0 27 19 45.5t45 18.5h896q27 0 45.5 -18.5t18.5 -45.5v-128q0 -26 -18.5 -45t-45.5 -19zM576 768h-128q-27 0 -45.5 19t-18.5 45v128q0 27 19 45.5t45 18.5h128q27 0 45.5 -18.5t18.5 -45.5v-128q0 -26 -18.5 -45t-45.5 -19z
M448 256h128q27 0 45.5 -18.5t18.5 -45.5v-128q0 -27 -19 -45.5t-45 -18.5h-128q-27 0 -45.5 19t-18.5 45v128q0 27 19 45.5t45 18.5z" />
    <glyph glyph-name="pipe" unicode="pipe" vert-adv-y="90" 
d="M768 0q-51 0 -100 21t-94.5 60.5t-81 79.5t-76.5 95q-17 23 -42 49.5t-65 61.5t-88 58t-93 23h-96q-13 0 -22.5 9.5t-9.5 22.5t9.5 22.5t22.5 9.5h96q37 0 55.5 -0.5t52.5 -2.5t54.5 -7t50 -14t51 -22.5t45 -34t43.5 -47.5q25 -34 79.5 -81t80.5 -47q64 0 64 64v128
q0 26 18.5 45t45.5 19h192q26 0 45 -19t19 -45v-192q0 -106 -75 -181t-181 -75zM896 768q0 -36 9 -83q1 -5 18 -40.5t25 -68.5h-58q-9 42 -26 64q-23 24 -27.5 47.5t-4.5 80.5q0 80 37.5 136t90.5 56q-38 -15 -51 -64t-13 -128zM704 819q0 -38 9 -89q50 -56 54 -154h-63
q0 64 -9 76q-55 62 -55 167q0 85 37.5 145t90.5 60q15 0 32 -7q-42 -18 -69 -72.5t-27 -125.5z" />
    <glyph glyph-name="ring" unicode="ring" vert-adv-y="90" 
d="M960 448q0 -91 -35.5 -174t-95.5 -143t-143 -95.5t-174 -35.5t-174 35.5t-143 95.5t-95.5 143t-35.5 174q0 163 103.5 286.5t260.5 153.5l-108 72l128 64h128l128 -64l-108 -72q157 -30 260.5 -153.5t103.5 -286.5zM512 768q-87 0 -160.5 -43t-116.5 -116.5t-43 -160.5
t43 -160.5t116.5 -116.5t160.5 -43t160.5 43t116.5 116.5t43 160.5t-43 160.5t-116.5 116.5t-160.5 43z" />
    <glyph glyph-name="dagger" unicode="dagger" vert-adv-y="90" 
d="M1014 61l-51 -51q-10 -10 -24.5 -10t-25.5 10l-328 329l-77 -78q-6 -5 -14 -5t-13 5l-28 27q-5 6 -5 14t5 14l29 29l-226 199q-75 75 -161 229.5t-95 250.5q11 -13 27 -29t37.5 -36.5t31.5 -30.5q73 -73 154 -123.5t99 -32.5l0.5 0.5t0.5 1.5l281 -281l13 14q6 5 14 5
t14 -5l27 -28q6 -5 6 -13t-6 -14l-13 -13l328 -328q10 -11 10 -25.5t-10 -24.5z" />
    <glyph glyph-name="tie" unicode="business" vert-adv-y="90" 
d="M702 963l-124 -143l121 -570q6 -16 8 -22.5t0.5 -14.5t-8.5 -15l-156 -187q-10 -11 -25.5 -11t-26.5 11l-155 187q-10 13 -9.5 21.5t9.5 30.5l121 571l-123 142q-13 12 -6.5 36.5t28.5 24.5h325q22 0 27.5 -24.5t-6.5 -36.5z" />
    <glyph glyph-name="euro" unicode="euro" vert-adv-y="90" 
d="M896.5 640q-26.5 0 -45.5 18.5t-19 45.5q-21 83 -94 137.5t-162 54.5q-88 0 -157 -54t-91 -138h184q27 0 45.5 -19t18.5 -45.5t-18.5 -45t-45.5 -18.5h-192v-128h192q27 0 45.5 -19t18.5 -45.5t-18.5 -45t-45.5 -18.5h-184q22 -84 91 -138t157 -54q89 0 162 54.5
t94 137.5q0 26 19 45t45.5 19t45 -19t18.5 -45q0 -23 -15 -41q-35 -122 -137 -200.5t-232 -78.5q-142 0 -248.5 91.5t-129.5 228.5h-70q-27 0 -45.5 18.5t-18.5 45t18.5 45.5t45.5 19h64v128h-64q-27 0 -45.5 18.5t-18.5 45t18.5 45.5t45.5 19h70q23 137 129.5 228.5
t248.5 91.5q130 0 232 -78.5t137 -200.5q15 -18 15 -41q0 -27 -18.5 -45.5t-45 -18.5z" />
    <glyph glyph-name="home" unicode="home" vert-adv-y="90" 
d="M1004.5 468.5q-19.5 -19.5 -47 -19.5t-46.5 19l-15 15v-419q0 -26 -18.5 -45t-45.5 -19h-192v288q0 13 -9.5 22.5t-22.5 9.5h-192q-13 0 -22.5 -9.5t-9.5 -22.5v-288h-192q-27 0 -45.5 19t-18.5 45v419l-15 -15q-19 -19 -46.5 -19t-47 19.5t-19.5 47t19 46.5l444 444
q20 20 49 19q29 1 49 -19l444 -444q19 -19 19 -46.5t-19.5 -47z" />
    <glyph glyph-name="capslock" unicode="capslock" vert-adv-y="90" 
d="M933 511h-166v-191q0 -27 -18.5 -45.5t-44.5 -18.5h-384q-26 0 -45 18.5t-19 45.5v191h-164q-12 0 -20 13t-7 31t13 30l389 420q18 19 45 19t46 -19l388 -420q12 -12 13.5 -30t-6.5 -31t-20 -13zM320 193h384q26 0 44.5 -19t18.5 -45v-65q0 -26 -18.5 -45t-44.5 -19h-384
q-26 0 -45 18.5t-19 45.5v65q0 26 19 45t45 19z" />
    <glyph glyph-name="gradient" unicode="gradient" vert-adv-y="90" 
d="M896 0h-768q-53 0 -90.5 37.5t-37.5 90.5v768q0 53 37.5 90.5t90.5 37.5h768q53 0 90.5 -37.5t37.5 -90.5v-768q0 -53 -37.5 -90.5t-90.5 -37.5zM704 256h-64v64h64v64h-64v64h64v64h-64v64h64v64h-64v64h64v64h-64v64h64v64h-64v-64h-64v64h-64v-64h-64v64h-288
q-13 0 -22.5 -9.5t-9.5 -22.5v-704q0 -13 9.5 -22.5t22.5 -9.5h224v64h64v-64h64v64h64v-64h64v64h64v64zM576 192v64h64v-64h-64zM576 384h64v-64h-64v64zM576 512h64v-64h-64v64zM576 640h64v-64h-64v64zM576 768h64v-64h-64v64zM512 768v64h64v-64h-64zM384 768v64h64
v-64h-64zM512 256v-64h-64v64h64zM512 320h64v-64h-64v64zM512 448h64v-64h-64v64zM512 576h64v-64h-64v64zM512 704h64v-64h-64v64zM448 704v64h64v-64h-64zM512 576h-64v64h64v-64zM512 448h-64v64h64v-64zM512 320h-64v64h64v-64zM384 256v64h64v-64h-64zM384 384v64h64
v-64h-64zM384 512v64h64v-64h-64zM384 640v64h64v-64h-64z" />
    <glyph glyph-name="minus" unicode="minus" vert-adv-y="90" 
d="M1024 576v-128q0 -27 -19 -45.5t-45 -18.5h-896q-26 0 -45 18.5t-19 45.5v128q0 26 18.5 45t45.5 19h896q26 0 45 -19t19 -45z" />
    <glyph glyph-name="infinity" unicode="infinity" vert-adv-y="90" 
d="M768 256q-97 0 -256 153q-159 -153 -256 -153q-106 0 -181 75t-75 181t75 181t181 75q98 0 256 -153q159 153 256 153q106 0 181 -75t75 -181t-75 -181t-181 -75zM256 640q-57 0 -92.5 -37t-35.5 -91t35.5 -91t92.5 -37q22 0 46.5 13t44 32t35.5 38t25 32l9 13
q-3 5 -9 13.5t-24.5 31t-36.5 39t-43 30.5t-47 14zM768 640q-22 0 -46.5 -13t-44 -32t-35.5 -38t-25 -32l-9 -13q3 -5 9 -14t24.5 -31t36.5 -38.5t43 -30.5t47 -14q57 0 92.5 37t35.5 91t-35.5 91t-92.5 37z" />
    <glyph glyph-name="intersection" unicode="intersection" vert-adv-y="90" 
d="M960 640h-384v-64h256h0.5h1.5q34 -1 43 -10l137 -94q10 -10 10 -24t-10 -24l-137 -94q-10 -10 -45 -10h-256v-256q0 -26 -18.5 -45t-45.5 -19t-45.5 19t-18.5 45v256h-384q-26 0 -45 19t-19 45v128q0 26 19 45t45 19h384v64h-256q-35 0 -45 10l-137 94q-10 10 -10 24
t10 24l137 94q9 10 43 10h1.5h0.5h256v64q0 26 18.5 45t45.5 19t45.5 -19t18.5 -45v-64h384q26 0 45 -18.5t19 -45.5v-128q0 -27 -19 -45.5t-45 -18.5z" />
    <glyph glyph-name="image" unicode="image" vert-adv-y="90" 
d="M0 0v1025h1024v-1025h-1024zM960 961h-896v-769h896v769zM256 897q53 0 90.5 -37.5t37.5 -90.5t-37.5 -90.5t-90.5 -37.5t-90.5 37t-37.5 90v1q0 53 37.5 90.5t90.5 37.5zM367 495l238 -239h-477v93l146 146q18 18 46.5 18t46.5 -18zM690 687q18 19 46.5 19t46.5 -19
l113 -113v-318h-204q0 1 -1.5 3.5t-2.5 4.5l-211 210z" />
    <glyph glyph-name="fork" unicode="fork" vert-adv-y="90" 
d="M990.5 33.5q-25.5 -25.5 -58.5 -32t-70.5 9.5t-72.5 54l-290 340q-64 -30 -136.5 -17.5t-125.5 65.5l-221 222q-16 15 -16 37.5t16 38.5t38.5 16t37.5 -16l234 -234q38 9 73 30l-255 255q-16 16 -16 38.5t16 38.5t38 16t38 -16l256 -255q21 34 30 72l-234 234
q-16 16 -16 38.5t15.5 38t38 15.5t38.5 -16l223 -220q52 -53 64.5 -126t-17.5 -137l340 -288q38 -34 54.5 -72t10 -71t-32 -58.5z" />
    <glyph glyph-name="bell" unicode="bell" vert-adv-y="90" 
d="M960 64h-338q-17 -29 -46 -46.5t-64 -17.5t-64 17.5t-46 46.5h-338q-27 0 -45.5 19t-18.5 45v64q53 0 90.5 75t37.5 181v128q0 142 91.5 248.5t228.5 129.5v6q0 27 19 45.5t45 18.5t45 -18.5t19 -45.5v-6q137 -23 228.5 -129.5t91.5 -248.5v-128q0 -106 37.5 -181
t90.5 -75v-64q0 -26 -18.5 -45t-45.5 -19z" />
    <glyph glyph-name="chair" unicode="chair" vert-adv-y="90" 
d="M928 64q-40 0 -68 28t-28 68v320q0 42 45 101t83 59q19 0 32.5 -17t19.5 -44t9 -51.5t3 -47.5v-320q0 -40 -28 -68t-68 -28zM704 512h-384q-27 0 -45.5 19t-18.5 45l-64 256q0 27 18.5 45.5t45.5 18.5h512q26 0 45 -19t19 -45l-64 -256q0 -26 -19 -45t-45 -19zM192 160
q0 -40 -28 -68t-68 -28t-68 28t-28 68v320q0 23 2.5 47.5t9 51.5t20 44t32.5 17q38 0 83 -59t45 -101v-320zM320 448h384q26 0 45 -18.5t19 -45t-19 -45.5t-45 -19h-384q-27 0 -45.5 19t-18.5 45.5t18.5 45t45.5 18.5zM320 256h384q26 0 45 -18.5t19 -45.5v-64
q0 -26 -19 -45t-45 -19h-384q-27 0 -45.5 19t-18.5 45v64q0 27 18.5 45.5t45.5 18.5z" />
    <glyph glyph-name="rectangle" unicode="rectangle" vert-adv-y="90" 
d="M0 0v1024h1024v-1024h-1024zM960 960h-896v-896h896v896z" />
    <glyph glyph-name="triangle" unicode="triangle" vert-adv-y="90" 
d="M992 0h-32v32q0 13 -9.5 22.5t-22.5 9.5t-22.5 -9.5t-9.5 -22.5v-32h-64v96q0 13 -9.5 22.5t-22.5 9.5t-22.5 -9.5t-9.5 -22.5v-96h-64v32q0 13 -9.5 22.5t-22.5 9.5t-22.5 -9.5t-9.5 -22.5v-32h-64v96q0 13 -9.5 22.5t-22.5 9.5t-22.5 -9.5t-9.5 -22.5v-96h-64v32
q0 13 -9.5 22.5t-22.5 9.5t-22.5 -9.5t-9.5 -22.5v-32h-64v96q0 13 -9.5 22.5t-22.5 9.5t-22.5 -9.5t-9.5 -22.5v-96h-64v32q0 13 -9.5 22.5t-22.5 9.5t-22.5 -9.5t-9.5 -22.5v-32h-96q-13 0 -22.5 9.5t-9.5 22.5l992 992q13 0 22.5 -9.5t9.5 -22.5v-960q0 -13 -9.5 -22.5
t-22.5 -9.5zM832 544q0 13 -9.5 22.5t-22.5 9.5l-352 -352q0 -13 9.5 -22.5t22.5 -9.5h320q13 0 22.5 9.5t9.5 22.5v320z" />
    <glyph glyph-name="yinyang" unicode="yinyang" vert-adv-y="90" 
d="M512 0q-104 0 -199 40.5t-163.5 109t-109 163.5t-40.5 199.5t40.5 199t109 163t163.5 109.5t199 41t199 -41t163.5 -109.5t109 -163t40.5 -199t-40.5 -199.5t-109 -163.5t-163.5 -109t-199 -40.5zM512 768q-26 0 -45 -18.5t-19 -45t18.5 -45.5t45.5 -19t45.5 19
t18.5 45.5t-19 45t-45 18.5zM512 512q-80 0 -136 56.5t-56 136t56 135.5t136 56q-104 0 -192.5 -51t-140 -139.5t-51.5 -193t51.5 -193t140 -140t192.5 -51.5q80 0 136 56.5t56 136t-56 135.5t-136 56zM512.5 256q-26.5 0 -45.5 19t-19 45.5t19 45t45.5 18.5t45 -18.5
t18.5 -45t-18.5 -45.5t-45 -19z" />
    <glyph glyph-name="smile" unicode="smile" vert-adv-y="90" 
d="M512 0q-104 0 -199 40.5t-163.5 109t-109 163.5t-40.5 199t40.5 199t109 163.5t163.5 109t199 40.5t199 -40.5t163.5 -109t109 -163.5t40.5 -199t-40.5 -199t-109 -163.5t-163.5 -109t-199 -40.5zM288 768q-40 0 -68 -37.5t-28 -90.5t28 -90.5t68 -37.5t68 37.5t28 90.5
t-28 90.5t-68 37.5zM736 768q-40 0 -68 -37.5t-28 -90.5t28 -90.5t68 -37.5t68 37.5t28 90.5t-28 90.5t-68 37.5zM800 384h-576q-13 0 -22.5 -9.5t-9.5 -22.5q40 -113 117.5 -168.5t201.5 -55.5t202.5 55.5t118.5 168.5q0 13 -9.5 22.5t-22.5 9.5zM511 192q-166 0 -223 114
q0 6 5.5 10t13.5 4h410q8 0 13.5 -4t5.5 -10q-57 -114 -225 -114z" />
    <glyph glyph-name="compass" unicode="compass" vert-adv-y="90" 
d="M512 0q-104 0 -199 40.5t-163.5 109t-109 163.5t-40.5 199t40.5 199t109 163.5t163.5 109t199 40.5t199 -40.5t163.5 -109t109 -163.5t40.5 -199t-40.5 -199t-109 -163.5t-163.5 -109t-199 -40.5zM512 896q-104 0 -192.5 -51t-140 -139.5t-51.5 -193t51.5 -193t140 -140
t192.5 -51.5t192.5 51.5t140 140t51.5 193t-51.5 193t-140 139.5t-192.5 51zM512 448q-35 0 -54 30l-234 130l288 -32q35 0 54 -30l234 -130z" />
    <glyph glyph-name="checkmark" unicode="checkmark" vert-adv-y="90" 
d="M1006 699l-619 -618q-18 -18 -53 -17q-32 1 -49 17l-267 267q-18 18 -18 44t18 44l89 89q18 18 44 18t44 -18l141 -141l493 492q18 18 44 18t44 -18l89 -88q18 -19 18 -44.5t-18 -44.5z" />
    <glyph glyph-name="wallet" unicode="wallet" vert-adv-y="90" 
d="M896 64h-576q-53 0 -90.5 37.5t-37.5 90.5h-64q-53 0 -90.5 37.5t-37.5 90.5v512q0 53 37.5 90t90.5 37h768q53 0 90.5 -37t37.5 -90v-640q0 -53 -37.5 -90.5t-90.5 -37.5zM416 320q96 0 96 96t-96 96t-96 -96t96 -96zM864 832h-647q-37 0 -63 -25t-26 -61v-341
q0 -29 18 -51.5t46 -29.5v316q0 53 37.5 90.5t90.5 37.5h544q13 0 22.5 9t9.5 22.5t-9.5 23t-22.5 9.5z" />
    <glyph glyph-name="uniF755" unicode="kimai" vert-adv-y="90" 
d="M512 0q-104 0 -199 40.5t-163.5 109t-109 163.5t-40.5 199t40.5 199t109 163.5t163.5 109t199 40.5t199 -40.5t163.5 -109t109 -163.5t40.5 -199t-40.5 -199t-109 -163.5t-163.5 -109t-199 -40.5zM512 960q-91 0 -174 -35.5t-143 -95.5t-95.5 -143t-35.5 -174t35.5 -174
t95.5 -143t143 -95.5t174 -35.5t174 35.5t143 95.5t95.5 143t35.5 174t-35.5 174t-95.5 143t-143 95.5t-174 35.5zM768 512l119 -83q-24 -109 -103.5 -188t-188.5 -104l-83 119l-83 -119q-109 25 -188.5 104t-103.5 188l119 83l-119 83q24 109 103.5 188t188.5 104l83 -119
l83 119q109 -25 188.5 -104t103.5 -188zM384 688v-352l288 176z" />
    <glyph glyph-name="uniF756" unicode="livejournal" vert-adv-y="90" 
d="M608 96l-581 579q-22 22 -26.5 63t11 87t46.5 77l64 64q31 31 77 46.5t87 11t63 -26.5l579 -581l96 -416zM235 740q-29 -30 -39 -76t4 -75q0 -1 -0.5 -3l-0.5 -2l340 -340q19 22 29.5 57t11 64t-3.5 51l-332 332zM325 940q-24 26 -79 19t-90 -42l-49 -49q-35 -35 -42 -90
t19 -79l46 -47q9 75 56 122l64 64q47 47 122 55zM452 813q-24 25 -78.5 18t-89.5 -42l-8 -8l332 -333q22 -4 51 -3.5t64 11t57 29.5zM872 392l-55 55q-36 -27 -85.5 -44t-91.5 -18q0 -42 -17.5 -92.5t-44.5 -86.5l54 -54l152 -29q16 46 43.5 73.5t73.5 43.5z" />
    <glyph glyph-name="uniF757" unicode="livejournalalt" vert-adv-y="90" 
d="M791 195q-98 -96 -212.5 -145.5t-226.5 -49.5q-81 0 -137 17t-89 51t-47.5 79.5t-14.5 108.5q0 91 36.5 179.5t101.5 165.5l-184 183q-23 22 -17 72.5t39 83.5l44 44q33 33 83.5 39t72.5 -17l121 -122q46 46 87 74t106.5 47t149.5 19q67 0 122.5 -21t91.5 -54.5
t60.5 -76.5t35 -85t10.5 -83q0 -124 -62 -263t-171 -246zM704 960q-162 0 -324 -95l74 -74q98 41 186 41q93 0 142.5 -61.5t49.5 -162.5q0 -34 -1.5 -56t-8 -55.5t-19.5 -59t-38 -57t-61 -60.5q26 45 45 129t19 159q0 62 -35 111t-93 49q-64 0 -135 -29l133 -133l66 -286
l-286 66l-163 163q-59 -71 -93 -147.5t-34 -145.5q0 -38 11 -70.5t35.5 -61t70 -44.5t107.5 -16q98 0 204.5 45t190.5 128q94 92 153.5 225.5t59.5 241.5q0 29 -10 62.5t-31.5 68t-51 62.5t-72.5 45.5t-91 17.5z" />
    <glyph glyph-name="uniF758" unicode="tagged" vert-adv-y="90" 
d="M896 640h-256l-128 -512h-320l128 512h-192l-128 128l128 128h896z" />
    <glyph glyph-name="uniF759" unicode="temple" vert-adv-y="90" 
d="M896 298v-234q0 -27 -18.5 -45.5t-45.5 -18.5h-256v128q0 27 -18.5 45.5t-45 18.5t-45.5 -18.5t-19 -45.5v-128h-256q-26 0 -45 18.5t-19 45.5v234q-56 47 -92 91.5t-36 62.5q0 53 32 60q11 -4 67.5 -26t92.5 -35v125q-57 35 -92.5 73t-35.5 59q0 60 32 60
q14 -5 57 -23.5t76.5 -29.5t58.5 -11q27 0 54.5 18.5t54 52.5t44 62t40.5 68q-33 18 -33 55q0 27 19 45.5t45.5 18.5t45 -18.5t18.5 -45.5q0 -37 -33 -55q22 -40 40 -68t44.5 -62t54 -52.5t54.5 -18.5q25 0 58.5 11t76.5 29.5t57 23.5q32 0 32 -60q0 -21 -35.5 -59
t-92.5 -73v-125q36 13 92.5 35t67.5 26q32 -7 32 -60q0 -18 -36 -62.5t-92 -91.5z" />
    <glyph glyph-name="uniF75A" unicode="mayanpyramid" vert-adv-y="90" 
d="M992 128h-288l-128 768h96q13 0 22.5 -9.5t9.5 -22.5v-64q0 -13 -9.5 -22.5t-22.5 -9.5h64q13 0 22.5 -9.5t9.5 -22.5v-64q0 -13 -9.5 -22.5t-22.5 -9.5h64q13 0 22.5 -9t9.5 -23v-64q0 -13 -9.5 -22.5t-22.5 -9.5h64q13 0 22.5 -9t9.5 -23v-64q0 -13 -9.5 -22.5
t-22.5 -9.5h64q13 0 22.5 -9t9.5 -23v-64q0 -13 -9.5 -22.5t-22.5 -9.5h64q13 0 22.5 -9t9.5 -23v-64q0 -13 -9.5 -22.5t-22.5 -9.5zM384 128l64 768h128l64 -768h-256zM32 128q-13 0 -22.5 9.5t-9.5 22.5v64q0 13 9.5 22.5t22.5 9.5h64q-13 0 -22.5 9.5t-9.5 22.5v64
q0 13 9.5 22.5t22.5 9.5h64q-13 0 -22.5 9.5t-9.5 22.5v64q0 13 9.5 22.5t22.5 9.5h64q-13 0 -22.5 9.5t-9.5 22.5v64q0 13 9.5 22.5t22.5 9.5h64q-13 0 -22.5 9.5t-9.5 22.5v64q0 13 9.5 22.5t22.5 9.5h64q-13 0 -22.5 9.5t-9.5 22.5v64q0 13 9.5 22.5t22.5 9.5h96
l-128 -768h-288z" />
    <glyph glyph-name="uniF75B" unicode="egyptpyramid" vert-adv-y="90" 
d="M832 448l-160 224l96 96l256 -320h-192zM0 192l480 640l480 -640h-960z" />
    <glyph glyph-name="uniF75C" unicode="tampermonkey" vert-adv-y="90" 
d="M896 0h-768q-53 0 -90.5 37.5t-37.5 90.5v768q0 53 37.5 90.5t90.5 37.5h768q53 0 90.5 -37.5t37.5 -90.5v-768q0 -53 -37.5 -90.5t-90.5 -37.5zM256 448q-80 0 -136 -56t-56 -136t56 -136t136 -56t136 56t56 136t-56 136t-136 56zM768 448q-80 0 -136 -56t-56 -136
t56 -136t136 -56t136 56t56 136t-56 136t-136 56z" />
    <glyph glyph-name="uniF75D" unicode="pushbullet" vert-adv-y="90" 
d="M640 128q-27 0 -45.5 18.5t-18.5 45.5v640q0 27 18.5 45.5t45.5 18.5q104 0 192.5 -51.5t140 -140t51.5 -192.5t-51.5 -192.5t-140 -140t-192.5 -51.5zM448 128h-384q-26 0 -45 19t-19 45v640q0 27 19 45.5t45 18.5h384q27 0 45.5 -18.5t18.5 -45.5v-640
q0 -27 -18.5 -45.5t-45.5 -18.5z" />
    <glyph glyph-name="uniF75E" unicode="currents" vert-adv-y="90" 
d="M512 0q-104 0 -199 40.5t-163.5 109t-109 163.5t-40.5 199t40.5 199t109 163.5t163.5 109t199 40.5t199 -40.5t163.5 -109t109 -163.5t40.5 -199t-40.5 -199t-109 -163.5t-163.5 -109t-199 -40.5zM299 118q99 -54 213 -54q122 0 225 61t162 163q-48 -46 -115 -71
t-144 -25q-150 0 -235 85t-85 235q0 68 45 122q-81 -39 -127 -111.5t-46 -170.5q0 -59 28 -122.5t79 -111.5zM512 384q53 0 90.5 37.5t37.5 90.5t-37.5 90.5t-90.5 37.5t-90.5 -37.5t-37.5 -90.5t37.5 -90.5t90.5 -37.5zM125 736q48 46 115 71t144 25q150 0 235 -85t85 -235
q0 -68 -45 -122q81 39 127 111.5t46 170.5q0 59 -28 122.5t-79 111.5q-99 54 -213 54q-122 0 -225 -61t-162 -163z" />
    <glyph glyph-name="uniF75F" unicode="communitysmall" vert-adv-y="90" 
d="M512 0q-104 0 -199 40.5t-163.5 109t-109 163.5t-40.5 199t40.5 199t109 163.5t163.5 109t199 40.5t199 -40.5t163.5 -109t109 -163.5t40.5 -199t-40.5 -199t-109 -163.5t-163.5 -109t-199 -40.5zM512 960q-91 0 -174 -35.5t-143 -95.5t-95.5 -143t-35.5 -174t35.5 -174
t95.5 -143t143 -95.5t174 -35.5t174 35.5t143 95.5t95.5 143t35.5 174t-35.5 174t-95.5 143t-143 95.5t-174 35.5zM704 256q-53 0 -90.5 37.5t-37.5 90.5t37.5 90.5t90.5 37.5t90.5 -37.5t37.5 -90.5t-37.5 -90.5t-90.5 -37.5zM512 576q-53 0 -90.5 37.5t-37.5 90.5
t37.5 90.5t90.5 37.5t90.5 -37.5t37.5 -90.5t-37.5 -90.5t-90.5 -37.5zM448 384q0 -53 -37.5 -90.5t-90.5 -37.5t-90.5 37.5t-37.5 90.5t37.5 90.5t90.5 37.5t90.5 -37.5t37.5 -90.5z" />
    <glyph glyph-name="uniF760" unicode="squaregithub" vert-adv-y="90" 
d="M896 0h-258q2 13 2 25q0 85 -19.5 170.5t-54.5 127.5q130 11 198 76.5t68 169.5q0 91 -64 140v91q0 10 -11 21t-21 11q-12 0 -119 -70q-47 6 -105 6t-105 -6q-107 70 -119 70q-10 0 -21 -11t-11 -21q0 -9 -2 -44t-3 -51q-59 -49 -59 -136q0 -104 68 -169.5t198 -76.5
q-5 -7 -14 -21q-43 -46 -124 -46q-16 0 -32 13t-31.5 32t-32.5 38t-42 32t-54 13q0 -8 10 -20.5t26.5 -33t27.5 -42.5q26 -51 54 -73.5t74 -22.5q48 0 87 14q-23 -88 -23 -181q0 -12 2 -25h-258q-53 0 -90.5 37.5t-37.5 90.5v768q0 53 37.5 90.5t90.5 37.5h768
q53 0 90.5 -37.5t37.5 -90.5v-768q0 -53 -37.5 -90.5t-90.5 -37.5z" />
    <glyph glyph-name="uniF761" unicode="projectfork" vert-adv-y="90" 
d="M832 768q-64 0 -103 52q-181 -40 -309.5 -202t-156.5 -385q26 -17 41.5 -45t15.5 -60q0 -53 -37.5 -90.5t-90.5 -37.5t-90.5 37.5t-37.5 90.5q0 35 17.5 64t46.5 46v722q0 26 18.5 45t45 19t45.5 -19t19 -45v-355q80 136 199 225.5t260 117.5q15 34 46.5 55t70.5 21
q53 0 90.5 -37.5t37.5 -90.5t-37.5 -90.5t-90.5 -37.5zM192.5 192q-26.5 0 -45.5 -18.5t-19 -45t19 -45.5t45.5 -19t45 19t18.5 45.5t-18.5 45t-45 18.5zM832.5 960q-26.5 0 -45.5 -19t-19 -45.5t19 -45t45.5 -18.5t45 19t18.5 45t-18.5 45t-45 19z" />
    <glyph glyph-name="uniF762" unicode="projectmerge" vert-adv-y="90" 
d="M832 0q-39 0 -70.5 21t-46.5 55q-141 28 -260 117.5t-199 225.5v-181q29 -17 46.5 -46t17.5 -64q0 -53 -37.5 -90.5t-90.5 -37.5t-90.5 37.5t-37.5 90.5q0 35 17.5 64t46.5 46v548q-29 17 -46.5 46t-17.5 64q0 53 37.5 90.5t90.5 37.5t90.5 -37.5t37.5 -90.5
q0 -33 -15.5 -61t-41.5 -45q28 -223 157 -384.5t309 -201.5q39 52 103 52q53 0 90.5 -37.5t37.5 -90.5t-37.5 -90.5t-90.5 -37.5zM191.5 64q26.5 0 45.5 18.5t19 45t-19 45.5t-45.5 19t-45 -19t-18.5 -45.5t18.5 -45t45 -18.5zM191.5 960q-26.5 0 -45 -18.5t-18.5 -45.5
t18.5 -45.5t45 -18.5t45.5 19t19 45.5t-19 45t-45.5 18.5zM831.5 192q-26.5 0 -45 -18.5t-18.5 -45.5t18.5 -45.5t45 -18.5t45.5 19t19 45.5t-19 45t-45.5 18.5z" />
    <glyph glyph-name="uniF763" unicode="projectcompare" vert-adv-y="90" 
d="M896 786v-402q0 -87 -43 -160.5t-116.5 -116.5t-160.5 -43v-64l-192 128l192 128v-64q80 0 136 56t56 136v402q-29 17 -46.5 46t-17.5 64q0 53 37.5 90.5t90.5 37.5t90.5 -37.5t37.5 -90.5q0 -35 -17.5 -64t-46.5 -46zM832 960q-27 0 -45.5 -18.5t-18.5 -45.5t18.5 -45.5
t45 -18.5t45.5 19t19 45.5t-18.5 45t-45.5 18.5zM448 832q-80 0 -136 -56t-56 -136v-402q29 -17 46.5 -46t17.5 -64q0 -53 -37.5 -90.5t-90.5 -37.5t-90.5 37.5t-37.5 90.5q0 35 17.5 64t46.5 46v402q0 87 43 160.5t116.5 116.5t160.5 43v64l192 -128l-192 -128v64z
M192.5 192q-26.5 0 -45.5 -18.5t-19 -45.5t18.5 -45.5t45.5 -18.5t45.5 19t18.5 45.5t-18.5 45t-45 18.5z" />
    <glyph glyph-name="uniF764" unicode="history" vert-adv-y="90" 
d="M320 320v32v0l131 177q5 20 22 33.5t39 13.5q21 0 38 -12.5t23 -32.5l195 -243v-32h-32v0v0l-225 181l-159 -117v0h-32zM512 0q-104 0 -197.5 39.5t-164.5 110.5l91 90q53 -53 123 -82.5t148 -29.5q104 0 192.5 51.5t140 140t51.5 192.5t-51.5 192.5t-140 140
t-192.5 51.5q-94 0 -175 -43t-135 -116l54 -54q0 -18 -12.5 -30.5t-29.5 -12.5h-171q-18 0 -30.5 12.5t-12.5 30.5v170q0 17 12.5 29.5t30.5 12.5l68 -67q71 91 176 143.5t225 52.5q104 0 199 -40.5t163.5 -109t109 -163.5t40.5 -199t-40.5 -199t-109 -163.5t-163.5 -109
t-199 -40.5z" />
    <glyph glyph-name="uniF765" unicode="notebook" vert-adv-y="90" 
d="M832 288v-64q0 -13 9.5 -22.5t22.5 -9.5t22.5 -9.5t9.5 -22.5t-9.5 -22.5t-22.5 -9.5h-64h-288v-128l-96 64l-96 -64v128h-128q-26 0 -45 18.5t-19 45.5v768q0 26 19 45t45 19h640q27 0 45.5 -19t18.5 -45v-640h-32q-13 0 -22.5 -9.5t-9.5 -22.5zM192 288v-64
q0 -13 9.5 -22.5t22.5 -9.5h96v64h192v-64h224q13 0 22.5 9.5t9.5 22.5v64q0 13 -9.5 22.5t-22.5 9.5h-512q-13 0 -22.5 -9.5t-9.5 -22.5zM832 928q0 13 -9.5 22.5t-22.5 9.5h-512q-13 0 -22.5 -9.5t-9.5 -22.5v-512q0 -13 9.5 -22.5t22.5 -9.5h512q13 0 22.5 9.5t9.5 22.5
v512zM672 640h-256q-13 0 -22.5 9.5t-9.5 22.5t9.5 22.5t22.5 9.5h256q13 0 22.5 -9.5t9.5 -22.5t-9.5 -22.5t-22.5 -9.5zM672 768h-256q-13 0 -22.5 9.5t-9.5 22.5t9.5 22.5t22.5 9.5h256q13 0 22.5 -9.5t9.5 -22.5t-9.5 -22.5t-22.5 -9.5z" />
    <glyph glyph-name="uniF766" unicode="issue" vert-adv-y="90" 
d="M512 0q-104 0 -199 40.5t-163.5 109t-109 163.5t-40.5 199t40.5 199t109 163.5t163.5 109t199 40.5t199 -40.5t163.5 -109t109 -163.5t40.5 -199t-40.5 -199t-109 -163.5t-163.5 -109t-199 -40.5zM512 896q-104 0 -192.5 -51.5t-140 -140t-51.5 -192.5t51.5 -192.5
t140 -140t192.5 -51.5t192.5 51.5t140 140t51.5 192.5t-51.5 192.5t-140 140t-192.5 51.5zM544 192h-64q-13 0 -22.5 9.5t-9.5 22.5v64q0 13 9.5 22.5t22.5 9.5h64q13 0 22.5 -9.5t9.5 -22.5v-64q0 -13 -9.5 -22.5t-22.5 -9.5zM544 384h-64q-13 0 -22.5 9.5t-9.5 22.5v384
q0 13 9.5 22.5t22.5 9.5h64q13 0 22.5 -9.5t9.5 -22.5v-384q0 -13 -9.5 -22.5t-22.5 -9.5z" />
    <glyph glyph-name="uniF767" unicode="issueclosed" vert-adv-y="90" 
d="M640 640v64h64l64 -64l192 192h64v-64l-256 -256zM544 384h-64q-13 0 -22.5 9.5t-9.5 22.5v384q0 13 9.5 22.5t22.5 9.5h64q13 0 22.5 -9.5t9.5 -22.5v-384q0 -13 -9.5 -22.5t-22.5 -9.5zM576 224q0 -13 -9.5 -22.5t-22.5 -9.5h-64q-13 0 -22.5 9.5t-9.5 22.5v64
q0 13 9.5 22.5t22.5 9.5h64q13 0 22.5 -9.5t9.5 -22.5v-64zM512 896q-104 0 -192.5 -51.5t-140 -140t-51.5 -192.5t51.5 -192.5t140 -140t192.5 -51.5t192.5 51.5t140 140t51.5 192.5q0 6 -1 24l110 111q19 -68 19 -135q0 -104 -40.5 -199t-109 -163.5t-163.5 -109
t-199 -40.5t-199 40.5t-163.5 109t-109 163.5t-40.5 199t40.5 199t109 163.5t163.5 109t199 40.5q109 0 206 -43t168 -120l-90 -91q-54 59 -127.5 92.5t-156.5 33.5z" />
    <glyph glyph-name="uniF768" unicode="issuereopened" vert-adv-y="90" 
d="M960 448q-27 0 -45.5 18.5t-18.5 45.5q0 104 -51.5 192.5t-140 140t-192.5 51.5q-141 0 -249 -92l57 -57q0 -18 -12.5 -30.5t-29.5 -12.5h-172q-17 0 -29.5 12.5t-12.5 30.5v170q0 18 12.5 30.5t29.5 12.5l66 -66q69 62 156.5 96t183.5 34q104 0 199 -40.5t163.5 -109
t109 -163.5t40.5 -199q0 -27 -18.5 -45.5t-45.5 -18.5zM544 384h-64q-13 0 -22.5 9.5t-9.5 22.5v384q0 13 9.5 22.5t22.5 9.5h64q13 0 22.5 -9.5t9.5 -22.5v-384q0 -13 -9.5 -22.5t-22.5 -9.5zM576 224q0 -13 -9.5 -22.5t-22.5 -9.5h-64q-13 0 -22.5 9.5t-9.5 22.5v64
q0 13 9.5 22.5t22.5 9.5h64q13 0 22.5 -9.5t9.5 -22.5v-64zM128 512q0 -104 51.5 -192.5t140 -140t192.5 -51.5q141 0 249 92l-57 57q0 18 12.5 30.5t29.5 12.5h172q17 0 29.5 -12.5t12.5 -30.5v-170q0 -18 -12.5 -30.5t-29.5 -12.5l-66 66q-69 -62 -156.5 -96t-183.5 -34
q-104 0 -199 40.5t-163.5 109t-109 163.5t-40.5 199q0 26 19 45t45 19t45 -19t19 -45z" />
    <glyph glyph-name="uniF769" unicode="rubyalt" vert-adv-y="90" 
d="M512 64l-512 576l256 320h512l256 -320zM736 896h-448l-192 -256l416 -480l416 480zM512 256v576h190l130 -192z" />
    <glyph glyph-name="uniF76A" unicode="lighton" vert-adv-y="90" 
d="M608 64h-320q-44 0 -70 45.5t-26 98.5q0 5 1.5 14t15.5 42t38 72t76.5 103.5t124.5 136.5t136 124.5t104.5 76.5t71 38t43.5 15l13 2q53 0 98.5 -26t45.5 -70v-320q0 -51 -35.5 -114t-87.5 -115t-115 -87.5t-114 -35.5zM795.5 732q-20.5 20 -108.5 -39t-192 -163.5
t-163 -192.5t-39 -108.5t108 39t192 163.5t163.5 192.5t39 108.5zM613 774.5q-19 -10.5 -40 -5t-32 23.5l-54 156q-11 18 -5.5 38t24.5 30.5t40.5 5t32.5 -23.5l54 -157q11 -17 5 -37t-25 -30.5zM300 655l-158 157q-14 15 -14 35t14.5 34.5t34.5 14.5t35 -14l157 -158
q14 -14 14 -34.5t-14 -35t-34.5 -14.5t-34.5 15zM249.5 411q-10.5 -19 -30.5 -25t-37 5l-157 54q-18 11 -23.5 32.5t5 40.5t30.5 24.5t38 -5.5l156 -54q18 -11 23.5 -32t-5 -40z" />
    <glyph glyph-name="uniF76B" unicode="lightoff" vert-adv-y="90" 
d="M1009.5 14.5q-14.5 -14.5 -34.5 -14.5t-35 14l-926 927q-14 14 -14 34.5t14.5 35t34.5 14.5t35 -15l926 -926q14 -14 14 -34.5t-14.5 -35zM668 510q72 82 108 144t20 78.5t-78 -20t-144 -108.5l-47 47q56 50 106.5 87.5t82.5 54.5t56 27t34 11l11 1q53 0 98.5 -26
t45.5 -70v-320q0 -64 -54 -145zM421 450q-72 -82 -108 -143.5t-20 -78t78 19.5t143 109l240 -240q-81 -53 -145 -53h-321q-44 0 -70 45.5t-26 98.5q0 4 1.5 11t11 33t26.5 56.5t54.5 81.5t88.5 107z" />
    <glyph glyph-name="uniF76C" unicode="bellalt" vert-adv-y="90" 
d="M352 0l-64 64q0 54 -46.5 152.5t-113.5 164.5l-22 22q-89 89 -103.5 213t47.5 228q-22 13 -36 35t-14 49q0 39 28.5 67.5t67.5 28.5q27 0 49.5 -14t34.5 -37q104 62 228 47t212 -103l22 -22q66 -66 165.5 -112.5t152.5 -46.5l64 -64q0 -129 -56 -253t-147.5 -215.5
t-215.5 -147.5t-253 -56zM913 625q-31 29 -104.5 2t-161.5 -98q26 -15 41.5 -40.5t15.5 -56.5q0 -47 -32.5 -79.5t-79.5 -32.5q-31 0 -56.5 15.5t-40.5 41.5q-71 -88 -98 -161.5t2 -104.5q37 -37 138 12t208 156t156 208t12 138z" />
    <glyph glyph-name="uniF76D" unicode="versions" vert-adv-y="90" 
d="M960 0h-512q-27 0 -45.5 18.5t-18.5 45.5v896q0 27 18.5 45.5t45.5 18.5h512q27 0 45.5 -18.5t18.5 -45.5v-896q0 -27 -18.5 -45.5t-45.5 -18.5zM960 960h-512v-896h512v896zM192 192v640q0 27 18.5 45.5t45.5 18.5h64v-64h-64v-640h64v-64h-64q-27 0 -45.5 18.5
t-18.5 45.5zM0 320v384q0 26 18.5 45t45.5 19h64v-64h-64v-384h64v-64h-64q-27 0 -45.5 18.5t-18.5 45.5z" />
    <glyph glyph-name="uniF76E" unicode="twog" vert-adv-y="90" 
d="M960 64h-384q-27 0 -45.5 18.5t-18.5 45.5v704q0 27 18.5 45.5t45.5 18.5h384q27 0 45.5 -18.5t18.5 -45.5v-64q0 -26 -18.5 -45t-45.5 -19h-256v-448h128v128q-27 0 -45.5 18.5t-18.5 45.5v64q0 26 18.5 45t45.5 19h128q26 0 45 -19t19 -45v-384q0 -27 -18.5 -45.5
t-45.5 -18.5zM384 64h-320q-27 0 -45.5 18.5t-18.5 45.5v384q0 27 18.5 45.5t45.5 18.5h192v128h-192q-27 0 -45.5 18.5t-18.5 45.5v64q0 27 18.5 45.5t45.5 18.5h320q27 0 45.5 -18.5t18.5 -45.5v-384q0 -26 -18.5 -45t-45.5 -19h-192v-128h192q27 0 45.5 -18.5t18.5 -45.5
v-64q0 -26 -18.5 -45t-45.5 -19z" />
    <glyph glyph-name="uniF76F" unicode="threeg" vert-adv-y="90" 
d="M960 64h-384q-26 0 -45 18.5t-19 45.5v704q0 27 19 45.5t45 18.5h384q27 0 45.5 -18.5t18.5 -45.5v-64q0 -27 -18.5 -45.5t-45.5 -18.5h-256v-448h128v128q-26 0 -45 18.5t-19 45.5v64q0 26 19 45t45 19h128q27 0 45.5 -19t18.5 -45v-384q0 -27 -18.5 -45.5t-45.5 -18.5z
M384 64h-320q-27 0 -45.5 18.5t-18.5 45.5v64q0 26 18.5 45t45.5 19h192v128h-192q-26 0 -45 18.5t-19 45.5v64q0 26 19 45t45 19h192v128h-192q-27 0 -45.5 18.5t-18.5 45.5v64q0 26 18.5 45t45.5 19h320q27 0 45.5 -19t18.5 -45v-704q0 -27 -18.5 -45.5t-45.5 -18.5z" />
    <glyph glyph-name="NameMe.64362" unicode="fourg" vert-adv-y="90" 
d="M960 64h-384q-26 0 -45 18.5t-19 45.5v704q0 26 19 45t45 19h384q27 0 45.5 -19t18.5 -45v-64q0 -27 -18.5 -45.5t-45.5 -18.5h-256v-448h128v128q-26 0 -45 18.5t-19 45.5v64q0 26 19 45t45 19h128q27 0 45.5 -19t18.5 -45v-384q0 -27 -18.5 -45.5t-45.5 -18.5zM384 64
h-64q-26 0 -45 18.5t-19 45.5v256h-192q-26 0 -45 18.5t-19 45.5v384q0 26 19 45t45 19h64q27 0 45.5 -19t18.5 -45v-256h64v256q0 26 19 45t45 19h64q27 0 45.5 -19t18.5 -45v-704q0 -27 -18.5 -45.5t-45.5 -18.5z" />
    <glyph glyph-name="uniF771" unicode="gpsalt" vert-adv-y="90" 
d="M960 448q-27 0 -45.5 18.5t-18.5 45.5q0 104 -51.5 192.5t-140 140t-192.5 51.5q-26 0 -45 18.5t-19 45t19 45.5t45 19q104 0 199 -40.5t163.5 -109t109 -163.5t40.5 -199q0 -27 -18.5 -45.5t-45.5 -18.5zM768.5 448q-26.5 0 -45.5 18.5t-19 45.5q0 80 -56 136t-136 56
q-26 0 -45 18.5t-19 45t19 45.5t45 19q87 0 160.5 -43t116.5 -116.5t43 -160.5q0 -27 -18.5 -45.5t-45 -18.5zM640 512q0 -66 -54 -104l227 -228q19 -18 19 -44.5t-19 -45.5q-34 -35 -99 -56t-121 -27.5t-113 -6.5q-55 0 -112 10t-125 40.5t-115 77.5t-77 115t-40.5 125.5
t-10.5 111.5q0 58 6 114t27.5 120.5t56.5 99.5q19 19 45.5 19t44.5 -19l228 -228q38 54 104 54q53 0 90.5 -37.5t37.5 -90.5z" />
    <glyph glyph-name="uniF772" unicode="circleloaderfull" vert-adv-y="90" 
d="M512 0q-104 0 -199 40.5t-163.5 109t-109 163.5t-40.5 199t40.5 199t109 163.5t163.5 109t199 40.5t199 -40.5t163.5 -109t109 -163.5t40.5 -199t-40.5 -199t-109 -163.5t-163.5 -109t-199 -40.5zM512 832q-87 0 -160.5 -43t-116.5 -116.5t-43 -160.5t43 -160.5
t116.5 -116.5t160.5 -43t160.5 43t116.5 116.5t43 160.5t-43 160.5t-116.5 116.5t-160.5 43z" />
    <glyph glyph-name="uniF773" unicode="circleloaderseven" vert-adv-y="90" 
d="M512 0q-139 0 -257 68.5t-186.5 186.5t-68.5 257q0 104 39.5 197.5t110.5 164.5l45 -45q62 62 144 96.5t173 34.5v64q104 0 199 -40.5t163.5 -109t109 -163.5t40.5 -199t-40.5 -199t-109 -163.5t-163.5 -109t-199 -40.5zM240 784l46 -46q-45 -44 -69.5 -102.5
t-24.5 -123.5q0 -87 43 -160.5t116.5 -116.5t160.5 -43t160.5 43t116.5 116.5t43 160.5t-43 160.5t-116.5 116.5t-160.5 43v64q-78 0 -148 -29.5t-124 -82.5z" />
    <glyph glyph-name="uniF774" unicode="circleloadersix" vert-adv-y="90" 
d="M512 0q-104 0 -199 40.5t-163.5 109t-109 163.5t-40.5 199h64q0 91 35.5 174t95.5 143t143 95.5t174 35.5v64q104 0 199 -40.5t163.5 -109t109 -163.5t40.5 -199t-40.5 -199t-109 -163.5t-163.5 -109t-199 -40.5zM128 512h64q0 -87 43 -160.5t116.5 -116.5t160.5 -43
t160.5 43t116.5 116.5t43 160.5t-43 160.5t-116.5 116.5t-160.5 43v64q-104 0 -192.5 -51.5t-140 -140t-51.5 -192.5z" />
    <glyph glyph-name="uniF775" unicode="circleloaderfive" vert-adv-y="90" 
d="M512 0q-104 0 -197.5 39.5t-164.5 110.5l45 45q-62 62 -96.5 144t-34.5 173t35.5 174t95.5 143t143 95.5t174 35.5v64q104 0 199 -40.5t163.5 -109t109 -163.5t40.5 -199t-40.5 -199t-109 -163.5t-163.5 -109t-199 -40.5zM128 512q0 -78 29.5 -148t82.5 -124l46 46
q44 -45 102.5 -69.5t123.5 -24.5q87 0 160.5 43t116.5 116.5t43 160.5t-43 160.5t-116.5 116.5t-160.5 43v64q-104 0 -192.5 -51.5t-140 -140t-51.5 -192.5z" />
    <glyph glyph-name="uniF776" unicode="circleloaderfour" vert-adv-y="90" 
d="M512 0v64q-91 0 -174 35.5t-143 95.5t-95.5 143t-35.5 174t35.5 174t95.5 143t143 95.5t174 35.5v64q104 0 199 -40.5t163.5 -109t109 -163.5t40.5 -199t-40.5 -199t-109 -163.5t-163.5 -109t-199 -40.5zM128 512q0 -104 51.5 -192.5t140 -140t192.5 -51.5v64
q87 0 160.5 43t116.5 116.5t43 160.5t-43 160.5t-116.5 116.5t-160.5 43v64q-104 0 -192.5 -51.5t-140 -140t-51.5 -192.5z" />
    <glyph glyph-name="uniF777" unicode="circleloaderthree" vert-adv-y="90" 
d="M874 150l-45 45q-62 -62 -144 -96.5t-173 -34.5t-174 35.5t-143 95.5t-95.5 143t-35.5 174t35.5 174t95.5 143t143 95.5t174 35.5v64q104 0 199 -40.5t163.5 -109t109 -163.5t40.5 -199t-39.5 -197.5t-110.5 -164.5zM128 512q0 -104 51.5 -192.5t140 -140t192.5 -51.5
q78 0 148 29.5t124 82.5l-46 46q45 44 69.5 102.5t24.5 123.5q0 87 -43 160.5t-116.5 116.5t-160.5 43v64q-104 0 -192.5 -51.5t-140 -140t-51.5 -192.5z" />
    <glyph glyph-name="uniF778" unicode="circleloadertwo" vert-adv-y="90" 
d="M960 512q0 -91 -35.5 -174t-95.5 -143t-143 -95.5t-174 -35.5t-174 35.5t-143 95.5t-95.5 143t-35.5 174t35.5 174t95.5 143t143 95.5t174 35.5v64q104 0 199 -40.5t163.5 -109t109 -163.5t40.5 -199h-64zM128 512q0 -104 51.5 -192.5t140 -140t192.5 -51.5t192.5 51.5
t140 140t51.5 192.5h-64q0 87 -43 160.5t-116.5 116.5t-160.5 43v64q-104 0 -192.5 -51.5t-140 -140t-51.5 -192.5z" />
    <glyph glyph-name="uniF779" unicode="circleloaderone" vert-adv-y="90" 
d="M960 512q0 -91 -35.5 -174t-95.5 -143t-143 -95.5t-174 -35.5t-174 35.5t-143 95.5t-95.5 143t-35.5 174t35.5 174t95.5 143t143 95.5t174 35.5v64q104 0 197.5 -39.5t164.5 -110.5l-45 -45q62 -62 96.5 -144t34.5 -173zM128 512q0 -104 51.5 -192.5t140 -140
t192.5 -51.5t192.5 51.5t140 140t51.5 192.5q0 78 -29.5 148t-82.5 124l-46 -46q-44 45 -102.5 69.5t-123.5 24.5v64q-104 0 -192.5 -51.5t-140 -140t-51.5 -192.5z" />
    <glyph glyph-name="uniF77A" unicode="circleloaderempty" vert-adv-y="90" 
d="M512 64q122 0 225 60t163 163t60 225t-60 225t-163 163t-225 60t-225 -60t-163 -163t-60 -225t60 -225t163 -163t225 -60zM512 896q104 0 192.5 -51.5t140 -140t51.5 -192.5t-51.5 -192.5t-140 -140t-192.5 -51.5t-192.5 51.5t-140 140t-51.5 192.5t51.5 192.5t140 140
t192.5 51.5z" />
    <glyph glyph-name="uniF77B" unicode="whatsapp" vert-adv-y="90" 
d="M544 64q-124 0 -233 60l-311 -124l124 311q-60 109 -60 233q0 98 38 186.5t102.5 153t153 102.5t186.5 38t186.5 -38t153 -102.5t102.5 -153t38 -186.5t-38 -186.5t-102.5 -153t-153 -102.5t-186.5 -38zM704 448h-64l-36 -32q-45 12 -110.5 77.5t-77.5 110.5l32 36v64
q0 17 -12 34t-26.5 24.5t-20.5 1.5l-47 -47q-39 -39 -11.5 -121.5t105 -160t160 -105t121.5 11.5l47 47q6 6 -1.5 20.5t-24.5 26.5t-34 12z" />
    <glyph glyph-name="uniF77C" unicode="whatsappalt" vert-adv-y="90" 
d="M544 64q-124 0 -233 60l-311 -124l124 311q-60 109 -60 233q0 98 38 186.5t102.5 153t153 102.5t186.5 38t186.5 -38t153 -102.5t102.5 -153t38 -186.5t-38 -186.5t-102.5 -153t-153 -102.5t-186.5 -38zM544 896q-96 0 -177 -47t-128 -128t-47 -177t47 -177t128 -128
t177 -47t177 47t128 128t47 177t-47 177t-128 128t-177 47zM717 342q-39 -39 -121.5 -11.5t-160 105t-105 160t11.5 121.5l47 47q6 6 20.5 -1.5t26.5 -24.5t12 -34v-64l-32 -36q12 -45 77.5 -110.5t110.5 -77.5l36 32h64q17 0 34 -12t24.5 -26.5t1.5 -20.5z" />
    <glyph glyph-name="uniF77D" unicode="viber" vert-adv-y="90" 
d="M903 235q-69 -61 -200 -87.5t-270 -15.5l-176 -132v165q-87 27 -136 70q-58 51 -90 146.5t-32 195t32 195t90.5 147t167.5 79t223 27.5t223 -27.5t167.5 -79t90.5 -147t32 -195t-32 -195t-90 -146.5zM638 480l65 -11q-8 120 -92.5 205t-204.5 93l11 -65q86 -11 148 -73
t73 -149zM428 635l12 -72q40 -20 59 -59l72 -12q-12 53 -51 91.5t-92 51.5zM321 576v64q0 17 -12.5 34t-26.5 24.5t-21 1.5l-46 -47q-39 -39 -11.5 -121.5t105 -160t160 -105t120.5 11.5l47 47q7 6 -0.5 20.5t-24.5 26.5t-34 12h-64l-37 -32q-44 12 -109.5 77.5t-77.5 110.5
zM385 896l10 -65q100 -2 185 -52.5t135 -135t53 -184.5l65 -11q0 91 -35.5 174t-95.5 143t-143 95.5t-174 35.5z" />
    <glyph glyph-name="uniF77E" unicode="squareviber" vert-adv-y="90" 
d="M896 0h-768q-53 0 -90.5 37.5t-37.5 90.5v768q0 53 37.5 90.5t90.5 37.5h768q53 0 90.5 -37.5t37.5 -90.5v-768q0 -53 -37.5 -90.5t-90.5 -37.5zM320 640v96q0 27 -16.5 53t-36.5 37t-31 1l-73 -74q-30 -30 -34 -80.5t15.5 -110t62.5 -126t103 -126.5t126.5 -103t126 -63
t110 -16t80.5 34l74 74q10 10 -1 30.5t-37 37t-53 16.5h-96l-65 -40q-45 12 -111 65t-119 119t-65 111zM702 480l65 -11q-8 120 -93 205t-204 93l10 -65q87 -11 149 -73t73 -149zM492 635l12 -72q39 -19 59 -59l72 -12q-13 53 -51.5 91.5t-91.5 51.5zM448 896l11 -65
q100 -2 184.5 -52.5t135 -135t52.5 -184.5l65 -11q0 91 -35.5 174t-95.5 143t-143 95.5t-174 35.5z" />
    <glyph glyph-name="uniF77F" unicode="teamviewer" vert-adv-y="90" 
d="M896 0h-768q-53 0 -90.5 37.5t-37.5 90.5v768q0 53 37.5 90.5t90.5 37.5h768q53 0 90.5 -37.5t37.5 -90.5v-768q0 -53 -37.5 -90.5t-90.5 -37.5zM512 896q-104 0 -192.5 -51.5t-140 -140t-51.5 -192.5t51.5 -192.5t140 -140t192.5 -51.5t192.5 51.5t140 140t51.5 192.5
t-51.5 192.5t-140 140t-192.5 51.5zM640 448h-256v-128l-192 192l192 192v-128h256v128l192 -192l-192 -192v128z" />
    <glyph glyph-name="uniF780" unicode="tunein" vert-adv-y="90" 
d="M896 320h-192v192q0 53 37.5 90.5t90.5 37.5h192v-192q0 -53 -37.5 -90.5t-90.5 -37.5zM512 0h-192v256h320v-128q0 -53 -37.5 -90.5t-90.5 -37.5zM0 448v192h512q53 0 90.5 -37.5t37.5 -90.5v-192h-512q-53 0 -90.5 37.5t-37.5 90.5zM480 704q-66 0 -113 47t-47 113
t47 113t113 47t113 -47t47 -113t-47 -113t-113 -47z" />
    <glyph glyph-name="uniF781" unicode="tuneinalt" vert-adv-y="90" 
d="M896 0h-704q-53 0 -90.5 37.5t-37.5 90.5v704q0 53 37.5 90.5t90.5 37.5h704q53 0 90.5 -37.5t37.5 -90.5v-704q0 -53 -37.5 -90.5t-90.5 -37.5zM544 832q-40 0 -68 -28t-28 -68t28 -68t68 -28t68 28t28 68t-28 68t-68 28zM640 480q0 40 -29 68t-71 28h-348v-96
q0 -40 29 -68t71 -28h348v96zM640 320h-192v-192h96q40 0 68 28t28 68v96zM896 576h-96q-40 0 -68 -28t-28 -68v-96h96q40 0 68 28t28 68v96z" />
    <glyph glyph-name="uniF782" unicode="weightscale" vert-adv-y="90" 
d="M970 119q-3 -50 -43 -84.5t-93 -34.5h-640q-53 0 -93 34.5t-44 84.5l-57 748q-4 64 36 110t102 46h747q62 0 102.5 -46t36.5 -110zM512 895q-100 0 -186.5 -49.5t-133.5 -142.5l218 -87l-81 161q-9 10 -9 23t9.5 22.5t22.5 9.5t22 -10l161 -184q46 -4 76 -23l221 88
q-47 93 -133.5 142.5t-186.5 49.5z" />
    <glyph glyph-name="uniF783" unicode="boxing" vert-adv-y="90" 
d="M615 412q9 25 14.5 38.5t16 33.5t19 31t22.5 24.5t29.5 20.5t37 11.5t46.5 4.5q66 0 113 -47t47 -113q0 -74 -51 -136.5t-141 -101.5v-114q0 -27 -75 -45.5t-181 -18.5t-181 18.5t-75 45.5v145q-89 62 -140.5 158.5t-51.5 208.5q0 91 35.5 174t95.5 143t143 95.5
t174 35.5q75 0 141.5 -13t122 -38.5t88 -70t32.5 -102.5q0 -45 -15.5 -78.5t-41 -50t-51 -24t-52.5 -7.5q-51 0 -105.5 -54t-54.5 -106q0 -40 39 -68z" />
    <glyph glyph-name="uniF784" unicode="speedalt" vert-adv-y="90" 
d="M512 0q-104 0 -199 40.5t-163.5 109t-109 163.5t-40.5 199t40.5 199t109 163.5t163.5 109t199 40.5t199 -40.5t163.5 -109t109 -163.5t40.5 -199t-40.5 -199t-109 -163.5t-163.5 -109t-199 -40.5zM340 515l87 -228q-43 -38 -43 -95q0 -53 37.5 -90.5t90.5 -37.5
t90.5 37.5t37.5 90.5q0 50 -34 86.5t-84 40.5l-115 229q-1 2 -4 7q-9 19 -15 30.5t-16.5 28.5t-20.5 23t-18 0q-12 -9 -13 -33t5.5 -47.5t14.5 -41.5zM512 960q-91 0 -174 -35.5t-143 -95.5t-95.5 -143t-35.5 -174h2q8 106 65 194t149 139t200 51t200 -51t149 -139t65 -194
h66q0 91 -35.5 174t-95.5 143t-143 95.5t-174 35.5z" />
    <glyph glyph-name="uniF785" unicode="scriptalt" vert-adv-y="90" 
d="M768 0h-480h-32q-45 0 -75 29t-41.5 70.5t-11.5 92.5v512h-64q-26 0 -45 18.5t-19 45.5q0 106 75 181t181 75h512q48 0 88 -40t40 -88v-576h64q27 0 45.5 -19t18.5 -45q0 -106 -75 -181t-181 -75zM128 910q-64 -58 -64 -142h64v142zM832 856q0 50 -27.5 77t-68.5 27h-544
v-792q0 -75 87 -96q34 15 59 46.5t37 73.5h-87q-13 0 -22.5 9.5t-9.5 22.5t9.5 22.5t22.5 9.5h96q0 26 19 45t45 19h384v536zM448 256q0 -111 -72 -192h392q80 0 136 56t56 136h-512zM256 416q0 13 9.5 22.5t22.5 9.5h448q13 0 22.5 -9.5t9.5 -22.5t-9.5 -22.5t-22.5 -9.5
h-448q-13 0 -22.5 9.5t-9.5 22.5zM736 576h-448q-13 0 -22.5 9.5t-9.5 22.5t9.5 22.5t22.5 9.5h448q13 0 22.5 -9.5t9.5 -22.5t-9.5 -22.5t-22.5 -9.5zM736 768h-448q-13 0 -22.5 9.5t-9.5 22.5t9.5 22.5t22.5 9.5h448q13 0 22.5 -9.5t9.5 -22.5t-9.5 -22.5t-22.5 -9.5z" />
    <glyph glyph-name="uniF786" unicode="splitthree" vert-adv-y="90" 
d="M1021 168l-116 -163q-4 -5 -9.5 -5t-9.5 5l-116 163q-6 10 4 24h58v128v0q0 26 -16.5 52.5t-47.5 51.5t-60.5 45.5t-70 46.5t-61.5 43v-367h58q10 -14 3 -24l-116 -163q-3 -5 -9 -5t-10 5l-115 163q-7 10 3 24h58v362q-22 -16 -61.5 -41.5t-69.5 -45.5t-60.5 -44.5
t-47.5 -50.5t-17 -52v0v-128h58q10 -14 3 -24l-115 -163q-4 -5 -10 -5t-9 5l-116 163q-7 10 3 24h58v192q0 30 28.5 64.5t71 65.5t92.5 65.5t92.5 64.5t71 63t28.5 61v192q0 26 19 45t45.5 19t45 -19t18.5 -45v-192q0 -27 28.5 -59.5t71 -62.5t92.5 -65t92.5 -66t71 -66
t28.5 -65v-192h58q10 -14 3 -24z" />
    <glyph glyph-name="uniF787" unicode="mergethree" vert-adv-y="90" 
d="M576 352v-160h58q10 -14 3 -23l-116 -164q-3 -5 -9 -5t-10 5l-116 164q-6 9 4 23h58v160q0 32 -39.5 72t-96 78t-113 76.5t-96 80.5t-39.5 77v224q0 26 19 45t45.5 19t45 -19t18.5 -45v-160q0 -26 17 -52t47.5 -50.5t60.5 -44.5t69.5 -45.5t61.5 -42.5v395q0 26 19 45
t45.5 19t45 -19t18.5 -45v-399q21 16 61.5 42t70 46.5t60.5 46t47.5 52t16.5 52.5v160q0 26 19 45t45.5 19t45 -19t18.5 -45v-224q0 -35 -39.5 -77t-96 -81t-113 -77.5t-96 -78t-39.5 -70.5z" />
    <glyph glyph-name="uniF788" unicode="layersthree" vert-adv-y="90" 
d="M960 320h-896q-27 0 -45.5 18.5t-18.5 45.5q95 104 171 192h93l-168 -192h832l-168 192h93q34 -40 77 -88t68 -76l26 -28q0 -27 -18.5 -45.5t-45.5 -18.5zM960 640h-896q-27 0 -45.5 18.5t-18.5 45.5q150 164 224 256q12 15 36 31t42 25l18 8h384q7 -3 18.5 -8t37.5 -22
t40 -34q33 -42 89 -106t96 -107l39 -43q0 -27 -18.5 -45.5t-45.5 -18.5zM704 960h-384l-224 -256h832zM264 256l-168 -192h832l-168 192h93q77 -89 171 -192q0 -26 -18.5 -45t-45.5 -19h-896q-27 0 -45.5 19t-18.5 45q95 104 171 192h93z" />
    <glyph glyph-name="uniF789" unicode="mutemic" vert-adv-y="90" 
d="M1007.5 16.5q-16.5 -16.5 -40 -16.5t-39.5 17l-911 911q-17 16 -17 39.5t16.5 40t40 16.5t39.5 -16l911 -911q17 -17 17 -40.5t-16.5 -40zM732 445q36 61 36 131q0 26 19 45t45.5 19t45 -19t18.5 -45q0 -124 -71 -224zM323 854q8 72 62 120.5t127 48.5q80 0 136 -56
t56 -135v-256q0 -43 -19 -84zM485 387q-63 9 -108 53.5t-54 107.5zM192.5 640q26.5 0 45.5 -19t19 -45q0 -106 74.5 -181t180.5 -75q17 0 37 3l103 -104q-38 -15 -76 -21v-70h128q27 0 45.5 -19t18.5 -45.5t-18.5 -45t-45.5 -18.5h-383q-27 0 -45.5 18.5t-18.5 45t18.5 45.5
t45.5 19h127v70q-137 23 -228 129.5t-91 248.5q0 26 18.5 45t45 19z" />
    <glyph glyph-name="uniF78A" unicode="&#x7a;erply" vert-adv-y="90" 
d="M896 256q0 -5 -0.5 -14.5t-3.5 -36t-8.5 -50.5t-17.5 -53.5t-28 -51t-42.5 -36t-59.5 -14.5q-63 0 -118 20t-95.5 48t-79 56t-86.5 48t-101 20q-77 0 -102.5 5t-25.5 27q0 48 54.5 131.5t122 159.5t151.5 171.5t120 145.5q-42 -21 -60.5 -29.5t-59.5 -21.5t-72 -13
q-52 0 -90 40t-38 88q0 26 6.5 49t16 36.5t19 24t15.5 14.5l7 4q1 -3 3.5 -7t11.5 -15t19.5 -19.5t27 -15.5t34.5 -7q76 0 140 10t97 22t64 22t51 10q23 0 37 -5t19.5 -16t6.5 -19t1 -24q0 -35 -55.5 -112.5t-126 -155t-155 -175t-125.5 -155.5q57 -20 140 -64.5t148.5 -75
t109.5 -30.5q79 0 124 58z" />
    <glyph glyph-name="uniF78B" unicode="circlegoogleplus" vert-adv-y="90" 
d="M512 0q-4 0 -30 2q62 67 62 158q0 62 -14.5 95t-49.5 65q-16 15 -54.5 34t-49.5 28q-18 10 -37 30t-19 36t11 31.5t31 30t29 20t25 14.5q25 14 44.5 58t19.5 102q0 56 -18.5 108.5t-54.5 83.5h73l65 64h-280q115 64 247 64q104 0 199 -40.5t163.5 -109t109 -163.5
t40.5 -199t-40.5 -199t-109 -163.5t-163.5 -109t-199 -40.5zM865 768h-96v96q0 14 -9.5 23t-23 9t-22.5 -9t-9 -23v-96h-96q-14 0 -23 -9t-9 -22.5t9 -23t23 -9.5h96v-96q0 -13 9 -22.5t22.5 -9.5t23 9.5t9.5 22.5v96h96q13 0 22.5 9.5t9.5 23t-9.5 22.5t-22.5 9zM256 384z
M256 384q-121 0 -221 -56q-35 90 -35 184q0 4 2 30q66 -59 191 -62v-32q0 -13 6.5 -25t14.5 -18.5t19 -11.5t15.5 -6.5zM384 704q0 -76 -45.5 -118t-114.5 -42q-65 0 -112.5 56.5t-47.5 135.5q0 12 3 29q41 72 104 128q12 3 21 3q79 0 135.5 -56t56.5 -136zM256 320
q91 0 142 -57t51 -135q0 -64 -61 -112q-104 26 -188 90.5t-136 157.5q81 56 192 56z" />
    <glyph glyph-name="uniF78C" unicode="circletwitter" vert-adv-y="90" 
d="M512 0q-104 0 -199 40.5t-163.5 109t-109 163.5t-40.5 199t40.5 199t109 163.5t163.5 109t199 40.5t199 -40.5t163.5 -109t109 -163.5t40.5 -199t-40.5 -199t-109 -163.5t-163.5 -109t-199 -40.5zM813 768q-6 -3 -18 -11l-19.5 -13t-18.5 -10t-21 -7q-37 41 -91 41
q-117 0 -117 -98v-59q-161 8 -247 118q-25 -26 -25 -57q0 -66 49 -100q-6 0 -17 -1t-17.5 0t-14.5 5q0 -46 24.5 -76.5t67.5 -39.5q-10 -12 -28 -12q-16 0 -28 9q0 -39 37.5 -60.5t84.5 -22.5q-18 -27 -52.5 -40.5t-73.5 -13.5q-14 0 -38.5 7t-25.5 7q16 -32 65.5 -55
t125.5 -23q67 0 125 23.5t99 62.5t70.5 89t44 103.5t14.5 105.5q0 2 12 8.5t28 17.5t24 23q-54 0 -72 -2q35 21 53 81z" />
    <glyph glyph-name="uniF78D" unicode="circlefacebook" vert-adv-y="90" 
d="M640 17v303h64q27 0 45.5 12.5t18.5 30.5v42q0 18 -18.5 30.5t-45.5 12.5h-64v128q0 27 19 45.5t45.5 18.5t45 12.5t18.5 30.5v42q0 18 -18.5 30.5t-45.5 12.5q-106 0 -149 -43t-43 -149v-128q-26 0 -45 -12.5t-19 -30.5v-42q0 -18 19 -30.5t45 -12.5v-320
q-104 0 -199 40.5t-163.5 109t-109 163.5t-40.5 199t40.5 199t109 163.5t163.5 109t199 40.5t199 -40.5t163.5 -109t109 -163.5t40.5 -199q0 -177 -108.5 -314.5t-275.5 -180.5z" />
    <glyph glyph-name="uniF78E" unicode="circleyahoo" vert-adv-y="90" 
d="M512 0q-139 0 -257 68.5t-186.5 186.5t-68.5 257q0 104 40.5 199t109 163.5t163.5 109t199 40.5t199 -40.5t163.5 -109t109 -163.5t40.5 -199q0 -139 -68.5 -257t-186.5 -186.5t-257 -68.5zM832 688q0 7 -4.5 11.5t-11.5 4.5h-224q-7 0 -11.5 -4.5t-4.5 -11.5v-32
q0 -7 4.5 -11.5t11.5 -4.5h56l-128 -141l-119 205h95q7 0 11.5 4.5t4.5 11.5v32q0 7 -4.5 11.5t-11.5 4.5h-224q-7 0 -11.5 -4.5t-4.5 -11.5v-32q0 -7 4.5 -11.5t11.5 -4.5h45v-1l131 -230v-153h-48q-7 0 -11.5 -4.5t-4.5 -11.5v-32q0 -7 4.5 -11.5t11.5 -4.5h224
q7 0 11.5 4.5t4.5 11.5v32q0 7 -4.5 11.5t-11.5 4.5h-48v156l149 164h91q7 0 11.5 4.5t4.5 11.5v32z" />
    <glyph glyph-name="uniF78F" unicode="circlegithub" vert-adv-y="90" 
d="M639 16q0 1 0.5 3.5t0.5 4.5q0 85 -19.5 171t-54.5 127q130 11 198 76.5t68 169.5q0 91 -64 140v91q0 11 -11 21.5t-21 10.5q-12 0 -119 -70q-47 6 -105 6q-57 0 -105 -6q-107 70 -119 70q-10 0 -21 -11t-11 -21q0 -9 -2 -44t-3 -51q-59 -48 -59 -136q0 -104 68 -169.5
t198 -76.5q-5 -7 -14 -20q-43 -47 -124 -47q-16 0 -32 13.5t-31.5 32t-32.5 37.5t-42 32t-54 13q0 -8 9.5 -20t26.5 -33t28 -43q26 -50 54 -73t74 -23q48 0 87 14q-23 -88 -23 -181v-4t1 -4q-168 43 -276.5 180.5t-108.5 314.5q0 105 40.5 199.5t109 163t163.5 109t199 40.5
t199 -40.5t163.5 -109t109 -163t40.5 -199.5q0 -177 -108.5 -314.5t-276.5 -180.5z" />
    <glyph glyph-name="uniF790" unicode="forumsalt" vert-adv-y="90" 
d="M928 192h-32v-192l-192 192h-416q-53 0 -82 46l146 146h384q66 0 113 47t47 113v224h32q40 0 68 -28t28 -68v-384q0 -40 -28 -68t-68 -28zM736 448h-416l-192 -192v192h-32q-40 0 -68 28t-28 68v384q0 40 28 68t68 28h640q40 0 68 -28t28 -68v-384q0 -40 -28 -68t-68 -28
z" />
    <glyph glyph-name="uniF791" unicode="circlepath" vert-adv-y="90" 
d="M512 0q-104 0 -199 40.5t-163.5 109t-109 163.5t-40.5 199t40.5 199t109 163.5t163.5 109t199 40.5t199 -40.5t163.5 -109t109 -163.5t40.5 -199t-40.5 -199t-109 -163.5t-163.5 -109t-199 -40.5zM512 768q-50 0 -94.5 -13t-81.5 -38.5t-58.5 -70t-21.5 -102.5
q0 -65 40 -120l43 43q-7 11 -13 38t-6 39q0 67 60.5 113.5t131.5 46.5q68 0 130 -40.5t62 -87.5q0 -51 -34.5 -89.5t-93.5 -38.5q-19 0 -27.5 0.5t-19 3.5t-14 9.5t-3.5 18.5v96q0 13 -9.5 22.5t-22.5 9.5v0q-13 0 -22.5 -9.5t-9.5 -22.5v-224q0 -11 -4.5 -18.5t-15 -10
t-18 -3t-22.5 -0.5h-4q-14 0 -22 -8t-9 -16l-1 -8q0 -12 3.5 -19t13 -9.5t16.5 -3t23 -0.5h8h32q26 0 45 18.5t19 45.5v96q0 -12 21.5 -22t42.5 -10q92 0 142 54t50 138q0 61 -38 106t-95 65.5t-123 20.5z" />
    <glyph glyph-name="uniF792" unicode="circlevimeo" vert-adv-y="90" 
d="M512 0q-104 0 -199 40.5t-163.5 109t-109 163.5t-40.5 199t40.5 199t109 163.5t163.5 109t199 40.5t199 -40.5t163.5 -109t109 -163.5t40.5 -199t-40.5 -199t-109 -163.5t-163.5 -109t-199 -40.5zM656 768q-46 0 -78.5 -43.5t-33.5 -98.5q16 14 36 14q21 0 32.5 -10.5
t11.5 -37.5q0 -25 -17.5 -63.5t-40.5 -67.5t-38 -29q-7 0 -14 16t-14 47t-12 59t-12.5 70.5t-11.5 63.5q-15 80 -64 80q-72 0 -144 -128l16 -32q11 13 26 22.5t22 9.5t12.5 -4.5t8.5 -13t5 -15.5t3.5 -17t2.5 -14q4 -18 12 -66t16.5 -86t22.5 -79.5t37.5 -65t55.5 -23.5
q39 0 104.5 68.5t116.5 161.5t51 154q0 128 -112 128z" />
    <glyph glyph-name="uniF793" unicode="circlevine" vert-adv-y="90" 
d="M512 0q-104 0 -199 40.5t-163.5 109t-109 163.5t-40.5 199t40.5 199t109 163.5t163.5 109t199 40.5t199 -40.5t163.5 -109t109 -163.5t40.5 -199t-40.5 -199t-109 -163.5t-163.5 -109t-199 -40.5zM768 512q-25 0 -49.5 4t-51 15t-46 28.5t-32.5 46.5t-13 66q0 29 21 62.5
t43 33.5q23 0 43.5 -19.5t20.5 -44.5q0 -86 -14 -128h63q15 46 15 136q0 51 -34.5 85.5t-93.5 34.5q-45 0 -86.5 -41t-41.5 -99q0 -50 14 -94t30.5 -69.5t38.5 -46.5t31 -26t14 -8q0 -17 -28 -56.5t-59.5 -71.5t-40.5 -32q-4 0 -24 18t-48.5 55.5t-55 85t-45.5 116.5
t-19 141h-64q0 -101 24.5 -190.5t59.5 -146t73 -98t64.5 -59.5t34.5 -18q7 0 36.5 22.5t64.5 56.5t63 83.5t28 93.5q41 -3 64 0v64z" />
    <glyph glyph-name="uniF794" unicode="instagramtwo" vert-adv-y="90" 
d="M896 0h-768q-53 0 -90.5 37.5t-37.5 90.5v768q0 53 37.5 90.5t90.5 37.5h768q53 0 90.5 -37.5t37.5 -90.5v-768q0 -53 -37.5 -90.5t-90.5 -37.5zM256 960h-128v-256h128v256zM512 640q-80 0 -136 -56t-56 -136t56 -136t136 -56t136 56t56 136t-56 136t-136 56zM896 864
q0 13 -9.5 22.5t-22.5 9.5h-64q-13 0 -22.5 -9.5t-9.5 -22.5v-64q0 -13 9.5 -22.5t22.5 -9.5h64q13 0 22.5 9.5t9.5 22.5v64zM960 640h-192q64 -86 64 -192q0 -87 -43 -160.5t-116.5 -116.5t-160.5 -43t-160.5 43t-116.5 116.5t-43 160.5q0 106 64 192h-192v-512
q0 -27 18.5 -45.5t45.5 -18.5h768q26 0 45 18.5t19 45.5v512z" />
    <glyph glyph-name="uniF795" unicode="instagramthree" vert-adv-y="90" 
d="M896 0h-768q-53 0 -90.5 37.5t-37.5 90.5v768q0 53 37.5 90.5t90.5 37.5h768q53 0 90.5 -37.5t37.5 -90.5v-768q0 -53 -37.5 -90.5t-90.5 -37.5zM128 960q-26 0 -45 -18.5t-19 -45.5v-192h64v256zM512 128q87 0 160.5 43t116.5 116.5t43 160.5t-43 160.5t-116.5 116.5
t-160.5 43t-160.5 -43t-116.5 -116.5t-43 -160.5t43 -160.5t116.5 -116.5t160.5 -43zM960 896q0 27 -18.5 45.5t-45.5 18.5h-640v-226q110 98 256 98q84 0 158 -34t128 -94h162v192zM768 800v64q0 13 9.5 22.5t22.5 9.5h64q13 0 22.5 -9.5t9.5 -22.5v-64q0 -13 -9.5 -22.5
t-22.5 -9.5h-64q-13 0 -22.5 9.5t-9.5 22.5zM512 640q80 0 136 -56t56 -136t-56 -136t-136 -56t-136 56t-56 136t56 136t136 56z" />
    <glyph glyph-name="uniF796" unicode="flickrthree" vert-adv-y="90" 
d="M800 320q-93 0 -158.5 65.5t-65.5 158.5t65.5 158.5t158.5 65.5t158.5 -65.5t65.5 -158.5t-65.5 -158.5t-158.5 -65.5zM800 704q-66 0 -113 -47t-47 -113t47 -113t113 -47t113 47t47 113t-47 113t-113 47zM224 320q-93 0 -158.5 65.5t-65.5 158.5t65.5 158.5t158.5 65.5
t158.5 -65.5t65.5 -158.5t-65.5 -158.5t-158.5 -65.5z" />
    <glyph glyph-name="uniF797" unicode="quora" vert-adv-y="90" 
d="M772 153q26 -25 60 -25q27 0 45.5 -19t18.5 -45.5t-18.5 -45t-45.5 -18.5q-43 0 -96 25t-89 61q-66 -22 -135 -22q-91 0 -174 38t-143 102.5t-95.5 153t-35.5 186.5t35.5 186.5t95.5 153t143 102.5t174 38t174 -38t143 -102.5t95.5 -153t35.5 -186.5q0 -119 -50.5 -221.5
t-137.5 -169.5zM512 896q-70 0 -128.5 -47t-93 -128t-34.5 -177t34.5 -177t93 -128t128.5 -47q41 0 80 18q-29 46 -80 46q-26 0 -45 18.5t-19 45t19 45.5t45 19q43 0 95.5 -24.5t88.5 -60.5q72 102 72 245q0 96 -34 177t-93 128t-129 47z" />
    <glyph glyph-name="uniF798" unicode="squarequora" vert-adv-y="90" 
d="M896 0h-768q-53 0 -90.5 37.5t-37.5 90.5v768q0 53 37.5 90.5t90.5 37.5h768q53 0 90.5 -37.5t37.5 -90.5v-768q0 -53 -37.5 -90.5t-90.5 -37.5zM768 544q0 119 -75 203.5t-181 84.5t-181 -84.5t-75 -203.5t75 -203.5t181 -84.5q63 0 118 33q21 -14 52 -23.5t54 -9.5
q13 0 22.5 9.5t9.5 22.5t-9.5 22.5t-22.5 9.5q-24 0 -44 19q76 85 76 205zM544 448q-13 0 -22.5 -9.5t-9.5 -22.5t9.5 -22.5t22.5 -9.5q24 0 44 -19q-34 -45 -76 -45q-53 0 -90.5 65.5t-37.5 158.5t37.5 158.5t90.5 65.5t90.5 -65.5t37.5 -158.5q0 -60 -18 -114
q-42 18 -78 18z" />
    <glyph glyph-name="uniF799" unicode="circlequora" vert-adv-y="90" 
d="M512 0q-139 0 -257 68.5t-186.5 186.5t-68.5 257t68.5 257t186.5 186.5t257 68.5t257 -68.5t186.5 -186.5t68.5 -257t-68.5 -257t-186.5 -186.5t-257 -68.5zM768 544q0 119 -75 203.5t-181 84.5t-181 -84.5t-75 -203.5t75 -203.5t181 -84.5q63 0 118 33q21 -14 52 -23.5
t54 -9.5q13 0 22.5 9.5t9.5 22.5t-9.5 22.5t-22.5 9.5q-25 0 -44 19q76 85 76 205zM544 448q-13 0 -22.5 -9.5t-9.5 -22.5t9.5 -22.5t22.5 -9.5q24 0 44 -19q-34 -45 -76 -45q-53 0 -90.5 65.5t-37.5 158.5t37.5 158.5t90.5 65.5t90.5 -65.5t37.5 -158.5q0 -60 -18 -114
q-42 18 -78 18z" />
    <glyph glyph-name="uniF79A" unicode="picasa" vert-adv-y="90" 
d="M986 320h-218v635q117 -68 186.5 -185.5t69.5 -257.5q0 -99 -38 -192zM704 620l-371 371q88 33 179 33q99 0 192 -38v-366zM452 784l-428 -428q-24 76 -24 156q0 144 74 265t197 187zM256 499v-430q-138 80 -206 224zM320 256h635q-68 -117 -185.5 -186.5t-257.5 -69.5
q-99 0 -192 38v218z" />
    <glyph glyph-name="uniF79B" unicode="branch" vert-adv-y="90" 
d="M992 0h-192q-13 0 -22.5 9.5t-9.5 22.5v192q0 13 9.5 22.5t22.5 9.5h32v64q0 26 -16.5 49t-47.5 42t-60.5 34t-70 33t-61.5 30v-252h32q13 0 22.5 -9.5t9.5 -22.5v-192q0 -13 -9.5 -22.5t-22.5 -9.5h-192q-13 0 -22.5 9.5t-9.5 22.5v192q0 13 9.5 22.5t22.5 9.5h32v247
q-22 -12 -61.5 -29.5t-69.5 -31.5t-60.5 -32.5t-47.5 -41t-17 -48.5v-64h32q13 0 22.5 -9.5t9.5 -22.5v-192q0 -13 -9.5 -22.5t-22.5 -9.5h-192q-13 0 -22.5 9.5t-9.5 22.5v192q0 13 9.5 22.5t22.5 9.5h32v128q0 30 28.5 60t71 53.5t92.5 50t92.5 49.5t71 51t28.5 56v64h-32
q-13 0 -22.5 9.5t-9.5 22.5v192q0 13 9.5 22.5t22.5 9.5h192q13 0 22.5 -9.5t9.5 -22.5v-192q0 -13 -9.5 -22.5t-22.5 -9.5h-32v-64q0 -27 28.5 -54.5t71 -50.5t92.5 -50t92.5 -51t71 -54t28.5 -60v-128h32q13 0 22.5 -9.5t9.5 -22.5v-192q0 -13 -9.5 -22.5t-22.5 -9.5z" />
    <glyph glyph-name="uniF79C" unicode="ingress" vert-adv-y="90" 
d="M544 0l-480 256v512l480 256l480 -256v-512zM960 736l-384 207v-175h-64v175l-384 -207v-397l146 85l28 -50l-161 -93l403 -217l404 217l-162 93l29 50l145 -85v397zM192 704h704l-352 -576zM544 530l174 110h-347zM355 581l157 -270v169zM576 480v-169l158 270z" />
    <glyph glyph-name="uniF79D" unicode="square&#x7a;erply" vert-adv-y="90" 
d="M896 0h-768q-53 0 -90.5 37.5t-37.5 90.5v768q0 53 37.5 90.5t90.5 37.5h768q53 0 90.5 -37.5t37.5 -90.5v-768q0 -53 -37.5 -90.5t-90.5 -37.5zM683 324q-29 0 -66 23t-83.5 55t-85.5 46q277 264 277 340q0 11 -0.5 16.5t-4 13t-13 11t-24.5 3.5q-13 0 -34 -10t-43 -22
t-64.5 -22t-93.5 -10q-19 0 -35 16t-22 32l-7 16q-2 -1 -5 -3t-10 -9.5t-12.5 -16.5t-10.5 -25t-5 -34q0 -32 20 -52t55 -20t85 9.5t75 22.5q-31 -34 -93.5 -90.5t-108 -97.5t-82 -89t-36.5 -81q0 -15 17 -18.5t68 -3.5q35 0 67 -13.5t58 -33t53 -39t63.5 -33t78.5 -13.5
q22 0 39.5 10t28.5 24.5t19 35t11.5 37t6 35t2.5 24.5v10q-3 -5 -9 -12.5t-28 -19.5t-48 -12z" />
    <glyph glyph-name="uniF79E" unicode="circle&#x7a;erply" vert-adv-y="90" 
d="M512 0q-139 0 -257 68.5t-186.5 186.5t-68.5 257q0 104 40.5 199t109 163.5t163.5 109t199 40.5t199 -40.5t163.5 -109t109 -163.5t40.5 -199q0 -139 -68.5 -257t-186.5 -186.5t-257 -68.5zM683 324q-29 0 -66 23t-83.5 55t-85.5 46q277 264 277 340q0 11 -0.5 16.5
t-4.5 13t-13 11t-24 3.5q-13 0 -34 -10t-43 -22t-64.5 -22t-93.5 -10q-19 0 -35 16t-22 32l-7 16q-2 -1 -4.5 -3t-10 -9.5t-13 -16.5t-10.5 -25t-5 -34q0 -32 20 -52t55 -20t85 9.5t75 22.5q-31 -34 -93.5 -90.5t-108 -97.5t-82 -89t-36.5 -81q0 -15 17 -18.5t68 -3.5
q35 0 67 -13.5t58 -33t53 -39t63.5 -33t78.5 -13.5q22 0 39.5 10t28.5 24.5t19 35t11.5 37t6 35t2.5 24.5v10q-3 -5 -9 -12.5t-28 -19.5t-48 -12z" />
    <glyph glyph-name="uniF79F" unicode="squarevimeo" vert-adv-y="90" 
d="M896 0h-768q-53 0 -90.5 37.5t-37.5 90.5v768q0 53 37.5 90.5t90.5 37.5h768q53 0 90.5 -37.5t37.5 -90.5v-768q0 -53 -37.5 -90.5t-90.5 -37.5zM656 768q-46 0 -78.5 -43.5t-33.5 -98.5q16 14 36 14q21 0 32.5 -10.5t11.5 -37.5q0 -25 -17.5 -63.5t-40.5 -67.5t-38 -29
q-7 0 -14 16t-14 47t-12 59t-12.5 70.5t-11.5 63.5q-15 80 -64 80q-72 0 -144 -128l16 -32q11 13 26 22.5t22 9.5t12.5 -4.5t8.5 -13t5 -15.5t3.5 -17t2.5 -14q4 -18 12 -66t16.5 -86t22.5 -79.5t37.5 -65t55.5 -23.5q39 0 104.5 68.5t116.5 161.5t51 154q0 128 -112 128z
" />
    <glyph glyph-name="uniF7A0" unicode="squaretwitter" vert-adv-y="90" 
d="M896 0h-768q-53 0 -90.5 37.5t-37.5 90.5v768q0 53 37.5 90.5t90.5 37.5h768q53 0 90.5 -37.5t37.5 -90.5v-768q0 -53 -37.5 -90.5t-90.5 -37.5zM813 768q-6 -3 -18 -11.5t-19.5 -13t-18.5 -9.5t-21 -7q-37 41 -91 41q-117 0 -117 -98v-60q-161 9 -247 119
q-25 -26 -25 -57q0 -66 49 -100q-7 0 -17.5 -1t-17 0t-14.5 5q0 -46 24.5 -76.5t67.5 -39.5q-10 -12 -28 -12q-16 0 -28 9q0 -39 37.5 -60.5t84.5 -22.5q-18 -27 -52.5 -40.5t-73.5 -13.5q-14 0 -38.5 7t-25.5 7q16 -32 65.5 -55t125.5 -23q67 0 125 23.5t99 62.5t70.5 89
t44 103.5t14.5 105.5q0 2 12 8.5t28 17t24 23.5q-54 0 -72 -2q35 21 53 81z" />
    <glyph glyph-name="uniF7A1" unicode="brightnessalt" vert-adv-y="90" 
d="M884 605l140 -93l-140 -93q0 -2 -1.5 -6t-2.5 -5l75 -152l-169 -11q-1 -1 -3.5 -4t-3.5 -4l-11 -168l-151 74q-2 0 -6 -1.5t-6 -1.5l-93 -140l-93 140q-2 0 -6 1.5t-6 1.5l-151 -74l-11 169q-1 1 -4 3.5t-4 3.5l-168 11l74 152q0 1 -1.5 5t-1.5 6l-140 93l140 93
q0 2 1.5 6t2.5 5l-75 152l169 11q1 1 3.5 4t3.5 4l11 168l151 -74q2 0 6 1.5t6 2.5l93 139l93 -139q2 -1 6 -2.5t6 -1.5l151 74l11 -169q1 -1 4 -3.5t4 -3.5l168 -11l-75 -151q1 -2 2.5 -6t1.5 -6zM512 768q-106 0 -181 -75t-75 -181t75 -181t181 -75t181 75t75 181t-75 181
t-181 75z" />
    <glyph glyph-name="uniF7A2" unicode="brightnessalthalf" vert-adv-y="90" 
d="M884 605l140 -93l-140 -93q0 -2 -1.5 -6t-2.5 -5l75 -152l-169 -11q-1 -1 -3.5 -4t-3.5 -4l-11 -168l-151 74q-2 0 -6 -1.5t-6 -1.5l-93 -140l-93 140q-2 0 -6 1.5t-6 1.5l-151 -74l-11 169q-1 1 -4 3.5t-4 3.5l-168 11l75 152q-1 1 -2.5 5t-1.5 6l-140 93l140 93
q0 2 1.5 6t2.5 5l-75 152l169 11q1 1 3.5 4t3.5 4l11 168l151 -74q2 0 6 1.5t6 2.5l93 139l93 -139q2 -1 6 -2.5t6 -1.5l151 74l11 -169q1 -1 4 -3.5t4 -3.5l168 -11l-74 -151q0 -2 1.5 -6t1.5 -6zM512 768q-106 0 -181 -75t-75 -181t75 -181t181 -75t181 75t75 181t-75 181
t-181 75zM320 512.5q0 79.5 56 135.5t136 56v-384q-80 0 -136 56.5t-56 136z" />
    <glyph glyph-name="uniF7A3" unicode="brightnessaltfull" vert-adv-y="90" 
d="M884 605l140 -93l-140 -93q0 -2 -1.5 -6t-2.5 -5l75 -152l-169 -11q-1 -1 -3.5 -4t-3.5 -4l-11 -168l-151 74q-2 0 -6 -1.5t-6 -1.5l-93 -140l-93 140q-2 0 -6 1.5t-6 1.5l-151 -74l-11 169q-1 1 -4 3.5t-4 3.5l-168 11l75 152q-1 1 -2.5 5t-1.5 6l-140 93l140 93
q0 2 1.5 6t2.5 5l-75 152l169 11q1 1 3.5 4t3.5 4l11 168l151 -74q2 0 6 1.5t6 2.5l93 139l93 -139q2 -1 6 -2.5t6 -1.5l151 74l11 -169q1 -1 4 -3.5t4 -3.5l168 -11l-75 -151q1 -2 2.5 -6t1.5 -6zM512 768q-106 0 -181 -75t-75 -181t75 -181t181 -75t181 75t75 181t-75 181
t-181 75zM512 320q-80 0 -136 56.5t-56 136t56 135.5t136 56t136 -56t56 -135.5t-56 -136t-136 -56.5z" />
    <glyph glyph-name="uniF7A4" unicode="brightnessaltauto" vert-adv-y="90" 
d="M884 605l140 -93l-140 -93q0 -2 -1.5 -6t-1.5 -5l74 -152l-169 -11q-1 -1 -3.5 -4t-3.5 -4l-11 -168l-151 74q-2 0 -6 -1.5t-6 -1.5l-93 -140l-93 140q-2 0 -6 1.5t-6 1.5l-151 -74l-11 169q-1 1 -4 3.5t-4 3.5l-168 11l74 152q0 1 -1.5 5t-1.5 6l-140 93l140 93
q0 2 1.5 6t2.5 5l-75 152l169 11q1 1 3.5 4t3.5 4l11 168l151 -74q2 0 6 1.5t6 2.5l93 139l93 -139q2 -1 6 -2.5t6 -1.5l151 75l11 -170q1 -1 4 -3.5t4 -3.5l168 -11l-74 -151q0 -2 1.5 -6t1.5 -6zM512 768q-106 0 -181 -75t-75 -181q0 -88 54 -157t138 -91v-8h128v8
q84 22 138 91t54 157q0 106 -75 181t-181 75zM608 384q-13 0 -22.5 9.5t-9.5 22.5v32h-128v-32q0 -13 -9.5 -22.5t-22.5 -9.5t-22.5 9.5t-9.5 22.5v160q0 27 18.5 45.5t45.5 18.5h128q26 0 45 -18.5t19 -45.5v-160q0 -13 -9.5 -22.5t-22.5 -9.5zM576 576h-128v-64h128v64z
" />
    <glyph glyph-name="uniF7A5" unicode="shirtbuttonthree" vert-adv-y="90" 
d="M512 0q-104 0 -199 40.5t-163.5 109t-109 163.5t-40.5 199t40.5 199t109 163.5t163.5 109t199 40.5t199 -40.5t163.5 -109t109 -163.5t40.5 -199t-40.5 -199t-109 -163.5t-163.5 -109t-199 -40.5zM512 896q-104 0 -192.5 -51.5t-140 -140t-51.5 -192.5t51.5 -192.5
t140 -140t192.5 -51.5t192.5 51.5t140 140t51.5 192.5t-51.5 192.5t-140 140t-192.5 51.5zM512 192q-87 0 -160.5 43t-116.5 116.5t-43 160.5t43 160.5t116.5 116.5t160.5 43t160.5 -43t116.5 -116.5t43 -160.5t-43 -160.5t-116.5 -116.5t-160.5 -43zM319.5 576
q-26.5 0 -45 -19t-18.5 -45.5t18.5 -45t45 -18.5t45.5 18.5t19 45.5t-19 45.5t-45.5 18.5zM511.5 768q-26.5 0 -45 -19t-18.5 -45.5t18.5 -45t45.5 -18.5t45.5 18.5t18.5 45t-19 45.5t-45.5 19zM511.5 384q-26.5 0 -45 -18.5t-18.5 -45.5t18.5 -45.5t45.5 -18.5t45.5 18.5
t18.5 45.5t-19 45.5t-45.5 18.5zM703.5 576q-26.5 0 -45 -19t-18.5 -45.5t18.5 -45t45 -18.5t45.5 18.5t19 45.5t-19 45.5t-45.5 18.5z" />
    <glyph glyph-name="uniF7A6" unicode="openshare" vert-adv-y="90" 
d="M992 448h-102q-23 -137 -129.5 -228.5t-248.5 -91.5q-78 0 -148 29.5t-124 82.5l91 91q75 -75 181 -75t181 75t75 181v32q0 13 9.5 22.5t22.5 9.5h192q13 0 22.5 -9.5t9.5 -22.5v-64q0 -13 -9.5 -22.5t-22.5 -9.5zM640 512q0 -53 -37.5 -90.5t-90.5 -37.5t-90.5 37.5
t-37.5 90.5t37.5 90.5t90.5 37.5t90.5 -37.5t37.5 -90.5zM512 768q-106 0 -181 -75t-75 -181v-32q0 -13 -9.5 -22.5t-22.5 -9.5h-192q-13 0 -22.5 9.5t-9.5 22.5v64q0 13 9.5 22.5t22.5 9.5h102q23 137 129.5 228.5t248.5 91.5q78 0 148 -29.5t124 -82.5l-91 -91
q-75 75 -181 75z" />
    <glyph glyph-name="uniF7A7" unicode="copyapp" vert-adv-y="90" 
d="M832 512l192 -384q-179 12 -329 38q-57 10 -118 27l-129 -65l-30 76l-66 -44l-161 437l-173 -58l-18 37l145 145l-17 47l74 -25l-10 25l96 -32l118 -245q51 38 73 50l65 35q26 -8 57 -18l295 402l-100 -449z" />
    <glyph glyph-name="uniF7A8" unicode="bowl" vert-adv-y="90" 
d="M896 32q0 -13 -9.5 -22.5t-22.5 -9.5h-704q-13 0 -22.5 9.5t-9.5 22.5q0 32 -13 62.5t-32 58t-38 58t-32 75.5t-13 98v224q0 13 9.5 22.5t22.5 9.5h594l210 368q7 12 20 15.5t24 -3t14.5 -19.5t-2.5 -25l-192 -336h22l247 247q9 10 22.5 10t23 -9.5t9.5 -23t-10 -22.5
l-202 -202h180q13 0 22.5 -9.5t9.5 -22.5v-224q0 -53 -13 -98.5t-32 -76.5t-38 -58.5t-32 -57.5t-13 -61z" />
    <glyph glyph-name="uniF7A9" unicode="cloudalt" vert-adv-y="90" 
d="M768 128h-544q-93 0 -158.5 65.5t-65.5 158.5q0 84 55 147t137 74v2v1q0 87 43 160.5t116.5 116.5t160.5 43q100 0 180.5 -56t116.5 -146q94 -24 154.5 -101.5t60.5 -176.5q0 -111 -74 -193.5t-182 -94.5z" />
    <glyph glyph-name="uniF7AA" unicode="cloudaltdownload" vert-adv-y="90" 
d="M768 128h-544q-93 0 -158.5 65.5t-65.5 158.5q0 84 55 147t137 74v2v1q0 87 43 160.5t116.5 116.5t160.5 43q100 0 180.5 -56t116.5 -146q94 -24 154.5 -101.5t60.5 -176.5q0 -111 -74 -193.5t-182 -94.5zM692 448h-116v160q0 13 -9.5 22.5t-22.5 9.5h-64
q-13 0 -22.5 -9.5t-9.5 -22.5v-160h-116q-8 0 -11 -14.5t5 -23.5l167 -145q8 -9 19 -9t19 9l167 145q8 9 5 23.5t-11 14.5z" />
    <glyph glyph-name="uniF7AB" unicode="cloudaltupload" vert-adv-y="90" 
d="M768 128h-544q-93 0 -158.5 65.5t-65.5 158.5q0 84 55 147t137 74v2v1q0 87 43 160.5t116.5 116.5t160.5 43q100 0 180.5 -56t116.5 -146q94 -24 154.5 -101.5t60.5 -176.5q0 -111 -74 -193.5t-182 -94.5zM698 486l-167 145q-8 9 -19 9t-19 -9l-167 -145q-8 -9 -5 -23.5
t11 -14.5h116v-160q0 -13 9.5 -22.5t22.5 -9.5h64q13 0 22.5 9.5t9.5 22.5v160h116q8 0 11 14.5t-5 23.5z" />
    <glyph glyph-name="uniF7AC" unicode="cloudaltsync" vert-adv-y="90" 
d="M768 128h-544q-93 0 -158.5 65.5t-65.5 158.5q0 84 55 147t137 74v2v1q0 87 43 160.5t116.5 116.5t160.5 43q100 0 180.5 -56t116.5 -146q94 -24 154.5 -101.5t60.5 -176.5q0 -111 -74 -193.5t-182 -94.5zM320 320l29 29q26 -42 69 -67.5t94 -25.5q80 0 136 56l-45 46
q-38 -38 -91 -38q-38 0 -69.5 21t-46.5 55l52 52h-128v-128zM704 576l-29 -29q-26 43 -69 68t-94 25q-79 0 -136 -56l45 -45q38 37 91 37q38 0 69.5 -21t46.5 -55l-52 -52h128v128z" />
    <glyph glyph-name="uniF7AD" unicode="cloudaltprivate" vert-adv-y="90" 
d="M768 130v-2h-32v0h-512q-93 0 -158.5 65.5t-65.5 158.5q0 84 55 147t137 74v2v1q0 87 43 160.5t116.5 116.5t160.5 43q100 0 180.5 -56t116.5 -146q94 -24 154.5 -101.5t60.5 -176.5q0 -111 -73.5 -192.5t-182.5 -93.5zM640 512q0 53 -37.5 90.5t-90.5 37.5t-90.5 -37.5
t-37.5 -90.5v-224q0 -13 9.5 -22.5t22.5 -9.5h192q13 0 22.5 9.5t9.5 22.5v224zM448 448v64q0 27 19 45.5t45.5 18.5t45 -18.5t18.5 -45.5v-64h-128z" />
    <glyph glyph-name="uniF7AE" unicode="flipboard" vert-adv-y="90" 
d="M992 640h-288v-288q0 -13 -9.5 -22.5t-22.5 -9.5h-288v-288q0 -13 -9.5 -22.5t-22.5 -9.5h-256q-13 0 -22.5 9.5t-9.5 22.5v640v256q0 13 9.5 22.5t22.5 9.5h256h640q13 0 22.5 -9.5t9.5 -22.5v-256q0 -13 -9.5 -22.5t-22.5 -9.5z" />
    <glyph glyph-name="uniF7AF" unicode="octoloaderempty" vert-adv-y="90" 
d="M768 441v142l256 106v-354zM960 594l-128 -53v-58l128 -53v164zM643 744l106 255l250 -250l-256 -106zM771 887l-53 -128l41 -41l128 53zM441 768l-106 256h354l-106 -256h-142zM430 960l53 -128h58l53 128h-164zM280 643l-256 106l251 251l106 -256zM253 887l-116 -116
l128 -53l41 41zM256 441l-256 -106v354l256 -106v-142zM64 594v-164l128 53v58zM381 281l-106 -256l-251 250l256 106zM253 137l53 128l-41 41l-128 -53zM583 256l106 -256h-354l106 256h142zM594 64l-53 128h-58l-53 -128h164zM743 381l256 -106l-250 -250l-106 256z
M771 137l116 116l-128 53l-41 -41z" />
    <glyph glyph-name="uniF7B0" unicode="octoloaderone" vert-adv-y="90" 
d="M768 441v142l256 106v-354zM960 594l-128 -53v-58l128 -53v164zM643 744l106 255l251 -250l-256 -106zM771 887l-53 -128l41 -41l128 53zM441 768l-106 256h354l-106 -256h-142zM281 643l-256 106l250 251l106 -256zM253 887l-116 -116l128 -53l41 41zM256 441l-256 -106
v354l256 -106v-142zM64 594v-164l128 53v58zM381 281l-106 -256l-251 250l256 106zM253 137l53 128l-41 41l-128 -53zM583 256l106 -256h-354l106 256h142zM594 64l-53 128h-58l-53 -128h164zM743 381l256 -106l-250 -250l-106 256zM771 137l116 116l-128 53l-41 -41z" />
    <glyph glyph-name="uniF7B1" unicode="octoloadertwo" vert-adv-y="90" 
d="M768 441v142l256 106v-354zM960 594l-128 -53v-58l128 -53v164zM643 744l106 255l251 -250l-256 -106zM441 768l-106 256h354l-106 -256h-142zM280 643l-256 106l251 251l106 -256zM253 887l-116 -116l128 -53l41 41zM256 441l-256 -106v354l256 -106v-142zM64 594v-164
l128 53v58zM381 281l-106 -256l-251 250l257 106zM253 137l53 128l-41 41l-128 -53zM583 256l106 -256h-354l106 256h142zM594 64l-53 128h-58l-53 -128h164zM744 381l256 -106l-251 -250l-106 256zM771 137l116 116l-128 53l-41 -41z" />
    <glyph glyph-name="uniF7B2" unicode="octoloaderthree" vert-adv-y="90" 
d="M768 441v142l256 106v-354zM643 744l106 255l251 -250l-257 -106zM441 768l-106 256h354l-106 -256h-142zM281 643l-256 106l250 251l106 -256zM253 887l-116 -116l128 -53l41 41zM256 441l-256 -106v354l256 -106v-142zM64 594v-164l128 53v58zM381 281l-106 -256
l-251 250l256 106zM253 137l53 128l-41 41l-128 -53zM583 256l106 -256h-354l106 256h142zM594 64l-53 128h-58l-53 -128h164zM743 381l256 -106l-250 -250l-106 256zM771 137l116 116l-128 53l-41 -41z" />
    <glyph glyph-name="uniF7B3" unicode="octoloaderfour" vert-adv-y="90" 
d="M768 441v142l256 107v-355zM643 744l106 256l251 -251l-256 -106zM441 768l-106 256h354l-106 -256h-142zM280 643l-256 106l251 251l106 -256zM253 887l-116 -116l128 -53l41 41zM256 441l-256 -106v355l256 -107v-142zM64 594v-164l128 53v58zM381 281l-106 -256
l-251 250l256 107zM253 137l53 128l-41 41l-128 -53zM583 256l106 -256h-354l106 256h142zM594 64l-53 128h-58l-53 -128h164zM744 382l256 -107l-251 -250l-106 256z" />
    <glyph glyph-name="uniF7B4" unicode="octoloaderfive" vert-adv-y="90" 
d="M768 441v142l256 107v-355zM643 744l106 256l251 -251l-256 -106zM441 768l-106 256h354l-106 -256h-142zM280 643l-256 106l251 251l106 -256zM253 887l-116 -116l128 -53l41 41zM256 441l-256 -106v355l256 -107v-142zM64 594v-164l128 53v58zM381 281l-106 -256
l-251 250l256 107zM253 137l53 128l-41 41l-128 -53zM583 256l106 -256h-354l106 256h142zM743 382l257 -107l-251 -250l-106 256z" />
    <glyph glyph-name="uniF7B5" unicode="octoloadersix" vert-adv-y="90" 
d="M768 441v142l256 106v-354zM643 744l106 255l251 -250l-256 -106zM441 768l-106 256h354l-106 -256h-142zM281 643l-257 106l251 251l106 -256zM253 887l-115 -116l127 -53l41 41zM256 441l-256 -106v354l256 -106v-142zM64 594v-164l128 53v58zM381 281l-106 -256
l-251 250l257 106zM583 256l106 -256h-354l106 256h142zM744 381l256 -106l-251 -250l-106 256z" />
    <glyph glyph-name="uniF7B6" unicode="octoloaderseven" vert-adv-y="90" 
d="M768 441v142l256 106v-354zM643 744l106 255l250 -250l-255 -107zM441 768l-106 256h354l-106 -256h-142zM281 643l-256 106l250 250l106 -255zM253 887l-115 -116l127 -53l41 41zM256 441l-256 -106v354l256 -106v-142zM381 280l-106 -255l-250 250l256 106zM583 256
l106 -256h-354l106 256h142zM744 381l255 -106l-250 -250l-106 255z" />
    <glyph glyph-name="uniF7B7" unicode="octoloaderfull" vert-adv-y="90" 
d="M768 441v142l256 106v-354zM643 744l106 255l250 -250l-255 -107zM441 768l-106 256h354l-106 -256h-142zM281 643l-256 106l251 250l106 -255zM256 441l-256 -106v354l256 -106v-142zM382 280l-106 -255l-251 250l256 106zM583 256l106 -256h-354l106 256h142zM744 381
l255 -106l-250 -250l-106 255z" />
    <glyph glyph-name="uniF7B8" unicode="selectionsymbol" vert-adv-y="90" 
d="M709 315q-14 -15 -32 -25q27 -46 27 -98v0v0q0 -80 -56 -136t-136 -56t-136 56t-56 136q0 22 7 48l121 -48q0 -26 18.5 -45t45 -19t45.5 18.5t19 45.5q0 28 -16.5 45t-52 38t-59.5 45l-128 128q-31 31 -47.5 63.5t-16.5 64.5q0 77 58 134q14 14 32 26q-26 44 -26 96
q0 80 56 136t136 56t136 -56t56 -136q0 -22 -7 -48l-121 48q0 27 -19 45.5t-45.5 18.5t-45 -18.5t-18.5 -45.5q0 -28 16.5 -45t52.5 -38.5t59 -44.5l128 -128q35 -35 49.5 -61.5t14.5 -66.5q0 -74 -59 -133zM620 498l-123 123q-20 20 -47.5 20t-47 -19.5t-19.5 -47t20 -47.5
l123 -123q20 -20 47.5 -20t46.5 19.5t19 47t-19 47.5z" />
    <glyph glyph-name="uniF7B9" unicode="infinityalt" vert-adv-y="90" 
d="M736 192q-119 0 -203.5 84.5t-84.5 203.5q0 66 -47 113t-113 47t-113 -47t-47 -113t47 -113t113 -47q67 0 114 48q22 -63 64 -114q-78 -62 -178 -62q-119 0 -203.5 84.5t-84.5 203.5t84.5 203.5t203.5 84.5t203.5 -84.5t84.5 -203.5q0 -66 47 -113t113 -47t113 47t47 113
t-47 113t-113 47q-67 0 -114 -48q-22 63 -64 114q78 62 178 62q119 0 203.5 -84.5t84.5 -203.5t-84.5 -203.5t-203.5 -84.5z" />
    <glyph glyph-name="uniF7BA" unicode="pullrequest" vert-adv-y="90" 
d="M832 0q-53 0 -90.5 37.5t-37.5 90.5q0 35 17.5 64t46.5 46v402q0 80 -56 136t-136 56v-64l-192 128l192 128v-64q87 0 160.5 -43t116.5 -116.5t43 -160.5v-402q29 -17 46.5 -46t17.5 -64q0 -53 -37.5 -90.5t-90.5 -37.5zM831.5 192q-26.5 0 -45 -18.5t-18.5 -45
t18.5 -45.5t45 -19t45.5 19t19 45.5t-19 45t-45.5 18.5zM320 128q0 -53 -37.5 -90.5t-90.5 -37.5t-90.5 37.5t-37.5 90.5q0 35 17.5 64t46.5 46v548q-29 17 -46.5 46t-17.5 64q0 53 37.5 90.5t90.5 37.5t90.5 -37.5t37.5 -90.5q0 -35 -17.5 -64t-46.5 -46v-548
q29 -17 46.5 -46t17.5 -64zM191.5 960q-26.5 0 -45 -18.5t-18.5 -45t18.5 -45.5t45 -19t45.5 19t19 45.5t-19 45t-45.5 18.5zM191.5 192q-26.5 0 -45 -18.5t-18.5 -45t18.5 -45.5t45 -19t45.5 19t19 45.5t-19 45t-45.5 18.5z" />
    <glyph glyph-name="uniF7BB" unicode="projectforkdelete" vert-adv-y="90" 
d="M951 864l64 -64q9 -9 9 -21.5t-9 -21.5l-43 -44q-9 -9 -21.5 -9t-21.5 9l-65 65l-65 -66q-9 -9 -21.5 -9t-21.5 9l-44 44q-9 9 -9 21.5t9 21.5l66 65l-66 66q-9 8 -9 21t9 22l44 43q9 9 21.5 9t21.5 -9l65 -65l65 64q9 9 21.5 9t21.5 -9l43 -43q9 -9 9 -21.5t-9 -21.5z
M199 233q57 -39 57 -105q0 -53 -37.5 -90.5t-90.5 -37.5t-90.5 37.5t-37.5 90.5q0 35 17.5 64t46.5 46v722q0 27 18.5 45.5t45.5 18.5t45.5 -18.5t18.5 -45.5v-370q78 122 194 201.5t254 104.5v-128q-174 -39 -294.5 -183t-146.5 -352zM128.5 192q-26.5 0 -45.5 -18.5
t-19 -45t18.5 -45.5t45.5 -19t45.5 19t18.5 45.5t-18.5 45t-45 18.5z" />
    <glyph glyph-name="uniF7BC" unicode="projectforkprivate" vert-adv-y="90" 
d="M992 640h-256q-13 0 -22.5 9.5t-9.5 22.5v224q0 53 47 90.5t113 37.5t113 -37.5t47 -90.5v-224q0 -13 -9.5 -22.5t-22.5 -9.5zM864 960q-40 0 -68 -18.5t-28 -45.5v-64h192v64q0 27 -28 45.5t-68 18.5zM199 233q57 -39 57 -105q0 -53 -37.5 -90.5t-90.5 -37.5t-90.5 37.5
t-37.5 90.5q0 35 17.5 64t46.5 46v722q0 26 18.5 45t45.5 19t45.5 -19t18.5 -45v-370q78 122 194 201.5t254 104.5v-128q-174 -39 -294.5 -183t-146.5 -352zM128.5 192q-26.5 0 -45.5 -18.5t-19 -45t18.5 -45.5t45.5 -19t45.5 19t18.5 45.5t-18.5 45t-45 18.5z" />
    <glyph glyph-name="uniF7BD" unicode="commit" vert-adv-y="90" 
d="M960 448h-134q-23 -110 -111 -183t-203 -73t-203 73t-111 183h-134q-27 0 -45.5 19t-18.5 45.5t18.5 45t45.5 18.5h134q23 111 111 183.5t203 72.5t203 -72.5t111 -183.5h134q27 0 45.5 -18.5t18.5 -45t-18.5 -45.5t-45.5 -19zM512 704q-80 0 -136 -56t-56 -136t56 -136
t136 -56t136 56t56 136t-56 136t-136 56z" />
    <glyph glyph-name="uniF7BE" unicode="htmlfile" vert-adv-y="90" 
d="M895 0h-767q-27 0 -45.5 18.5t-18.5 45.5v895q0 27 18.5 45.5t45.5 18.5h448v-352q0 -13 9 -22.5t23 -9.5h351v-1v-574q0 -27 -18.5 -45.5t-45.5 -18.5zM436 440q12 12 12 30t-12 30.5t-29 12.5t-29 -13l-175 -149q-12 -13 -12 -30.5t12 -30.5l175 -149q12 -13 29 -13
t29 12.5t12 30.5t-12 30l-146 119zM820 351l-174 149q-12 13 -29 13t-29 -12.5t-12 -30.5t12 -30l145 -120l-145 -119q-12 -12 -12 -30t12 -30.5t29 -12.5t29 13l174 149q13 13 13 30.5t-13 30.5zM640 1024q26 0 44 -18l256 -257q19 -19 19 -46h-319v321z" />
    <glyph glyph-name="uniF7BF" unicode="pushalt" vert-adv-y="90" 
d="M512 512q-139 0 -257 17t-186.5 46.5t-68.5 64.5v128q0 8 6 19q62 -37 202.5 -60t303.5 -23t303.5 23t202.5 60q6 -11 6 -19v-128q0 -35 -68.5 -64.5t-186.5 -46.5t-257 -17zM512 768q-139 0 -257 17t-186.5 46.5t-68.5 64.5t68.5 64.5t186.5 46.5t257 17t257 -17
t186.5 -46.5t68.5 -64.5t-68.5 -64.5t-186.5 -46.5t-257 -17zM464 433q20 16 47.5 16t47.5 -16l189 -150q19 -16 19 -38t-19.5 -37.5t-47 -15.5t-47.5 16l-77 61v-205q0 -26 -18.5 -45t-45 -19t-45.5 19t-19 45v206l-78 -62q-20 -16 -47.5 -16t-47 15.5t-19.5 37.5t19 38z
" />
    <glyph glyph-name="uniF7C0" unicode="pullalt" vert-adv-y="90" 
d="M512 512q-139 0 -257 17t-186.5 46.5t-68.5 64.5v128q0 8 6 18q62 -36 202.5 -59t303.5 -23t303.5 23t202.5 59q6 -10 6 -18v-128q0 -35 -68.5 -64.5t-186.5 -46.5t-257 -17zM512 768q-139 0 -257 17t-186.5 46.5t-68.5 64.5t68.5 64.5t186.5 46.5t257 17t257 -17
t186.5 -46.5t68.5 -64.5t-68.5 -64.5t-186.5 -46.5t-257 -17zM370 241l78 -62v205q0 26 18.5 45t45.5 19t45.5 -19t18.5 -45v-204l77 61q20 16 47.5 16t47 -16t19.5 -38t-19 -37l-189 -150q-20 -16 -47.5 -16t-47.5 16l-189 150q-19 15 -19 37t19.5 38t47 16t47.5 -16z" />
    <glyph glyph-name="uniF7C1" unicode="photonineframes" vert-adv-y="90" 
d="M960 0h-896q-26 0 -45 19t-19 45v896q0 27 19 45.5t45 18.5h896q27 0 45.5 -18.5t18.5 -45.5v-896q0 -26 -18.5 -45t-45.5 -19zM960 256h-112q-7 0 -11.5 4.5t-4.5 11.5v32q0 7 4.5 11.5t11.5 4.5h112v384h-112q-7 0 -11.5 4.5t-4.5 11.5v32q0 7 4.5 11.5t11.5 4.5h112
v192h-192v-112q0 -7 -4.5 -11.5t-11.5 -4.5h-32q-7 0 -11.5 4.5t-4.5 11.5v112h-384v-112q0 -7 -4.5 -11.5t-11.5 -4.5h-32q-7 0 -11.5 4.5t-4.5 11.5v112h-192v-192h112q7 0 11.5 -4.5t4.5 -11.5v-32q0 -7 -4.5 -11.5t-11.5 -4.5h-112v-384h112q7 0 11.5 -4.5t4.5 -11.5
v-32q0 -7 -4.5 -11.5t-11.5 -4.5h-112v-192h192v112q0 7 4.5 11.5t11.5 4.5h32q7 0 11.5 -4.5t4.5 -11.5v-112h384v112q0 7 4.5 11.5t11.5 4.5h32q7 0 11.5 -4.5t4.5 -11.5v-112h192v192zM752 256h-32h-64q-7 0 -11.5 4.5t-4.5 11.5v32q0 7 4.5 11.5t11.5 4.5h48v48
q0 7 4.5 11.5t11.5 4.5h32q7 0 11.5 -4.5t4.5 -11.5v-64v-32q0 -7 -4.5 -11.5t-11.5 -4.5zM752 448h-32q-7 0 -11.5 4.5t-4.5 11.5v96q0 7 4.5 11.5t11.5 4.5h32q7 0 11.5 -4.5t4.5 -11.5v-96q0 -7 -4.5 -11.5t-11.5 -4.5zM752 640h-32q-7 0 -11.5 4.5t-4.5 11.5v48h-48
q-7 0 -11.5 4.5t-4.5 11.5v32q0 7 4.5 11.5t11.5 4.5h64h32q7 0 11.5 -4.5t4.5 -11.5v-32v-64q0 -7 -4.5 -11.5t-11.5 -4.5zM560 256h-96q-7 0 -11.5 4.5t-4.5 11.5v32q0 7 4.5 11.5t11.5 4.5h96q7 0 11.5 -4.5t4.5 -11.5v-32q0 -7 -4.5 -11.5t-11.5 -4.5zM560 704h-96
q-7 0 -11.5 4.5t-4.5 11.5v32q0 7 4.5 11.5t11.5 4.5h96q7 0 11.5 -4.5t4.5 -11.5v-32q0 -7 -4.5 -11.5t-11.5 -4.5zM368 256h-64h-32q-7 0 -11.5 4.5t-4.5 11.5v32v64q0 7 4.5 11.5t11.5 4.5h32q7 0 11.5 -4.5t4.5 -11.5v-48h48q7 0 11.5 -4.5t4.5 -11.5v-32
q0 -7 -4.5 -11.5t-11.5 -4.5zM368 704h-48v-48q0 -7 -4.5 -11.5t-11.5 -4.5h-32q-7 0 -11.5 4.5t-4.5 11.5v64v32q0 7 4.5 11.5t11.5 4.5h32h64q7 0 11.5 -4.5t4.5 -11.5v-32q0 -7 -4.5 -11.5t-11.5 -4.5zM272 576h32q7 0 11.5 -4.5t4.5 -11.5v-96q0 -7 -4.5 -11.5
t-11.5 -4.5h-32q-7 0 -11.5 4.5t-4.5 11.5v96q0 7 4.5 11.5t11.5 4.5z" />
    <glyph glyph-name="uniF7C2" unicode="wetfloor" vert-adv-y="90" 
d="M960 128l-576 128q-44 8 -64 32l-96 160l-32 -256q0 -26 -18.5 -45t-45.5 -19t-45.5 18.5t-18.5 45.5l54 377q14 75 42 103q9 8 52.5 46t52.5 47l119 99v96q0 25 18 44.5t46 19.5q29 0 46.5 -19t17.5 -45v-128q-1 -4 -6.5 -15.5t-14 -27t-11.5 -21.5l-117 -95
q-2 -3 3.5 -11t11.5 -15l6 -7l128 -160l135 127q6 11 10 16q19 18 44.5 18t43.5 -18l197 -196q18 -19 18 -44.5t-18.5 -44t-44 -18.5t-43.5 18l-150 150l-160 -136l416 -96q27 0 45.5 -18.5t18.5 -45t-18.5 -45.5t-45.5 -19zM128 768q-53 0 -90.5 37.5t-37.5 90.5t37.5 90.5
t90.5 37.5t90.5 -37.5t37.5 -90.5t-37.5 -90.5t-90.5 -37.5zM288 128h192q13 0 22.5 -9.5t9.5 -22.5t-9.5 -22.5t-22.5 -9.5h-192q-13 0 -22.5 9.5t-9.5 22.5t9.5 22.5t22.5 9.5zM608 64h320q13 0 22.5 -9.5t9.5 -22.5t-9.5 -22.5t-22.5 -9.5h-320q-13 0 -22.5 9.5
t-9.5 22.5t9.5 22.5t22.5 9.5z" />
    <glyph glyph-name="uniF7C3" unicode="instagramfour" vert-adv-y="90" 
d="M320 512q0 80 56 136t136 56t136 -56t56 -136t-56 -136t-136 -56t-136 56t-56 136zM1024 576v-448q0 -53 -37.5 -90.5t-90.5 -37.5h-768q-53 0 -90.5 37.5t-37.5 90.5v768q0 53 37.5 90.5t90.5 37.5h768q53 0 90.5 -37.5t37.5 -90.5v-192h-256q-45 59 -112 93.5
t-144 34.5t-144 -34.5t-112 -93.5h-256v-128h198q-6 -32 -6 -64q0 -87 43 -160.5t116.5 -116.5t160.5 -43t160.5 43t116.5 116.5t43 160.5q0 32 -6 64h198z" />
    <glyph glyph-name="uniF7C4" unicode="circleinstagram" vert-adv-y="90" 
d="M512 0q-104 0 -199 40.5t-163.5 109t-109 163.5t-40.5 199t40.5 199t109 163.5t163.5 109t199 40.5t199 -40.5t163.5 -109t109 -163.5t40.5 -199t-40.5 -199t-109 -163.5t-163.5 -109t-199 -40.5zM768 704q0 26 -18.5 45t-45.5 19h-384q-26 0 -45 -19t-19 -45v-64h114
q58 64 142 64t142 -64h114v64zM384 512q0 -53 37.5 -90.5t90.5 -37.5t90.5 37.5t37.5 90.5t-37.5 90.5t-90.5 37.5t-90.5 -37.5t-37.5 -90.5zM768 576h-76q12 -33 12 -64q0 -80 -56 -136t-136 -56t-136 56t-56 136q0 31 12 64h-76v-256q0 -27 18.5 -45.5t45.5 -18.5h384
q27 0 45.5 18.5t18.5 45.5v256z" />
    <glyph glyph-name="uniF7C5" unicode="videocamerathree" vert-adv-y="90" 
d="M985 261l-217 185v-126q0 -53 -37.5 -90.5t-90.5 -37.5h-512q-53 0 -90.5 37.5t-37.5 90.5v384q0 53 37.5 90.5t90.5 37.5h512q53 0 90.5 -37.5t37.5 -90.5v-126l217 185q16 13 39 -7v-488q-23 -20 -39 -7zM576.5 704q-26.5 0 -45.5 -18.5t-19 -45t19 -45.5t45.5 -19
t45 19t18.5 45.5t-18.5 45t-45 18.5z" />
    <glyph glyph-name="uniF7C6" unicode="subtitles" vert-adv-y="90" 
d="M896 128h-768q-53 0 -90.5 37.5t-37.5 90.5v512q0 53 37.5 90.5t90.5 37.5h768q53 0 90.5 -37.5t37.5 -90.5v-512q0 -53 -37.5 -90.5t-90.5 -37.5zM255.5 640q26.5 0 45.5 -19t19 -45h128q0 80 -56 136t-136 56t-136 -56t-56 -136v-128q0 -80 56 -136t136 -56t136 56
t56 136h-128q0 -27 -19 -45.5t-45.5 -18.5t-45 18.5t-18.5 45.5v128q0 26 18.5 45t45 19zM767.5 640q26.5 0 45.5 -19t19 -45h128q0 80 -56 136t-136 56t-136 -56t-56 -136v-128q0 -80 56 -136t136 -56t136 56t56 136h-128q0 -27 -19 -45.5t-45.5 -18.5t-45 18.5t-18.5 45.5
v128q0 26 18.5 45t45 19z" />
    <glyph glyph-name="uniF7C7" unicode="subtitlesoff" vert-adv-y="90" 
d="M933 134l-97 135q55 21 89.5 69.5t34.5 109.5h-128q0 -27 -18.5 -45.5t-45.5 -18.5q-7 0 -15 2l-49 68v122q0 26 19 45t45 19t45 -19t19 -45h128q0 79 -56 135.5t-136 56.5q-66 0 -117.5 -40.5t-67.5 -103.5l-194 272h507q53 0 90.5 -37.5t37.5 -90.5v-512
q0 -43 -25.5 -76.5t-65.5 -45.5zM877 19q-19 -19 -46 -19t-45 19l-640 895q-19 19 -19 46t19 46t46 19t45 -19l640 -896q19 -19 19 -45.5t-19 -45.5zM256.5 384q-26.5 0 -45.5 18.5t-19 45.5v128q0 26 19 45t45 19q7 0 15 -2l136 -190h-87q0 -27 -18.5 -45.5t-45 -18.5z
M64 576v-128q0 -80 56 -136t136 -56q66 0 117.5 40.5t67.5 103.5l194 -272h-507q-53 0 -90.5 37.5t-37.5 90.5v512q0 43 25.5 76.5t65.5 45.5l97 -135q-55 -21 -89.5 -70t-34.5 -109z" />
    <glyph glyph-name="uniF7C8" unicode="compress" vert-adv-y="90" 
d="M992 832h-192q-2 0 38 -41t81 -81t41 -38v-262q0 -11 -7.5 -18.5t-18.5 -7.5h58q13 0 22.5 -9.5t9.5 -22.5t-9.5 -22.5t-22.5 -9.5h-160q0 -26 -18.5 -45t-45.5 -19h-448v-64h32q13 0 22.5 -9.5t9.5 -22.5v-32h96q13 0 22.5 -9.5t9.5 -22.5t-9.5 -22.5t-22.5 -9.5h-96
v-32q0 -13 -9.5 -22.5t-22.5 -9.5h-192q-13 0 -22.5 9.5t-9.5 22.5v32h-96q-13 0 -22.5 9.5t-9.5 22.5t9.5 22.5t22.5 9.5h96v32q0 13 9.5 22.5t22.5 9.5h32v768q0 27 18.5 45.5t45 18.5t45.5 -18.5t19 -45.5h448q27 0 45.5 -18.5t18.5 -45.5h160q13 0 22.5 -9.5t9.5 -22.5
t-9.5 -22.5t-22.5 -9.5zM602 832h-58h-224v-448h224h58q-11 0 -18.5 7.5t-7.5 18.5v396q0 11 7.5 18.5t18.5 7.5zM768 768h-128v-320h256v192h-128v128z" />
    <glyph glyph-name="uniF7C9" unicode="baby" vert-adv-y="90" 
d="M879.5 401.5q-17.5 -17.5 -42 -17.5t-42.5 18l-154 155v-173h-256v173l-155 -155q-18 -18 -42.5 -18t-42 17.5t-17.5 42.5t17 42l144 154q64 64 224 64t224 -64l143 -154q17 -17 17 -42t-17.5 -42.5zM512.5 768q-53.5 0 -91 37.5t-37.5 90.5t37.5 90.5t91 37.5t91 -37.5
t37.5 -90.5t-37.5 -90.5t-91 -37.5zM210 239q3 2 13 8l118 100l125 -90l-112 -74l76 -77q18 -18 18 -43.5t-18 -44t-44 -18.5t-44 18l-132 132q-18 19 -18 44.5t18 44.5zM595 106l76 77l-112 74l125 90l118 -100q10 -6 13 -8q18 -19 18 -44.5t-18 -44.5l-132 -132
q-18 -18 -44 -18t-44 18t-18 44t18 44z" />
    <glyph glyph-name="uniF7CA" unicode="ducky" vert-adv-y="90" 
d="M896 832q19 2 35.5 2t42.5 -1t50 -1q0 -16 -6.5 -29.5t-19.5 -22.5t-24.5 -15t-31 -11t-28 -6.5t-26.5 -4.5q-7 -26 -31.5 -82.5t-24.5 -84.5q0 -17 13 -38t32 -43.5t38 -47t32 -58t13 -69.5q0 -94 -58.5 -167.5t-160.5 -113t-229 -39.5q-78 0 -151.5 22.5t-139 70
t-115 114.5t-78 162t-28.5 207q0 -43 39.5 -72.5t103 -42.5t145.5 -13q47 0 116 21.5t120.5 52t51.5 54.5q0 21 -20 48.5t-44 51.5t-44 58t-20 66q0 93 65.5 158.5t158.5 65.5q64 0 117.5 -34t81.5 -89q38 8 82 25.5t71 33.5q0 -15 -7 -30t-16 -25.5t-25.5 -23t-26.5 -18.5
t-29 -17t-24 -14zM736 896q-13 0 -22.5 -19t-9.5 -45.5t9.5 -45t22.5 -18.5t22.5 18.5t9.5 45t-9.5 45.5t-22.5 19z" />
    <glyph glyph-name="uniF7CB" unicode="handswipe" vert-adv-y="90" 
d="M896 0h-384q-21 0 -51.5 34.5t-53.5 81t-23 77.5q-1 24 -16.5 81.5t-31.5 131.5t-16 138v32q0 27 18.5 45.5t45.5 18.5q22 0 39 -13.5t22 -33.5q3 28 3 47q0 58 2 112.5t8 122t20 108.5t34 41q45 0 54.5 -45.5t9.5 -210.5q0 -37 6.5 -64t16 -39t19 -18.5t15.5 -6.5h7v0
q0 27 18.5 45.5t45.5 18.5q64 0 64 -128q0 27 18.5 45.5t45.5 18.5t45.5 -18.5t18.5 -45.5v-64q0 27 18.5 45.5t45.5 18.5t45.5 -18.5t18.5 -45.5v-288q0 -46 -7.5 -83t-18 -59.5t-25 -39.5t-27 -24.5t-25.5 -12t-17.5 -5t-7.5 -0.5zM855 708q-9 -9 -23 4v120h-160
q-13 0 -22.5 9.5t-9.5 22.5t9.5 22.5t22.5 9.5h160v121q14 12 23 4l163 -145q6 -5 6 -12t-6 -12zM352 832h-160v-120q-14 -13 -23 -4l-164 144q-5 5 -5 12t5 12l164 145q9 8 23 -4v-121h160q13 0 22.5 -9.5t9.5 -22.5t-9.5 -22.5t-22.5 -9.5z" />
    <glyph glyph-name="uniF7CC" unicode="swipeup" vert-adv-y="90" 
d="M896 0h-384q-21 0 -51.5 34.5t-53.5 81t-24 77.5q0 24 -16 81.5t-31.5 131.5t-15.5 138v32q0 27 18.5 45.5t45.5 18.5q22 0 39 -13t22 -34q3 28 3 47q0 59 2 113t8 121.5t19.5 108.5t34.5 41q45 0 54.5 -45t9.5 -211q0 -37 6.5 -64t16 -39t19 -18t15.5 -7h7v0
q0 27 18.5 45.5t45.5 18.5q64 0 64 -128q0 27 18.5 45.5t45 18.5t45.5 -18.5t19 -45.5v-64q0 27 18.5 45.5t45.5 18.5t45.5 -18.5t18.5 -45.5v-288q0 -46 -7 -83t-18.5 -59.5t-25 -39.5t-27 -24.5t-25 -12t-18.5 -5.5h-7zM192 832v-288q0 -13 -9.5 -22.5t-23 -9.5t-22.5 9.5
t-9 22.5v288h-120q-13 14 -5 24l145 163q5 5 12 5t12 -5l144 -163q9 -10 -4 -24h-120z" />
    <glyph glyph-name="uniF7CD" unicode="swipedown" vert-adv-y="90" 
d="M896 0h-384q-21 0 -51.5 34.5t-53.5 81t-24 77.5q0 24 -16 81.5t-31.5 131.5t-15.5 138v32q0 27 18.5 45.5t45.5 18.5q22 0 39 -13t22 -34q3 28 3 47q0 59 2 113t8 122t19.5 108.5t34.5 40.5q45 0 54.5 -45t9.5 -211q0 -37 6.5 -64t16 -39t19 -18t15.5 -7h7v0
q0 27 18.5 45.5t45.5 18.5q64 0 64 -128q0 27 18.5 45.5t45 18.5t45.5 -18.5t19 -45.5v-64q0 27 18.5 45.5t45 18.5t45.5 -18.5t19 -45.5v-288q0 -46 -7.5 -83t-18 -59.5t-25 -39.5t-27 -24.5t-25.5 -12t-17.5 -5t-7.5 -0.5zM172 518q-5 -6 -12 -6t-12 6l-145 163q-8 9 5 23
h120v288q0 14 9 23t22.5 9t23 -9t9.5 -23v-288h120q13 -14 4 -23z" />
    <glyph glyph-name="uniF7CE" unicode="twofingerswipedown" vert-adv-y="90" 
d="M896 0h-384q-30 0 -61 51t-49 111t-18 94v256q0 27 18.5 45.5t45.5 18.5q19 0 36 -11l-36 389q-2 28 15 48.5t43 22t46 -17t21 -46.5l35 -321q5 -10 14.5 -21t17.5 -11l34 353q2 28 21.5 46.5t45.5 17t43.5 -22t15.5 -48.5q-32 -186 -32 -378q0 27 18.5 45.5t45 18.5
t45.5 -18.5t19 -45.5v-64q0 27 18.5 45.5t45.5 18.5t45.5 -18.5t18.5 -45.5v-224q0 -63 -13 -115.5t-32 -83t-38 -52t-32 -29.5zM172 518q-5 -6 -12 -6t-12 6l-145 163q-8 9 5 23h120v288q0 14 9 23t22.5 9t23 -9t9.5 -23v-288h121q12 -14 3 -23z" />
    <glyph glyph-name="uniF7CF" unicode="twofingerswipeup" vert-adv-y="90" 
d="M896 0h-384q-30 0 -61 51t-49 111t-18 94v256q0 27 18.5 45.5t45.5 18.5q19 0 36 -11l-36 389q-2 28 15 48.5t43 22t46 -17t21 -46.5l35 -321q5 -10 14.5 -21t17.5 -11l34 353q2 28 21.5 46.5t45.5 17t43.5 -22t15.5 -48.5q-32 -186 -32 -378q0 27 18.5 45.5t45 18.5
t45.5 -18.5t19 -45.5v-64q0 27 18.5 45.5t45.5 18.5t45.5 -18.5t18.5 -45.5v-224q0 -176 -97 -265q-17 -16 -31 -23zM192 833v-289q0 -13 -9.5 -22.5t-23 -9.5t-22.5 9.5t-9 22.5v289h-120q-13 13 -5 23l145 163q5 5 12 5t12 -5l144 -163q9 -10 -4 -23h-120z" />
    <glyph glyph-name="uniF7D0" unicode="doubletap" vert-adv-y="90" 
d="M832 0h-384q-21 0 -51.5 34.5t-53.5 81t-23 77.5q-1 24 -16.5 81.5t-31.5 131.5t-16 138v32q0 27 18.5 45.5t45.5 18.5q22 0 39 -13.5t22 -33.5q3 28 3 47q0 58 2 112.5t8 122t20 108.5t34 41q45 0 54.5 -45.5t9.5 -210.5q0 -38 6.5 -65t16 -38.5t19 -18t15.5 -6.5h7v0
q0 27 18.5 45.5t45.5 18.5q64 0 64 -128q0 27 18.5 45.5t45 18.5t45.5 -18.5t19 -45.5v-64q0 27 18.5 45.5t45 18.5t45.5 -18.5t19 -45.5v-288q0 -46 -7.5 -83t-18 -59.5t-25 -39.5t-27 -24.5t-25.5 -12t-17.5 -5t-7.5 -0.5zM758 736q10 44 10 87q0 91 -38 170l57 31
q45 -93 45 -201q0 -61 -15 -119zM638 802q2 17 2 30q0 54 -19 100l53 30q30 -64 30 -139q0 -27 -4 -54zM258 802l-62 -33q-4 27 -4 54q0 75 30 139l53 -30q-19 -46 -19 -100q0 -13 2 -30zM138 736l-59 -32q-15 58 -15 119q0 108 46 201l56 -31q-38 -79 -38 -170
q0 -43 10 -87z" />
    <glyph glyph-name="uniF7D1" unicode="dribbblealt" vert-adv-y="90" 
d="M768 512q-71 0 -145 -14q-27 77 -61 144q93 44 165.5 111t114.5 150q85 -72 133.5 -174t48.5 -217q0 -19 -2 -45q-122 45 -254 45zM531 698q-107 185 -255 268q111 58 236 58q151 0 278 -82q-38 -78 -104.5 -141t-154.5 -103zM473 676q-105 -36 -217 -36q-116 0 -227 40
q53 152 183 247q152 -68 261 -251zM256 576q130 0 248 43q32 -64 58 -136q-142 -41 -247.5 -132t-153.5 -211q-76 71 -118.5 167.5t-42.5 204.5q0 54 11 107q121 -43 245 -43zM581 422q56 -190 58 -405q-64 -17 -127 -17q-164 0 -298 97q38 114 135.5 200t231.5 125z
M643 436q63 12 125 12q126 0 244 -46q-27 -124 -109.5 -221t-199.5 -144q-5 213 -60 399z" />
    <glyph glyph-name="uniF7D2" unicode="circlecallmissed" vert-adv-y="90" 
d="M512 0q-104 0 -199 40.5t-163.5 109t-109 163.5t-40.5 199t40.5 199t109 163.5t163.5 109t199 40.5t199 -40.5t163.5 -109t109 -163.5t40.5 -199t-40.5 -199t-109 -163.5t-163.5 -109t-199 -40.5zM758 708q10 10 10 25t-10.5 25t-25 10t-24.5 -10l-68 -68l-68 68
q-10 10 -24.5 10t-25 -10t-10.5 -25t10 -25l68 -68l-68 -68q-10 -10 -10 -25t10.5 -25t25 -10t24.5 10l68 68l68 -68q10 -10 24.5 -10t25 10t10.5 25t-10 25l-68 68zM768 384h-128l-64 -64q-64 17 -151.5 105t-104.5 151l64 64v128q-24 34 -52 53t-42 5l-67 -67
q-55 -55 -16 -173t150 -229t229 -150t173 16l67 67q14 14 -4.5 46t-53.5 48z" />
    <glyph glyph-name="uniF7D3" unicode="circlecallincoming" vert-adv-y="90" 
d="M512 0q-104 0 -199 40.5t-163.5 109t-109 163.5t-40.5 199t40.5 199t109 163.5t163.5 109t199 40.5t199 -40.5t163.5 -109t109 -163.5t40.5 -199t-40.5 -199t-109 -163.5t-163.5 -109t-199 -40.5zM758 708q10 10 10 25t-10.5 25t-25 10t-24.5 -10l-132 -132v110
q0 13 -9.5 22.5t-22.5 9.5t-22.5 -9.5t-9.5 -22.5v-192q0 -13 9.5 -22.5t22.5 -9.5h1h191q13 0 22.5 9.5t9.5 22.5t-9.5 22.5t-22.5 9.5h-110zM768 384h-128l-64 -64q-64 17 -151.5 105t-104.5 151l64 64v128q-24 34 -52 53t-42 5l-67 -67q-55 -55 -16 -173t150 -229
t229 -150t173 16l67 67q14 14 -4.5 46t-53.5 48z" />
    <glyph glyph-name="uniF7D4" unicode="circlecalloutgoing" vert-adv-y="90" 
d="M512 0q-104 0 -199 40.5t-163.5 109t-109 163.5t-40.5 199t40.5 199t109 163.5t163.5 109t199 40.5t199 -40.5t163.5 -109t109 -163.5t40.5 -199t-40.5 -199t-109 -163.5t-163.5 -109t-199 -40.5zM768 736q0 13 -9.5 22.5t-22.5 9.5h-1h-191q-13 0 -22.5 -9.5t-9.5 -22.5
t9.5 -22.5t22.5 -9.5h110l-132 -132q-10 -10 -10 -25t10.5 -25t25 -10t24.5 10l132 132v-110q0 -13 9.5 -22.5t22.5 -9.5t22.5 9.5t9.5 22.5v192zM768 384h-128l-64 -64q-64 17 -151.5 105t-104.5 151l64 64v128q-24 34 -52 53t-42 5l-67 -67q-55 -55 -16 -173t150 -229
t229 -150t173 16l67 67q14 14 -4.5 46t-53.5 48z" />
    <glyph glyph-name="uniF7D5" unicode="circledownload" vert-adv-y="90" 
d="M512 0q-139 0 -257 68.5t-186.5 186.5t-68.5 257q0 104 40.5 199t109 163.5t163.5 109t199 40.5t199 -40.5t163.5 -109t109 -163.5t40.5 -199q0 -139 -68.5 -257t-186.5 -186.5t-257 -68.5zM352 192h320q13 0 22.5 9.5t9.5 22.5t-9.5 22.5t-22.5 9.5h-320
q-13 0 -22.5 -9.5t-9.5 -22.5t9.5 -22.5t22.5 -9.5zM798 640h-157v128q0 27 -19 45.5t-45 18.5h-129q-26 0 -45 -18.5t-19 -45.5v-128h-158q-23 0 -31 -25t6 -39l280 -242q13 -14 31.5 -14t31.5 14l279 242q14 14 6 39t-31 25z" />
    <glyph glyph-name="uniF7D6" unicode="circleupload" vert-adv-y="90" 
d="M512 0q-104 0 -199 40.5t-163.5 109t-109 163.5t-40.5 199t40.5 199t109 163.5t163.5 109t199 40.5t199 -40.5t163.5 -109t109 -163.5t40.5 -199t-40.5 -199t-109 -163.5t-163.5 -109t-199 -40.5zM352 192h320q13 0 22.5 9.5t9.5 22.5t-9.5 22.5t-22.5 9.5h-320
q-13 0 -22.5 -9.5t-9.5 -22.5t9.5 -22.5t22.5 -9.5zM823 576l-279 242q-13 14 -31.5 14t-31.5 -14l-280 -242q-14 -14 -6 -39t31 -25h158v-128q0 -27 19 -45.5t45 -18.5h129q26 0 45 18.5t19 45.5v128h157q23 0 31 25t-6 39z" />
    <glyph glyph-name="uniF7D7" unicode="minismile" vert-adv-y="90" 
d="M1024 384q0 -94 -69 -167.5t-185.5 -113t-257.5 -39.5t-257.5 39.5t-185.5 113t-69 167.5q0 27 18.5 45.5t45 18.5t45.5 -18.5t19 -45.5q0 -47 51 -91t141 -72.5t192 -28.5q103 0 192.5 27.5t140.5 71.5t51 93q0 27 18.5 45.5t45 18.5t45.5 -18.5t19 -45.5zM768 640
q-53 0 -90.5 47t-37.5 113t37.5 113t90.5 47t90.5 -47t37.5 -113t-37.5 -113t-90.5 -47zM256 640q-53 0 -90.5 47t-37.5 113t37.5 113t90.5 47t90.5 -47t37.5 -113t-37.5 -113t-90.5 -47z" />
    <glyph glyph-name="uniF7D8" unicode="minisad" vert-adv-y="90" 
d="M959.5 64q-26.5 0 -45 19t-18.5 45q0 49 -51 93t-140.5 71.5t-192.5 27.5q-102 0 -192 -28.5t-141 -72.5t-51 -91q0 -26 -19 -45t-45.5 -19t-45 19t-18.5 45q0 94 69 167.5t185.5 113t257.5 39.5t257.5 -39.5t185.5 -113t69 -167.5q0 -26 -19 -45t-45.5 -19zM768 640
q-53 0 -90.5 47t-37.5 113q0 65 19.5 112.5t44.5 47.5q35 0 80.5 -29t78.5 -75t33 -88q0 -63 -36 -95.5t-92 -32.5zM256 640q-56 0 -92 32.5t-36 95.5q0 42 33 88t78.5 75t80.5 29q25 0 44.5 -47.5t19.5 -112.5q0 -66 -37.5 -113t-90.5 -47z" />
    <glyph glyph-name="uniF7D9" unicode="minilaugh" vert-adv-y="90" 
d="M1024 448q0 -73 -35.5 -141.5t-99.5 -122.5t-162.5 -87t-214.5 -33t-214.5 33t-162.5 87t-99.5 123t-35.5 141q0 27 18.5 45.5t45.5 18.5h896q27 0 45.5 -18.5t18.5 -45.5zM512 192q74 0 138 17t108.5 45.5t75 61t47.5 68.5h-737q17 -35 47.5 -68t75 -61.5t108.5 -45.5
t137 -17zM768 640q-53 0 -90.5 47t-37.5 113t37.5 113t90.5 47t90.5 -47t37.5 -113t-37.5 -113t-90.5 -47zM256 640q-53 0 -90.5 47t-37.5 113t37.5 113t90.5 47t90.5 -47t37.5 -113t-37.5 -113t-90.5 -47z" />
    <glyph glyph-name="uniF7DA" unicode="minigrin" vert-adv-y="90" 
d="M1024 448q0 -73 -35.5 -141.5t-99.5 -122.5t-162.5 -87t-214.5 -33t-214.5 33t-162.5 87t-99.5 123t-35.5 141q0 27 19 45.5t45 18.5h896q26 0 45 -18.5t19 -45.5zM144 384q17 -35 47.5 -68t75 -61.5t108.5 -45.5t137 -17q74 0 138 17t108.5 45.5t75 61t47.5 68.5h-737z
M882.5 655q-13.5 -15 -33 -15t-33.5 15l-145 97q-11 4 -18 12q-14 15 -14 36.5t14 36.5q7 7 18 11l145 98q14 15 33.5 15t33 -15t13.5 -36.5t-14 -36.5l-108 -73l108 -72q14 -15 14 -36.5t-13.5 -36.5zM353 752l-145 -97q-14 -15 -33.5 -15t-33 15t-13.5 36.5t14 36.5
l108 72l-108 73q-14 15 -14 36.5t13.5 36.5t33 15t33.5 -15l145 -98q11 -4 18 -11q14 -15 14 -36.5t-14 -36.5q-7 -8 -18 -12z" />
    <glyph glyph-name="uniF7DB" unicode="miniangry" vert-adv-y="90" 
d="M959.5 64q-26.5 0 -45 19t-18.5 45q0 49 -51 93t-140.5 71.5t-192.5 27.5q-102 0 -192 -28.5t-141 -72.5t-51 -91q0 -26 -19 -45t-45.5 -19t-45 19t-18.5 45q0 94 69 167.5t185.5 113t257.5 39.5t257.5 -39.5t185.5 -113t69 -167.5q0 -26 -19 -45t-45.5 -19zM882.5 655
q-13.5 -15 -33 -15t-33.5 15l-145 97q-11 4 -18 12q-14 15 -14 36.5t14 36.5q7 7 18 11l145 98q14 15 33.5 15t33 -15t13.5 -36.5t-14 -36.5l-108 -73l108 -72q14 -15 14 -36.5t-13.5 -36.5zM353 752l-145 -97q-14 -15 -33.5 -15t-33 15t-13.5 36.5t14 36.5l108 72l-108 73
q-14 15 -14 36.5t13.5 36.5t33 15t33.5 -15l145 -98q11 -4 18 -11q14 -15 14 -36.5t-14 -36.5q-7 -8 -18 -12z" />
    <glyph glyph-name="uniF7DC" unicode="minitongue" vert-adv-y="90" 
d="M951 293q0 -122 -75 -207.5t-181 -85.5t-181 85.5t-75 207.5h-366q-30 0 -51.5 21t-21.5 51.5t21.5 52t51.5 21.5h878q30 0 51.5 -21.5t21.5 -52t-21.5 -51.5t-51.5 -21zM585 293q0 -61 32 -104t77.5 -43t78 43t32.5 104h-220zM804.5 658q-60.5 0 -103.5 53.5t-43 129.5
t43 129.5t103.5 53.5t103.5 -53.5t43 -129.5t-43 -129.5t-103.5 -53.5zM219.5 658q-60.5 0 -103.5 53.5t-43 129.5t43 129.5t103.5 53.5t103.5 -53.5t43 -129.5t-43 -129.5t-103.5 -53.5z" />
    <glyph glyph-name="uniF7DD" unicode="minitonguealt" vert-adv-y="90" 
d="M951 293q0 -122 -75 -207.5t-181 -85.5t-181 85.5t-75 207.5h-366q-30 0 -51.5 21t-21.5 51.5t21.5 52t51.5 21.5h878q30 0 51.5 -21.5t21.5 -52t-21.5 -51.5t-51.5 -21zM585 293q0 -61 32 -104t77.5 -43t78 43t32.5 104h-220zM935.5 676q-15.5 -17 -38 -17t-37.5 17
l-167 111q-12 4 -20 13q-15 17 -15 41.5t15 41.5q8 9 20 14l167 111q15 17 37.5 17t38 -17.5t15.5 -41.5t-16 -41l-124 -83l124 -83q16 -18 16 -42t-15.5 -41zM331 787l-167 -111q-15 -17 -37.5 -17t-38 17t-15.5 41t16 42l124 83l-124 83q-16 17 -16 41t15.5 41.5t38 17.5
t37.5 -17l167 -111q12 -5 20 -14q15 -17 15 -41.5t-15 -41.5q-8 -9 -20 -13z" />
    <glyph glyph-name="uniF7DE" unicode="miniwink" vert-adv-y="90" 
d="M1024 384q0 -94 -69 -167.5t-185.5 -113t-257.5 -39.5t-257.5 39.5t-185.5 113t-69 167.5q0 27 19 45.5t45.5 18.5t45 -18.5t18.5 -45.5q0 -47 51 -91t141 -72.5t192 -28.5q103 0 192.5 27.5t140.5 71.5t51 93q0 27 19 45.5t45.5 18.5t45 -18.5t18.5 -45.5zM832 704h-192
q-26 0 -45 19t-19 45t19 45t45 19h192q27 0 45.5 -19t18.5 -45.5t-18.5 -45t-45.5 -18.5zM256 640q-53 0 -90.5 47t-37.5 113t37.5 113t90.5 47t90.5 -47t37.5 -113t-37.5 -113t-90.5 -47z" />
    <glyph glyph-name="uniF7DF" unicode="minitonguewink" vert-adv-y="90" 
d="M951 293q0 -122 -75 -207.5t-181 -85.5t-181 85.5t-75 207.5h-366q-30 0 -51.5 21t-21.5 51.5t21.5 52t51.5 21.5h878q30 0 51.5 -21.5t21.5 -52t-21.5 -51.5t-51.5 -21zM585 293q0 -61 32 -104t77.5 -43t78 43t32.5 104h-220zM878 731h-220q-30 0 -51.5 21.5t-21.5 52
t21.5 52t51.5 21.5h220q30 0 51.5 -21.5t21.5 -52t-21.5 -52t-51.5 -21.5zM219.5 658q-60.5 0 -103.5 53.5t-43 129.5t43 129.5t103.5 53.5t103.5 -53.5t43 -129.5t-43 -129.5t-103.5 -53.5z" />
    <glyph glyph-name="uniF7E0" unicode="miniconfused" vert-adv-y="90" 
d="M736 512q-66 0 -113 56.5t-47 136t47 135.5t113 56t113 -56t47 -135.5t-47 -136t-113 -56.5zM256 512q-53 0 -90.5 47t-37.5 113t37.5 113t90.5 47t90.5 -47t37.5 -113t-37.5 -113t-90.5 -47zM192 256h640q27 0 45.5 -18.5t18.5 -45t-18.5 -45.5t-45.5 -19h-640
q-27 0 -45.5 19t-18.5 45.5t18.5 45t45.5 18.5z" />
    <glyph glyph-name="uniF7E1" unicode="soundright" vert-adv-y="90" 
d="M960 448l54 -135q9 -10 9 -23.5t-9.5 -23.5t-23.5 -10t-24 10l-70 182h-64v-160q0 -14 -9.5 -23t-22.5 -9t-22.5 9t-9.5 23v447q0 14 9.5 23.5t22.5 9.5v0v0h1v0h1h1h1h1h1h1h1h1h1h1h1h1h1h1h1h1h1h1h1h1h1h1h2h1h1h1h2h1h1h1h2h1h2h1h1h2h1h2h1h2h1h2h1h2h1h2h1h2h2h1
h2h1h2h2h1h2h2h2h1h2h2h2h1h2h9q53 0 90.5 -37.5t37.5 -90.5v-65q0 -38 -18.5 -73t-45.5 -54zM960 640q0 26 -19 45t-45 19h-64v-192h64q26 0 45 18.5t19 45.5v64zM565 12l-241 243h-4v513h4l241 243q30 30 75 -16v-968q-45 -46 -75 -15zM0 319v385q0 26 18.5 45t45.5 19
h192v-513h-192q-27 0 -45.5 19t-18.5 45z" />
    <glyph glyph-name="uniF7E2" unicode="soundleft" vert-adv-y="90" 
d="M992 256h-192q-13 0 -22.5 9t-9.5 23v448q0 13 9.5 22.5t22.5 9.5t22.5 -9.5t9.5 -22.5v-416h160q13 0 22.5 -9.5t9.5 -23t-9.5 -22.5t-22.5 -9zM565 12l-241 243h-4v513h4l241 243q30 30 75 -16v-968q-45 -46 -75 -15zM0 319v385q0 26 18.5 45t45.5 19h192v-513h-192
q-27 0 -45.5 19t-18.5 45z" />
    <glyph glyph-name="uniF7E3" unicode="savetodrive" vert-adv-y="90" 
d="M896 0h-768q-53 0 -90.5 37.5t-37.5 90.5v160q0 33 28.5 210t68 351.5t63.5 174.5h288v-256h-165q-18 0 -24.5 -20t4.5 -31l224 -194q11 -11 25.5 -11t25.5 11l223 194q11 11 4.5 31t-24.5 20h-164v256h287q24 0 63.5 -174.5t68 -351.5t28.5 -210v-160q0 -53 -37.5 -90.5
t-90.5 -37.5zM960 256q0 26 -18.5 45t-45.5 19h-768q-27 0 -45.5 -19t-18.5 -45v-128q0 -27 18.5 -45.5t45.5 -18.5h768q27 0 45.5 18.5t18.5 45.5v128zM191.5 128q-26.5 0 -45 18.5t-18.5 45t18.5 45.5t45 19t45.5 -19t19 -45.5t-19 -45t-45.5 -18.5z" />
    <glyph glyph-name="uniF7E4" unicode="layerorderup" vert-adv-y="90" 
d="M985 465l-378 -189q-40 -20 -95 -20t-95 20l-378 189q-39 20 -39 47.5t39 47.5l98 48l70 -35l-143 -61l448 -192l448 192l-143 61l70 35l98 -48q39 -20 39 -47.5t-39 -47.5zM985 721l-378 -189q-40 -20 -95 -20t-95 20l-378 189q-39 20 -39 47.5t39 47.5l378 189
q40 19 95 19t95 -19l378 -189q39 -20 39 -47.5t-39 -47.5zM39 303l98 49l70 -35l-143 -61l448 -192l448 192l-143 61l70 35l98 -49q39 -19 39 -47t-39 -47l-378 -189q-40 -20 -95 -20t-95 20l-378 189q-39 19 -39 47t39 47z" />
    <glyph glyph-name="uniF7E5" unicode="layerorderdown" vert-adv-y="90" 
d="M985 465l-378 -189q-40 -20 -95 -20t-95 20l-378 189q-39 20 -39 47.5t39 46.5l98 49l70 -35l-143 -61l448 -192l448 192l-143 61l70 35l98 -49q39 -19 39 -47t-39 -47zM985 721l-378 -189q-40 -20 -95 -20t-95 20l-378 189q-39 20 -39 47.5t39 47.5l378 189q40 19 95 19
t95 -19l378 -189q39 -20 39 -47.5t-39 -47.5zM512 960l-448 -192l448 -192l448 192zM39 303l98 49l280 -140q40 -20 95 -20t95 20l280 140l98 -49q39 -19 39 -47t-39 -47l-378 -189q-40 -20 -95 -20t-95 20l-378 189q-39 19 -39 47t39 47z" />
    <glyph glyph-name="uniF7E6" unicode="layerorder" vert-adv-y="90" 
d="M985 465l-378 -189q-40 -20 -95 -20t-95 20l-378 189q-39 20 -39 47.5t39 46.5l98 49l280 -140q40 -20 95 -20t95 20l280 140l98 -49q39 -19 39 -47t-39 -47zM985 721l-378 -189q-40 -20 -95 -20t-95 20l-378 189q-39 20 -39 47.5t39 47.5l378 189q40 19 95 19t95 -19
l378 -189q39 -20 39 -47.5t-39 -47.5zM512 960l-448 -192l448 -192l448 192zM39 303l98 49l70 -35l-143 -61l448 -192l448 192l-143 61l70 35l98 -49q39 -19 39 -47t-39 -47l-378 -189q-40 -20 -95 -20t-95 20l-378 189q-39 19 -39 47t39 47z" />
    <glyph glyph-name="uniF7E7" unicode="circledribbble" vert-adv-y="90" 
d="M512 0q-104 0 -199 40.5t-163.5 109t-109 163.5t-40.5 199t40.5 199t109 163.5t163.5 109t199 40.5t199 -40.5t163.5 -109t109 -163.5t40.5 -199t-40.5 -199t-109 -163.5t-163.5 -109t-199 -40.5zM821 429q-62 19 -149 19q-25 0 -55 -9q19 -109 23 -220q66 29 114 84
t67 126zM575 198q-3 100 -24 212l-39 -26q-53 -38 -83.5 -77t-40.5 -90q59 -25 124 -25q32 0 63 6zM192 512q0 -79 36 -147.5t98 -112.5q38 116 134 184q38 27 76 44q-9 37 -19 66q-75 -35 -155 -34q-88 1 -168 34q-2 -18 -2 -34zM208 613q78 -37 144 -37q62 0 138 34
q-54 111 -157 166q-91 -61 -125 -163zM512 832q-57 0 -114 -22q103 -54 154 -163q92 66 113 146q-71 39 -153 39zM717 758q-39 -107 -130 -171l-9 -6q12 -34 24 -78q42 9 84 9q72 -1 144 -25q2 24 2 25q0 73 -30.5 137t-84.5 109z" />
    <glyph glyph-name="uniF7E8" unicode="squaredribbble" vert-adv-y="90" 
d="M896 0h-768q-53 0 -90.5 37.5t-37.5 90.5v768q0 53 37.5 90.5t90.5 37.5h768q53 0 90.5 -37.5t37.5 -90.5v-768q0 -53 -37.5 -90.5t-90.5 -37.5zM821 429q-62 19 -149 19q-25 0 -56 -9q20 -109 24 -220q66 29 113.5 84t67.5 126zM575 198q-3 101 -24 212q-19 -12 -39 -26
q-53 -38 -83.5 -77t-40.5 -90q59 -25 124 -25q32 0 63 6zM192 512q0 -79 36 -147.5t98 -112.5q38 116 134 184q38 27 76 44q-9 38 -19 66q-75 -35 -155 -34q-88 1 -168 34q-2 -18 -2 -34zM208 612q78 -36 144 -36q62 0 138 34q-54 111 -157 166q-91 -61 -125 -164zM512 832
q-57 0 -114 -22q103 -54 155 -163q91 66 112 146q-71 39 -153 39zM717 758q-39 -107 -130 -171q-1 -1 -9 -6q12 -34 24 -78q42 9 84 9q72 -1 144 -25q2 23 2 25q0 73 -30.5 137t-84.5 109z" />
    <glyph glyph-name="uniF7E9" unicode="handexpand" vert-adv-y="90" 
d="M896 0h-384q-30 0 -110.5 59.5t-113.5 100.5q-35 45 -88 81t-95.5 53t-73.5 32.5t-31 25.5q0 45 29 70.5t67 25.5q20 0 52.5 -9.5t59.5 -20.5t80 -34q7 -3 42 -33.5t54 -30.5q21 0 67.5 22t85.5 53.5t39 52.5v64q0 87 -10 158t-22 106.5t-22 68t-10 51.5q0 3 -0.5 18
t0 23.5t1 23.5t2.5 24.5t5.5 19t9.5 14.5t14 5q53 0 78 -42t71 -180q7 -22 11 -34q14 -42 30 -74t25 -43l9 -11q14 -7 37 -19.5t75 -46.5t80 -62q19 -19 41.5 -76t22.5 -84v-128q0 -46 -7.5 -83t-18 -59.5t-25 -39.5t-27 -24.5t-25.5 -12t-17.5 -5t-7.5 -0.5zM416 768
q-7 0 -21 14t-25 29l-11 14l-224 -224q57 -42 57 -57q0 -13 -9.5 -22.5t-22.5 -9.5h-128q-13 0 -22.5 9.5t-9.5 22.5v128q0 13 9.5 22.5t22.5 9.5q16 0 56 -56l224 224q-56 40 -56 56q0 13 9.5 22.5t22.5 9.5h128q13 0 22.5 -9.5t9.5 -22.5v-128q0 -13 -9.5 -22.5
t-22.5 -9.5z" />
    <glyph glyph-name="uniF7EA" unicode="handpinch" vert-adv-y="90" 
d="M896 0h-384q-30 0 -110.5 59.5t-113.5 100.5q-35 45 -88 81t-95 53t-73 32.5t-31 25.5q0 45 28.5 70.5t67.5 25.5q20 0 52.5 -10t59 -20.5t79.5 -33.5q8 -3 42.5 -33.5t53.5 -30.5q22 0 68 22t85 53.5t39 52.5v64q0 87 -10 158t-22 106.5t-22 67.5t-10 51v18.5v23.5
t0.5 23.5t3 24t5.5 19.5t9 14.5t14 4.5q53 0 78 -41.5t71 -180.5q7 -22 11 -33q14 -42 30 -74t25 -43l9 -11q15 -8 38 -20t74.5 -46t79.5 -62q19 -19 41.5 -76t22.5 -84v-128q0 -46 -7 -83t-18.5 -59.5t-25 -39.5t-27 -24.5t-25 -12t-18.5 -5.5h-7zM448 800q0 -14 -9 -23
t-23 -9h-128q-13 0 -22.5 9t-9.5 23v127q0 14 9.5 23t22.5 9q7 0 21 -14t25 -27l10 -14l47 46q10 10 23.5 10t23.5 -10t10 -23.5t-10 -23.5l-47 -47q0 1 14.5 -10.5t28.5 -25.5t14 -20zM161 512q-7 0 -21.5 14t-24.5 28l-11 15l-47 -47q-10 -10 -23.5 -10t-23.5 10t-10 23.5
t10 23.5l46 47q-6 4 -15 11t-24.5 22.5t-15.5 22.5q0 13 9 22.5t23 9.5h127q14 0 23 -9.5t9 -22.5v-128q0 -14 -9 -23t-22 -9z" />
    <glyph glyph-name="uniF7EB" unicode="fontserif" vert-adv-y="90" 
d="M896 832q0 53 -28 90.5t-68 37.5h-128q-40 0 -68 -37.5t-28 -90.5v-672q0 -40 37.5 -68t90.5 -28v-64h-384v64q53 0 90.5 28t37.5 68v672q0 53 -28 90.5t-68 37.5h-128q-40 0 -68 -37.5t-28 -90.5h-64v192h896v-192h-64z" />
    <glyph glyph-name="uniF7EC" unicode="fontsansserif" vert-adv-y="90" 
d="M576 832v-832h-192v832h-320v192h832v-192h-320z" />
    <glyph glyph-name="uniF7ED" unicode="fontrounded" vert-adv-y="90" 
d="M800 832h-224v-736q0 -40 -28 -68t-68 -28t-68 28t-28 68v736h-224q-40 0 -68 28t-28 68t28 68t68 28h640q40 0 68 -28t28 -68t-28 -68t-68 -28z" />
    <glyph glyph-name="uniF7EE" unicode="fonthandwriting" vert-adv-y="90" 
d="M864 832q-77 0 -301 -54q-19 -198 -51 -400t-64 -282q-15 -36 -44 -66t-52 -30q-11 0 -18.5 12t-10 35t-3 39t-0.5 42q0 42 8 136t24 251t22 218q-137 -29 -214 -29q-41 0 -68.5 41t-27.5 84q0 36 25 51.5t71 15.5q70 0 228 23v9v-8h1.5h0.5q7 44 23 74t38 30
q126 0 125 -64v-14q196 25 297 5q20 -4 28.5 -6t22.5 -7t20 -10t11 -14.5t5 -21.5q0 -31 -27.5 -45.5t-68.5 -14.5z" />
    <glyph glyph-name="uniF7EF" unicode="fonttypewriter" vert-adv-y="90" 
d="M895.5 640q-26.5 0 -45 18.5t-18.5 45.5v192h-256v-768h128q26 0 45 -19t19 -45.5t-19 -45t-45 -18.5h-384q-27 0 -45.5 18.5t-18.5 45t18.5 45.5t45.5 19h128v768h-256v-192q0 -27 -19 -45.5t-45.5 -18.5t-45 18.5t-18.5 45.5v256q0 26 18.5 45t45.5 19h768q23 0 23 -5
q19 -7 30 -23t11 -36v-256q0 -27 -19 -45.5t-45.5 -18.5z" />
    <glyph glyph-name="uniF7F0" unicode="fontcomic" vert-adv-y="90" 
d="M928 768h-295q-10 -88 -33.5 -224t-51 -282t-36.5 -198q-33 -17 -101 -40.5t-91 -23.5q2 15 15 90.5t15.5 92t13 80.5t13.5 87t10.5 77.5t10 85.5t7 78.5t6.5 89t3 86.5q-57 -4 -137 -20t-130 -29l-51 -14l-32 256q172 16 384 32q86 6 214 14t213 13l85 5z" />
    <glyph glyph-name="uniF7F1" unicode="fontcaligraphy" vert-adv-y="90" 
d="M928 896q-24 0 -37 -0.5t-34 -3.5t-34.5 -9.5t-28.5 -19.5t-26 -31q-9 -26 -27 -71t-55 -127t-78 -162.5t-96.5 -168t-110 -153t-118.5 -108t-123 -42.5q-66 0 -113 47t-47 113q0 42 16 69t48 27q28 0 46 -16.5t18 -47.5q0 -28 -16 -55.5t-16 -41t22 -22.5t42 -9t43 13
t48 40t49.5 57t52.5 75t51 83t51.5 92t47.5 91t45 91t38.5 80.5t33.5 70.5q14 31 20 43q-26 -21 -69.5 -58.5t-74 -62t-70.5 -51t-82.5 -39.5t-87.5 -13q-93 0 -142.5 49.5t-49.5 142.5q0 256 352 256q48 0 110.5 -18.5t125.5 -43t88 -30.5q95 92 188 92q40 0 68 -19
t28 -45.5t-28 -45t-68 -18.5zM416 960q-96 0 -160 -53t-64 -130q0 -59 24 -98t72 -39q39 0 187 101t186 134q-14 6 -68.5 31.5t-97.5 39.5t-79 14z" />
    <glyph glyph-name="uniF7F2" unicode="fontgothic" vert-adv-y="90" 
d="M768 832v-676q135 49 192 164q0 -150 -103.5 -235t-312.5 -85q-113 0 -209 55.5t-151.5 151.5t-55.5 209q0 127 67 264.5t170 214.5q-26 1 -45 1q-128 0 -256 -128q0 64 51 123t140.5 96t192.5 37q72 0 126.5 -10t81.5 -22t64.5 -22t79.5 -10q36 0 79.5 17.5t80.5 46.5
q0 -26 -12.5 -57.5t-35 -62.5t-61 -51.5t-83.5 -20.5zM448 887q-25 3 -33 4q-73 -57 -116 -148.5t-43 -198.5q0 -104 40.5 -193.5t109.5 -146.5l42 52v631zM512 224q-21 -21 -51 -58q71 -38 147 -38q46 0 96 10v698q-42 6 -128 26v-478q0 -4 -0.5 -11t-4 -27t-9.5 -38.5
t-19 -42t-31 -41.5z" />
    <glyph glyph-name="uniF7F3" unicode="fontstencil" vert-adv-y="90" 
d="M833 768q-12 0 -27 16.5t-30 39t-43.5 52.5t-60.5 51q-11 8 -21.5 29.5t-10.5 34.5q0 14 9.5 23t22.5 9q16 0 79.5 0.5t81.5 0.5q15 0 31 -16t24 -32l9 -16v-128q0 -26 -19 -45t-45 -19zM704 64q0 -27 -18.5 -45.5t-45.5 -18.5h-160h-160q-26 0 -45 18.5t-19 45.5
q0 11 20 25.5t44 27.5t44 33t20 42v768q0 36 25.5 50t71 14t70.5 -14t25 -50v-768q0 -22 20 -42t44 -33t44 -27.5t20 -25.5zM288 928q-32 -22 -60 -52t-43 -52.5t-30 -39t-27 -16.5q-27 0 -45.5 19t-18.5 45v128q3 7 9 17.5t22.5 28.5t32.5 18h81.5h78.5q14 0 23 -9.5
t9 -22.5q0 -14 -10.5 -35.5t-21.5 -28.5z" />
    <glyph glyph-name="uniF6A6" unicode="moonorbit" vert-adv-y="90" 
d="M512 0q-105 0 -202 42q28 21 46 51q76 -29 156 -29q91 0 174 35.5t143 95.5t95.5 143t35.5 174t-35.5 174t-95.5 143t-143 95.5t-174 35.5t-174 -35.5t-143 -95.5t-95.5 -143t-35.5 -174q0 -80 29 -156q-30 -18 -51 -46q-42 97 -42 202q0 104 40.5 199t109 163.5
t163.5 109t199 40.5t199 -40.5t163.5 -109t109 -163.5t40.5 -199t-40.5 -199t-109 -163.5t-163.5 -109t-199 -40.5zM512 768q106 0 181 -75t75 -181t-75 -181t-181 -75t-181 75t-75 181t75 181t181 75zM192 320q53 0 90.5 -37.5t37.5 -90.5t-37.5 -90.5t-90.5 -37.5
t-90.5 37.5t-37.5 90.5t37.5 90.5t90.5 37.5z" />
    <glyph glyph-name="uniF6DF" unicode="shuttle" vert-adv-y="90" 
d="M910 639l-12 -12q-27 -51 -46.5 -122.5t-19.5 -152.5v-224q0 -26 -50.5 -77t-77.5 -51l-231 202l-58 -58q-11 -11 -23.5 -14.5t-27.5 2t-27.5 12t-33 24.5t-32.5 30l-36.5 36.5l-36.5 36.5t-30 32.5t-24.5 33t-12 27.5t-2 27.5t14.5 23.5l58 58l-202 231q0 27 51 77.5
t77 50.5h224q81 0 152.5 19.5t122.5 46.5l12 12q26 26 97 60t147 50t117 -20q36 -41 20 -117t-50 -147t-60 -97zM768 896q-15 0 -36 -29.5t-28 -34.5q48 -24 76 -52t52 -76q5 7 34.5 28t29.5 36q0 53 -37.5 90.5t-90.5 37.5zM160 224q44 1 54.5 -9.5t9.5 -54.5
q-1 -47 -62.5 -103.5t-129.5 -56.5h-32v32q0 68 56.5 129.5t103.5 62.5z" />
    <glyph glyph-name="uniF6E0" unicode="meteor" vert-adv-y="90" 
d="M886 790q33 19 59.5 29.5t36.5 11.5l10 1q-90 -92 -171 -157q53 13 104 20t75 8l24 1q-173 -113 -256 -192q-103 -98 -176.5 -192t-93.5 -147q-26 -76 -92.5 -124.5t-149.5 -48.5q-106 0 -181 75t-75 181q0 69 34 127.5t91 92.5q38 19 82.5 60t79.5 84t66 86.5t46 67
t17 26.5q-1 -37 -11 -96q30 0 72 33t80 80t72 94t55 80l20 33q0 -22 -1 -55.5t-9 -103t-22 -97.5q43 57 83 121t58 99l19 36q4 -7 8 -19.5t5 -46t-13 -62.5q38 27 86 59t77 51l29 18q-63 -105 -138 -234zM256 448q-80 0 -136 -56t-56 -136t56 -136t136 -56t136 56t56 136
t-56 136t-136 56z" />
    <glyph glyph-name="uniF6E1" unicode="galaxy" vert-adv-y="90" 
d="M576 64q-104 0 -192.5 51.5t-140 140t-51.5 192.5q0 106 75 181t181 75q34 0 78 -19t79 -57.5t35 -83.5q0 -59 -11 -84q33 15 54 46.5t21 69.5q0 106 -75 181t-181 75q-87 0 -160.5 -43t-116.5 -116.5t-43 -160.5q0 -125 37.5 -228t90.5 -156q-139 46 -197.5 139
t-58.5 245q0 91 35.5 174t95.5 143t143 95.5t174 35.5q104 0 192.5 -51.5t140 -140t51.5 -192.5q0 -106 -75 -181t-181 -75q-34 0 -78 19t-79 57.5t-35 83.5q0 59 11 84q-33 -15 -54 -46.5t-21 -69.5q0 -106 75 -181t181 -75q87 0 160.5 43t116.5 116.5t43 160.5
q0 124 -37.5 227.5t-90.5 156.5q139 -46 197.5 -139t58.5 -245q0 -91 -35.5 -174t-95.5 -143t-143 -95.5t-174 -35.5z" />
    <glyph glyph-name="uniF6E2" unicode="observatory" vert-adv-y="90" 
d="M960 256v-128q0 -27 -19 -45.5t-45 -18.5h-768q-27 0 -45.5 18.5t-18.5 45.5v128q-27 0 -45.5 18.5t-18.5 45.5t18.5 45.5t45.5 18.5v192q0 132 70.5 240.5t185.5 163.5v-404q0 -27 18.5 -45.5t45.5 -18.5v320q0 53 37.5 90.5t90.5 37.5t90.5 -37.5t37.5 -90.5v-320
q27 0 45.5 18.5t18.5 45.5v404q115 -55 185.5 -163.5t70.5 -240.5v-192q27 0 45.5 -18.5t18.5 -45t-19 -45.5t-45 -19zM512 896q-27 0 -45.5 -19t-18.5 -45.5t18.5 -45t45.5 -18.5t45.5 18.5t18.5 45t-18.5 45.5t-45.5 19z" />
    <glyph glyph-name="uniF6E3" unicode="astronaut" vert-adv-y="90" 
d="M960 402q-4 -210 -109 -306t-339 -96t-339 96t-109 306q-29 16 -46.5 45.5t-17.5 64.5v128q0 35 17.5 64t46.5 46v242q0 13 9.5 22.5t22.5 9.5t22.5 -9.5t9.5 -22.5v-186q60 100 162 159t222 59q133 0 242 -71t163 -187q46 -8 76.5 -43.5t30.5 -82.5v-128
q0 -35 -17.5 -64.5t-46.5 -45.5zM512 960q-104 0 -192.5 -51.5t-140 -140t-51.5 -192.5t51.5 -192.5t140 -140t192.5 -51.5t192.5 51.5t140 140t51.5 192.5t-51.5 192.5t-140 140t-192.5 51.5zM192 576q0 87 43 160.5t116.5 116.5t160.5 43t160.5 -43t116.5 -116.5
t43 -160.5q0 -37 -9 -66t-23.5 -49t-38.5 -34.5t-48.5 -22.5t-60 -12.5t-66.5 -6t-74 -1.5t-74 1.5t-66.5 6t-60 12.5t-48.5 22.5t-38.5 34.5t-23.5 49t-9 66zM507 813.5q-12 18.5 -46.5 18t-72.5 -19.5t-56.5 -45t-6.5 -44.5t46.5 -18t72.5 19.5t56.5 45t6.5 44.5z" />
    <glyph glyph-name="uniF6E4" unicode="asteroid" vert-adv-y="90" 
d="M566 521q-9 -9 -22.5 -9t-22.5 9t-9 22.5t9 22.5l449 449q9 9 22 9t22.5 -9.5t9.5 -22.5t-9 -22zM374 585q-9 -9 -22.5 -9t-22.5 9t-9 22.5t9 22.5l385 385q9 9 22 9t22.5 -9.5t9.5 -22.5t-9 -22zM512 256q0 -106 -75 -181t-181 -75t-181 75t-75 181t75 181t181 75
t181 -75t75 -181zM970 759q9 9 22 9t22.5 -9.5t9.5 -22.5t-9 -22l-385 -385q-9 -9 -22.5 -9t-22.5 9t-9 22.5t9 22.5z" />
    <glyph glyph-name="uniF6E5" unicode="sunrise" vert-adv-y="90" 
d="M1024 265q-97 -62 -96 -137q1 -36 4 -55q92 -33 92 -73h-1024q0 40 93 74q3 27 3 54q-2 77 -96 137q255 11 137 237q227 -117 238 138q60 -94 137 -96q75 -2 137 96q11 -255 238 -138q-118 -226 137 -237zM512 448q-87 0 -161 -43t-116.5 -116.5t-42.5 -160.5
q0 -12 1 -28q30 6 64 11q-1 15 -1 17q0 106 75 181t181 75t181 -75t75 -181q0 -3 -1 -17q34 -5 64 -11q1 17 1 28q0 87 -42.5 160.5t-116.5 116.5t-161 43zM576 832v-96q0 -13 -9.5 -22.5t-22.5 -9.5h-64q-13 0 -22.5 9.5t-9.5 22.5v96h-113q-25 22 -8 37l162 146q9 9 23 9
t24 -9l162 -146q16 -15 -9 -37h-113z" />
    <glyph glyph-name="uniF6E6" unicode="sunset" vert-adv-y="90" 
d="M1024 265q-97 -62 -96 -137q1 -36 4 -55q92 -33 92 -73h-1024q0 40 93 74q3 28 3 54q-2 77 -96 137q255 11 137 237q227 -117 238 138q60 -94 137 -96q75 -2 137 96q11 -255 238 -138q-118 -226 137 -237zM512 448q-87 0 -161 -43t-116.5 -116.5t-42.5 -160.5
q0 -12 1 -28q30 6 64 11q-1 15 -1 17q0 106 75 181t181 75t181 -75t75 -181q0 -2 -1 -17q34 -5 64 -11q1 17 1 28q0 87 -43 160.5t-116.5 116.5t-160.5 43zM536 713q-10 -9 -24 -9t-23 9l-162 146q-17 15 8 37h113v96q0 13 9.5 22.5t22.5 9.5h64q13 0 22.5 -9.5t9.5 -22.5
v-96h113q25 -22 9 -37z" />
    <glyph glyph-name="uniF6E7" unicode="tiderise" vert-adv-y="90" 
d="M896 433q-53 18 -118 15t-125.5 -20.5t-130 -39t-132 -40.5t-132.5 -25.5t-130 5.5q-54 11 -91 35.5t-37 51.5q0 29 38 43t90 4q43 -19 103 -16t121 20.5t133 39t139 41t139 26t133 -5.5q54 -11 91 -35.5t37 -51.5q0 -30 -39.5 -46t-88.5 -1zM576 831v-95q0 -14 -9.5 -23
t-22.5 -9h-64q-13 0 -22.5 9t-9.5 23v95h-113q-25 23 -8 38l162 146q9 8 23 8t24 -8l162 -146q16 -15 -9 -38h-113zM128 142q43 -19 103 -16t121 20.5t133 39t139 41t139 26t133 -5.5q54 -11 91 -35.5t37 -51.5q0 -30 -39.5 -46t-88.5 -1q-53 18 -118 15t-125.5 -20.5
t-130 -39t-132 -40.5t-132.5 -25.5t-130 5.5q-54 11 -91 35.5t-37 52.5t38 42t90 4z" />
    <glyph glyph-name="uniF6E8" unicode="tidefall" vert-adv-y="90" 
d="M896 433q-53 18 -118 15t-125.5 -20.5t-130 -39t-132 -40.5t-132.5 -25.5t-130 5.5q-54 11 -91 35.5t-37 51.5q0 29 38 43t90 4q43 -19 103 -16.5t121 20.5t133 39.5t139 41t139 26t133 -5.5q54 -11 91 -35.5t37 -51.5q0 -30 -39.5 -46t-88.5 -1zM536 712q-10 -8 -24 -8
t-23 8l-162 146q-17 16 8 38h113v96q0 13 9.5 22.5t22.5 9.5h64q13 0 22.5 -9.5t9.5 -22.5v-96h113q25 -23 9 -38zM128 142q43 -19 103 -16t121 20.5t133 39t139 41t139 26t133 -5.5q54 -11 91 -35.5t37 -51.5q0 -30 -39.5 -46t-88.5 -1q-53 18 -118 15t-125.5 -20.5
t-130 -39t-132 -40.5t-132.5 -25.5t-130 5.5q-54 11 -91 35.5t-37 52.5t38 42t90 4z" />
    <glyph glyph-name="uniF6E9" unicode="mushroomcloud" vert-adv-y="90" 
d="M928 640q-18 0 -36 7q-8 -31 -33.5 -51t-58.5 -20q-28 0 -53 17q-36 -13 -84 -16q-36 -36 -57 -72q72 -10 117 -34.5t45 -54.5q0 -32 -51 -57.5t-131 -34.5q27 -133 130 -207q138 -15 223 -46.5t85 -70.5h-1024q0 39 85 70.5t223 46.5q103 75 130 207q-80 9 -131 34.5
t-51 57.5q0 30 45 54.5t117 34.5q-21 36 -57 72q-1 0 -4 -0.5t-5 -0.5q-37 0 -73 18q-26 -18 -55 -18q-33 0 -58.5 20t-33.5 51q-18 -7 -36 -7q-40 0 -68 28t-28 68q0 31 18 55.5t47 34.5q0 1 -0.5 3t-0.5 3q0 53 37.5 90.5t90.5 37.5q8 0 17 -1q17 29 46.5 47t64.5 18
q57 0 96 -44q39 44 96 44q50 0 87 -35q29 35 73 35q31 0 55.5 -18t34.5 -47q1 0 3 0.5t3 0.5q58 0 102 -36.5t55 -91.5h1h2q40 0 68 -28t28 -68t-28 -68t-68 -28zM444 446q-55 -4 -89.5 -12t-34.5 -18t35 -18.5t91 -11.5q2 29 2 30q0 12 -4 30zM578 386q56 3 91 11.5
t35 18.5t-34.5 18t-89.5 12q-4 -18 -4 -30q0 -1 2 -30z" />
    <glyph glyph-name="uniF6EA" unicode="galaxyalt" vert-adv-y="90" 
d="M576 64q-104 0 -192.5 51.5t-140 140t-51.5 192.5q0 64 32 122.5t92 96t132 37.5q50 0 89 -45.5t39 -114.5q-2 4 -6 10.5t-16.5 23t-26.5 29t-35.5 23t-43.5 10.5q-52 0 -90 -50.5t-38 -141.5q0 -106 75 -181t181 -75q87 0 160.5 43t116.5 116.5t43 160.5
q0 125 -37.5 228t-90.5 156q139 -46 197.5 -139t58.5 -245q0 -91 -35.5 -174t-95.5 -143t-143 -95.5t-174 -35.5zM576 320q-50 0 -89 45.5t-39 114.5q2 -4 6 -10.5t16.5 -23t26.5 -29t35.5 -23t43.5 -10.5q52 0 90 50.5t38 141.5q0 106 -75 181t-181 75q-87 0 -160.5 -43
t-116.5 -116.5t-43 -160.5q0 -125 37.5 -228t90.5 -156q-139 46 -197.5 139t-58.5 245q0 91 35.5 174t95.5 143t143 95.5t174 35.5q104 0 192.5 -51.5t140 -140t51.5 -192.5q0 -64 -32 -122.5t-92 -96t-132 -37.5z" />
    <glyph glyph-name="uniF6EB" unicode="sputnik" vert-adv-y="90" 
d="M1015 778l-512 -455q9 -33 9 -67q0 -5 -1 -13t-1 -9l467 274q11 6 23.5 2.5t19 -15t3 -24t-14.5 -19.5l-522 -306q-19 -38 -42 -64q-116 39 -219.5 142.5t-142.5 219.5q26 23 63 42l307 522q7 11 19.5 14.5t24 -3t15 -19t-2.5 -23.5l-274 -467q1 0 9 1t13 1q33 0 67 -9
l455 512q9 9 22 9t22.5 -9.5t9.5 -22.5t-9 -22l-438 -493q58 -34 92 -92l493 438q9 9 22 9t22.5 -9.5t9.5 -22.5t-9 -22zM426 65q-73 -65 -170 -65q-106 0 -181 75t-75 181q0 97 65 170q8 -146 111.5 -249.5t249.5 -111.5z" />
    <glyph glyph-name="uniF6EC" unicode="sextant" vert-adv-y="90" 
d="M960 192q-192 -192 -448 -192t-448 192q-7 7 -22.5 20.5t-22 20.5t-13 21.5t-6.5 33.5q0 40 28 68t68 28q15 0 32 -6l261 262h-290q-8 0 -14.5 2.5t-10 9.5t-6 13t-3.5 18.5t-1 20.5v25v6.5v7.5q0 24 0.5 36t3.5 26.5t10.5 20.5t20.5 6h302q-17 30 -17 64q0 53 37.5 90.5
t90.5 37.5t90.5 -37.5t37.5 -90.5q0 -34 -17 -64h209q6 0 11 -1.5t8 -5t5.5 -6.5t4 -9.5t2.5 -11.5t1 -14v-14.5v-16.5v-17v-17v-16.5v-14.5t-1 -14t-2.5 -11.5t-4 -9.5t-5.5 -6.5t-8 -5t-11 -1.5h-197l261 -262q17 6 32 6q40 0 68 -28t28 -68q0 -19 -6.5 -33.5t-13 -21.5
t-22 -20.5t-22.5 -20.5zM448 517l-148 -148q65 -57 148 -74v222zM448 230q-110 18 -193 94l-74 -74q116 -99 267 -118v98zM576 517v-222q83 17 148 74zM769 324q-83 -75 -193 -94v-98q151 19 267 118zM928 640q-13 0 -22.5 9.5t-9.5 22.5v128q0 13 9.5 22.5t22.5 9.5
t22.5 -9.5t9.5 -22.5v-128q0 -13 -9.5 -22.5t-22.5 -9.5z" />
    <glyph glyph-name="uniF6ED" unicode="spock" vert-adv-y="90" 
d="M893 811l-60 -491q-6 -54 -18 -106.5t-25 -89.5t-25 -66t-20 -44t-8 -14h-352q-5 5 -13.5 14t-31 34.5t-39 48.5t-30.5 50t-14 45q0 38 -27.5 122t-55.5 149l-27 65q-19 19 -19 46.5t19 47t46 19.5t46 -20q0 -2 1.5 -6t5 -15.5t7.5 -23t9.5 -27t11 -29t12 -27.5
t12.5 -23.5t12 -15.5t11 -6l-64 437q-4 26 10.5 48t38.5 26q17 1 34.5 0t31 -17t13.5 -46v64q0 27 19 45.5t45.5 18.5t45 -18.5t18.5 -45.5l64 -384q7 2 15 10.5t11 21.5l50 297q4 27 23.5 42.5t44 11.5t38.5 -26t10 -48v-53q23 64 64 64q37 0 53.5 -28.5t6.5 -56.5z" />
    <glyph glyph-name="uniF6EE" unicode="meteorite" vert-adv-y="90" 
d="M1002 363v0q33 -33 15.5 -97t-74.5 -121q-43 -43 -92 -64t-87 -14q-117 -67 -252 -67q-99 0 -191 38q-2 0 -5.5 -0.5t-5.5 -0.5q-65 0 -119.5 42t-72.5 107q-117 142 -117 326q0 54 11 107q-25 43 -1.5 112.5t85.5 131.5q78 78 163 93q118 68 253 68q105 0 199.5 -40.5
t163 -109t109 -163.5t40.5 -199q0 -76 -22 -149zM310.5 887q-19.5 20 -68.5 -1t-98.5 -70.5t-70 -98t-1 -68.5t68.5 1t98 70.5t70 98t1.5 68.5zM279 320q-43 0 -68 -31.5t-17 -73.5q6 -37 36 -62t66.5 -25t61.5 25t25 62q0 42 -30.5 73.5t-73.5 31.5zM608 576q-40 0 -68 -28
t-28 -68t28 -68t68 -28t68 28t28 68t-28 68t-68 28zM880.5 771q-17.5 37 -44 53.5t-46.5 2t-21.5 -51t15.5 -73.5t43.5 -53.5t46.5 -2t22 51t-15.5 73.5zM946.5 306.5q-13.5 13.5 -47.5 -1t-68 -48.5t-48.5 -67.5t-1 -47t47.5 1t68 48t48.5 67.5t1 47.5z" />
    <glyph glyph-name="uniF6EF" unicode="deathstar" vert-adv-y="90" 
d="M1010 395q-202 -75 -498 -75t-498 75q-14 60 -14 117q0 104 40.5 199t109 163.5t163.5 109t199 40.5t199 -40.5t163.5 -109t109 -163.5t40.5 -199q0 -57 -14 -117zM443 880.5q-54 28.5 -119.5 6.5t-103 -81.5t-25.5 -122.5t66 -91.5t119.5 -6.5t103 81.5t25.5 122.5
t-66 91.5zM352 704q-13 0 -22.5 9.5t-9.5 22.5t9.5 22.5t22.5 9.5t22.5 -9.5t9.5 -22.5t-9.5 -22.5t-22.5 -9.5zM1002 363q-49 -160 -184 -261.5t-306 -101.5t-306 101.5t-184 261.5q203 -107 490 -107t490 107z" />
    <glyph glyph-name="uniF6F0" unicode="deathstarbuilding" vert-adv-y="90" 
d="M896 448h-128v-64h128v-23q-167 -41 -384 -41q-137 0 -256 17v47h-64h-64v64h-64v-64h-18q-24 8 -32 11q-14 60 -14 117q0 104 40.5 199t109 163.5t163.5 109t199 40.5q95 0 182 -33.5t156 -94.5h-146v-64h128v-64h64v-64h-128v-64h128v-64h124q4 -33 4 -64h-128v-64z
M443 880.5q-54 28.5 -119.5 6.5t-103 -81.5t-25.5 -122.5t66 -91.5t119.5 -6.5t103 81.5t25.5 122.5t-66 91.5zM352 704q-13 0 -22.5 9.5t-9.5 22.5t9.5 22.5t22.5 9.5t22.5 -9.5t9.5 -22.5t-9.5 -22.5t-22.5 -9.5zM128 316v-60h384q219 0 384 60v-60h-64v-64h-128v-64h64
v-58l-6 -3t-5 -3h-53v-26q-93 -38 -192 -38q-159 0 -288 88.5t-186 231.5h79q2 -1 5.5 -2t5.5 -2z" />
    <glyph glyph-name="uniF6F1" unicode="fallingstar" vert-adv-y="90" 
d="M401 422l-14 5l-31 67q50 124 159.5 237.5t243.5 190t265 102.5v-192q-176 -35 -347 -146t-276 -264zM508 282l-124 -119v-145q-2 -9 -9.5 -14.5t-16.5 -2.5l-121 75l-149 -50q-10 -1 -17.5 5.5t-8.5 17.5l30 153l-90 125q-4 10 0 19t13 13l152 20l90 127q7 7 17 6t17 -9
l64 -140l146 -47q8 -6 10 -16t-3 -18z" />
    <glyph glyph-name="uniF6F2" unicode="windmill" vert-adv-y="90" 
d="M747 668q14 -32 21 -60l18 -157l165 -137q9 -9 9 -22t-9 -22l-128 -128l9 -78q0 -20 -17 -42t-41 -22h-524q-26 0 -42 19t-16 45l9 78l-128 128q-9 9 -9 22t9 22l164 137l19 157q7 28 21 60l-204 170q-9 9 -9 22t9 22l133 133q9 9 22 9t22 -9l167 -200q43 17 95 17
t95 -17l167 200q9 9 22 9t22 -9l133 -133q9 -9 9 -22t-9 -22zM268 159l-12 -95h128v160q0 13 9.5 22.5t22.5 9.5h192q13 0 22.5 -9.5t9.5 -22.5v-160h128l-12 95l-203 243q-9 10 -9 23t9 22l22 22l-46 46q-9 -3 -17 -3t-17 3l-46 -46l22 -22q9 -9 9 -22t-9 -23zM405 639
l-22 -22q-10 -9 -22.5 -9t-22.5 9l-5 4q-8 -23 -13 -45l-8 -63l26 22q10 9 22.5 9t22.5 -9l22 -22l46 46q-3 9 -3 17t3 17zM553 750l9 11q-26 7 -50 7t-50 -7l9 -11q9 -10 9 -22.5t-9 -22.5l-22 -22l45 -46q10 3 18 3t17 -3l46 46l-22 22q-9 10 -9 22.5t9 22.5zM704 576
q-5 22 -13 45l-5 -4q-10 -9 -23 -9t-22 9l-22 22l-46 -46q3 -9 3 -17t-3 -17l46 -46l22 22q9 9 22 9t23 -9l26 -22z" />
    <glyph glyph-name="uniF6F3" unicode="windmillalt" vert-adv-y="90" 
d="M640 680q17 -31 32.5 -60.5t34 -66.5t31 -68t21.5 -59.5t9 -47t-11 -24.5q-12 -7 -35 8.5t-51 49t-54 69.5t-54 79q13 -171 13 -528q0 -13 -9.5 -22.5t-22.5 -9.5h-64q-13 0 -22.5 9.5t-9.5 22.5q0 373 14 544h-46q-13 0 -22.5 9.5t-9.5 22.5v36q-256 13 -256 59.5
t256 60.5v36q0 13 9.5 22.5t22.5 9.5h158q60 90 110 146.5t73 43.5q11 -6 11 -25t-9 -47t-21.5 -59.5t-31 -68t-34 -66.5t-32.5 -61v-15z" />
    <glyph glyph-name="uniF6F4" unicode="pumpjack" vert-adv-y="90" 
d="M992 0h-960q-13 0 -22.5 9.5t-9.5 22.5v64q0 13 9.5 22.5t22.5 9.5h160l210 590l-183 18l-27 -192q0 -13 -9.5 -22.5t-22.5 -9.5q-26 0 -47.5 5t-37 12t-28 21t-20 26t-13 33t-8.5 35t-4.5 40.5t-1.5 41v42.5q0 61 36 122t88 97.5t100 36.5q13 0 22.5 -9.5t9.5 -22.5
l-24 -167l167 -17q19 24 49 24q38 0 56 -34l364 -37q12 -1 21 -25.5t7 -38.5v-569h96q13 0 22.5 -9.5t9.5 -22.5v-64q0 -13 -9.5 -22.5t-22.5 -9.5zM633 128l-23 64h-207l115 -64h115zM286 192l-23 -64h140l-115 64h-2zM309 256h241l-201 112zM567 311l-26 73h-106zM448 643
l-26 -71l65 -39zM404 519l-26 -71h140l-1 4zM832 675l-335 33l207 -580h128v547z" />
    <glyph glyph-name="uniF6F5" unicode="nuclearplant" vert-adv-y="90" 
d="M996 64h-234q-115 638 -122 895h224q13 0 22.5 -9.5t9.5 -22.5q0 -79 12 -181.5t26 -179t44 -231t46 -239.5q2 -13 -6 -22.5t-22 -9.5zM676 0h-648q-14 0 -22 9.5t-5 22.5q127 703 127 959q0 13 9.5 22.5t22.5 9.5h384q13 0 22.5 -9.5t9.5 -22.5q0 -256 128 -959
q2 -13 -6 -22.5t-22 -9.5z" />
    <glyph glyph-name="uniF6F6" unicode="solarpanel" vert-adv-y="90" 
d="M991 320h-281l58 -288q3 -16 -7 -24t-25 -8h-448q-15 0 -24.5 8t-7.5 24l58 288h-281q-16 0 -25.5 7.5t-6.5 24.5l127 639q2 12 8.5 22t15.5 10h709q10 0 21.5 -11t13.5 -21l127 -639q3 -17 -6.5 -24.5t-25.5 -7.5zM832 959h-640l-96 -575h831zM348 639l-28 -191h-160
l41 191h147zM612 639l28 -191h-256l27 191h201zM822 639l42 -191h-160l-28 191h146zM667 703l-27 192h128l41 -192h-142zM421 703l27 192h128l27 -192h-182zM215 703l41 192h128l-27 -192h-142z" />
    <glyph glyph-name="uniF6F7" unicode="barrel" vert-adv-y="90" 
d="M928 384q13 0 22.5 -9.5t9.5 -22.5t-9.5 -22.5t-22.5 -9.5h-32v-256h32q13 0 22.5 -9.5t9.5 -22.5t-9.5 -22.5t-22.5 -9.5h-768q-13 0 -22.5 9.5t-9.5 22.5t9.5 22.5t22.5 9.5h32v256h-32q-13 0 -22.5 9.5t-9.5 22.5t9.5 22.5t22.5 9.5h32v256h-32q-13 0 -22.5 9.5
t-9.5 22.5t9.5 22.5t22.5 9.5h32v256h-32q-13 0 -22.5 9.5t-9.5 22.5t9.5 22.5t22.5 9.5h768q13 0 22.5 -9.5t9.5 -22.5t-9.5 -22.5t-22.5 -9.5h-32v-256h32q13 0 22.5 -9.5t9.5 -22.5t-9.5 -22.5t-22.5 -9.5h-32v-256h32zM657 617l-113 151l-113 -151q-47 -51 -47 -123
t47 -123t113 -51t113 51t47 123t-47 123z" />
    <glyph glyph-name="uniF6F8" unicode="canister" vert-adv-y="90" 
d="M960 64q0 -27 -19 -45.5t-45 -18.5h-768q-27 0 -45.5 18.5t-18.5 45.5v320v192v256q0 27 18.5 45.5t45.5 18.5h128q-26 0 -45 18.5t-19 45.5t19 45.5t45 18.5h192q27 0 45.5 -18.5t18.5 -45.5t-19 -45.5t-45 -18.5h128q40 0 78 -23q56 29 137 22.5t121 -46.5
q39 -40 46 -120t-21 -137q23 -38 23 -80v-448zM649 511q-6 1 -9 1h-256q-3 0 -9 -1l-71 61q-11 6 -24 2.5t-19.5 -14.5t-3 -24t14.5 -20l49 -57q-1 -7 -1 -11v-192q0 -4 1 -10l-49 -58q-11 -7 -14.5 -19.5t3 -24t19.5 -15t24 2.5l71 61q6 -1 9 -1h256q2 0 9 1l71 -61
q11 -6 24 -2.5t19.5 15t3 24t-14.5 19.5l-49 58q1 6 1 10v192q0 4 -1 11l49 57q11 7 14.5 20t-3 24t-19.5 14.5t-24 -2.5zM853 789q-29 29 -68.5 39t-74.5 -2l180 -180q11 35 1.5 74.5t-38.5 68.5zM608 256h-192q-13 0 -22.5 9.5t-9.5 22.5v128q0 13 9.5 22.5t22.5 9.5h192
q13 0 22.5 -9.5t9.5 -22.5v-128q0 -13 -9.5 -22.5t-22.5 -9.5z" />
    <glyph glyph-name="uniF6F9" unicode="railtunnel" vert-adv-y="90" 
d="M864 384q-13 0 -22.5 9.5t-9.5 22.5v224q0 87 -43 160.5t-116.5 116.5t-160.5 43t-160.5 -43t-116.5 -116.5t-43 -160.5v-224q0 -13 -9.5 -22.5t-22.5 -9.5t-22.5 9.5t-9.5 22.5v224q0 104 51.5 192.5t140 140t192.5 51.5t192.5 -51.5t140 -140t51.5 -192.5v-224
q0 -13 -9.5 -22.5t-22.5 -9.5zM288 384q-13 0 -22.5 9.5t-9.5 22.5v224q0 106 75 181t181 75t181 -75t75 -181v-224q0 -13 -9.5 -22.5t-22.5 -9.5h-32l96 -384h-576l96 384h-32zM657 256h-290l-9 -64h308zM683 64l-9 64h-324l-9 -64h342zM375 320h274l-9 64h-256z" />
    <glyph glyph-name="uniF6FA" unicode="roadtunnel" vert-adv-y="90" 
d="M864 384q-13 0 -22.5 9.5t-9.5 22.5v224q0 87 -43 160.5t-116.5 116.5t-160.5 43t-160.5 -43t-116.5 -116.5t-43 -160.5v-224q0 -13 -9.5 -22.5t-22.5 -9.5t-22.5 9.5t-9.5 22.5v224q0 104 51.5 192.5t140 140t192.5 51.5t192.5 -51.5t140 -140t51.5 -192.5v-224
q0 -13 -9.5 -22.5t-22.5 -9.5zM288 384q-13 0 -22.5 9.5t-9.5 22.5v224q0 106 75 181t181 75t181 -75t75 -181v-224q0 -13 -9.5 -22.5t-22.5 -9.5h-32l96 -384h-576l96 384h-32zM554 256h-84l-7 -64h98zM576 64l-8 64h-112l-8 -64h128zM477 320h70l-3 64h-64z" />
    <glyph glyph-name="uniF6FB" unicode="pickaxe" vert-adv-y="90" 
d="M1014 61l-51 -51q-10 -10 -24.5 -10t-25.5 10l-744 745q-102 -129 -137 -307q-32 32 -32 96q0 158 95 285l-21 21q-10 10 -10 24.5t10 25.5l50 50q11 10 25.5 10t24.5 -10l21 -20q128 94 285 94q64 0 96 -32q-178 -35 -307 -137l745 -744q10 -11 10 -25.5t-10 -24.5z" />
    <glyph glyph-name="uniF6FC" unicode="cow" vert-adv-y="90" 
d="M822 516q-17 -101 -43 -152q-3 -13 -23 -53.5t-36 -88.5t-16 -94q0 -67 -42.5 -97.5t-149.5 -30.5t-149.5 30.5t-42.5 97.5q0 46 -16 94t-36 88.5t-23 53.5q-26 51 -43 152q-12 -3 -25 -3.5t-29.5 0.5t-28 2t-31.5 5t-28.5 5.5t-31.5 6.5t-28 6q22 30 33.5 43.5t32.5 30
t46.5 22.5t60.5 6q5 0 20 -3q1 30 9 53q-11 37 -10 72q0 26 0.5 40.5t4 43.5t11.5 50t21.5 46.5t36.5 46t54 35.5q-37 -73 -37 -131q0 -50 17 -97q78 36 212 36t212 -36q17 47 17 97q0 58 -37 131q31 -15 54 -35.5t36.5 -46t21.5 -46.5t11.5 -50t4 -43.5t0.5 -40.5
q1 -34 -10 -72q8 -23 9 -53q15 3 20 3q35 0 60.5 -6t46.5 -22.5t32.5 -30t33.5 -43.5q-5 -1 -28 -6t-31.5 -6.5t-28.5 -5.5t-31.5 -5t-28 -2t-29.5 -0.5t-25 3.5zM512 704q-79 0 -135.5 -29.5t-56.5 -71.5q0 -33 18.5 -71t53.5 -56q12 -6 18.5 -12t17 -21.5t15.5 -46.5
t5 -76q0 -43 -10 -75t-22 -47t-22 -36.5t-10 -46.5q0 -23 43 -37t85 -14t85 14t43 37q0 25 -10 46.5t-22 36.5t-22 47t-10 75q0 45 5.5 76t16 47t17 21.5t17.5 11.5q34 18 53 56.5t19 70.5q0 42 -56.5 71.5t-135.5 29.5z" />
    <glyph glyph-name="uniF6FD" unicode="sheep" vert-adv-y="90" 
d="M1024 448q-27 -1 -90 0t-104 9q-5 -101 -30 -201q-10 -42 -23.5 -76t-36.5 -69t-53 -58t-74.5 -38t-100.5 -15t-100.5 15t-74.5 38t-53 58t-36.5 69t-23.5 76q-25 100 -30 201q-41 -8 -104 -9t-90 0q13 35 21.5 52.5t23.5 39.5t37 36t53 23q-7 22 -7 41q0 36 18 65.5
t48 45.5q-2 13 -2 17q0 53 37.5 90.5t90.5 37.5q4 0 17 -1q17 30 46.5 47.5t64.5 17.5q57 0 96 -44q39 44 96 44q53 0 90.5 -37.5t37.5 -90.5v-1v-2q55 -11 91.5 -55t36.5 -102q0 -36 -16 -70q27 -7 48.5 -19t34.5 -23.5t25.5 -32.5t18.5 -35.5t17 -43.5zM736 768
q-37 0 -44 27q12 17 12 37q0 27 -18.5 45.5t-45 18.5t-45.5 -18.5t-19 -45.5q-34 0 -65 -9q1 7 1 9q0 27 -18.5 45.5t-45.5 18.5t-45.5 -18.5t-18.5 -45.5v-64q0 27 -19 45.5t-45.5 18.5t-45 -18.5t-18.5 -45.5q0 -19 11 -35t28 -24q-2 -6 -4 -15q-16 10 -35 10
q-27 0 -45.5 -18.5t-18.5 -45t18.5 -45.5t45.5 -19q37 0 56 34q29 -34 72 -34q25 0 48 14q23 -14 48 -14q37 0 66.5 22t29.5 42q0 -24 28.5 -44t67.5 -20q16 0 32 6q17 -6 32 -6q40 0 68 28.5t28 68t-28 67.5t-68 28z" />
    <glyph glyph-name="uniF6FE" unicode="fountain" vert-adv-y="90" 
d="M992 448h-32q0 -80 -79 -145t-205 -93q-50 -25 -75 -43.5t-25 -38.5q0 -27 18.5 -45.5t45.5 -18.5h32q13 0 22.5 -9.5t9.5 -22.5t-9.5 -22.5t-22.5 -9.5h-320q-13 0 -22.5 9.5t-9.5 22.5t9.5 22.5t22.5 9.5h32q26 0 45 19t19 45q0 20 -25 38.5t-75 43.5q-126 28 -205 93
t-79 145h-32q-13 0 -22.5 9.5t-9.5 22.5t9.5 22.5t22.5 9.5h416v128q0 27 19 45.5t45.5 18.5t45 -18.5t18.5 -45.5v-128h416q13 0 22.5 -9.5t9.5 -22.5t-9.5 -22.5t-22.5 -9.5zM928 640q-13 0 -22.5 9.5t-9.5 22.5t9.5 22.5t22.5 9.5t22.5 -9.5t9.5 -22.5t-9.5 -22.5
t-22.5 -9.5zM928 768q-13 0 -22.5 9.5t-9.5 22.5t9.5 22.5t22.5 9.5t22.5 -9.5t9.5 -22.5t-9.5 -22.5t-22.5 -9.5zM864 896q-13 0 -22.5 9.5t-9.5 22.5t9.5 22.5t22.5 9.5t22.5 -9.5t9.5 -22.5t-9.5 -22.5t-22.5 -9.5zM736 960q-13 0 -22.5 9.5t-9.5 22.5t9.5 22.5t22.5 9.5
t22.5 -9.5t9.5 -22.5t-9.5 -22.5t-22.5 -9.5zM608 896q-13 0 -22.5 9.5t-9.5 22.5t9.5 22.5t22.5 9.5t22.5 -9.5t9.5 -22.5t-9.5 -22.5t-22.5 -9.5zM480 768q13 0 22.5 -9.5t9.5 -22.5t-9.5 -22.5t-22.5 -9.5t-22.5 9.5t-9.5 22.5t9.5 22.5t22.5 9.5zM544 768
q13 0 22.5 -9.5t9.5 -22.5t-9.5 -22.5t-22.5 -9.5t-22.5 9.5t-9.5 22.5t9.5 22.5t22.5 9.5zM544 832q-13 0 -22.5 9.5t-9.5 22.5t9.5 22.5t22.5 9.5t22.5 -9.5t9.5 -22.5t-9.5 -22.5t-22.5 -9.5zM480 832q-13 0 -22.5 9.5t-9.5 22.5t9.5 22.5t22.5 9.5t22.5 -9.5t9.5 -22.5
t-9.5 -22.5t-22.5 -9.5zM416 896q-13 0 -22.5 9.5t-9.5 22.5t9.5 22.5t22.5 9.5t22.5 -9.5t9.5 -22.5t-9.5 -22.5t-22.5 -9.5zM288 960q-13 0 -22.5 9.5t-9.5 22.5t9.5 22.5t22.5 9.5t22.5 -9.5t9.5 -22.5t-9.5 -22.5t-22.5 -9.5zM160 896q-13 0 -22.5 9.5t-9.5 22.5
t9.5 22.5t22.5 9.5t22.5 -9.5t9.5 -22.5t-9.5 -22.5t-22.5 -9.5zM96 704q13 0 22.5 -9.5t9.5 -22.5t-9.5 -22.5t-22.5 -9.5t-22.5 9.5t-9.5 22.5t9.5 22.5t22.5 9.5zM96 768q-13 0 -22.5 9.5t-9.5 22.5t9.5 22.5t22.5 9.5t22.5 -9.5t9.5 -22.5t-9.5 -22.5t-22.5 -9.5z" />
    <glyph glyph-name="uniF6FF" unicode="circle&#x7a;ero" vert-adv-y="90" 
d="M512 0q-104 0 -199 40.5t-163.5 109t-109 163.5t-40.5 199t40.5 199t109 163.5t163.5 109t199 40.5t199 -40.5t163.5 -109t109 -163.5t40.5 -199t-40.5 -199t-109 -163.5t-163.5 -109t-199 -40.5zM704 640q0 53 -37.5 90.5t-90.5 37.5h-128q-53 0 -90.5 -37.5
t-37.5 -90.5v-256q0 -53 37.5 -90.5t90.5 -37.5h128q53 0 90.5 37.5t37.5 90.5v256zM448 704h128q27 0 45.5 -19t18.5 -45v-234l-212 294q11 4 20 4zM576 320h-128q-26 0 -45 18.5t-19 45.5v256q0 2 1 8l228 -316q-17 -12 -37 -12z" />
    <glyph glyph-name="uniF700" unicode="circleone" vert-adv-y="90" 
d="M512 0q-104 0 -199 40.5t-163.5 109t-109 163.5t-40.5 199t40.5 199t109 163.5t163.5 109t199 40.5t199 -40.5t163.5 -109t109 -163.5t40.5 -199t-40.5 -199t-109 -163.5t-163.5 -109t-199 -40.5zM608 320h-32v320q0 65 -42.5 96.5t-117.5 31.5v0q-13 0 -22.5 -9.5
t-9.5 -22.5t9.5 -22.5t22.5 -9.5h1q43 0 69 -18.5t26 -45.5v-320h-96q-13 0 -22.5 -9.5t-9.5 -22.5t9.5 -22.5t22.5 -9.5h192q13 0 22.5 9.5t9.5 22.5t-9.5 22.5t-22.5 9.5z" />
    <glyph glyph-name="uniF701" unicode="circletwo" vert-adv-y="90" 
d="M512 0q-104 0 -199 40.5t-163.5 109t-109 163.5t-40.5 199t40.5 199t109 163.5t163.5 109t199 40.5t199 -40.5t163.5 -109t109 -163.5t40.5 -199t-40.5 -199t-109 -163.5t-163.5 -109t-199 -40.5zM448 448h128q53 0 90.5 37.5t37.5 90.5v64q0 53 -37.5 90.5t-90.5 37.5
h-128q-53 0 -90.5 -37.5t-37.5 -90.5q0 -13 9.5 -22.5t22.5 -9.5t22.5 9.5t9.5 22.5q0 26 18.5 45t45.5 19h128q27 0 45.5 -19t18.5 -45v-64q0 -27 -18.5 -45.5t-45.5 -18.5h-128q-53 0 -90.5 -37.5t-37.5 -90.5v-96q0 -13 9.5 -22.5t22.5 -9.5h320q13 0 22.5 9.5t9.5 22.5
t-9.5 22.5t-22.5 9.5h-272q-7 0 -11.5 4.5t-4.5 11.5v48q0 26 18.5 45t45.5 19z" />
    <glyph glyph-name="uniF702" unicode="circlethree" vert-adv-y="90" 
d="M512 0q-104 0 -199 40.5t-163.5 109t-109 163.5t-40.5 199t40.5 199t109 163.5t163.5 109t199 40.5t199 -40.5t163.5 -109t109 -163.5t40.5 -199t-40.5 -199t-109 -163.5t-163.5 -109t-199 -40.5zM704 448q0 57 -44 96q44 38 44 96q0 53 -37.5 90.5t-90.5 37.5h-128
q-53 0 -90.5 -37.5t-37.5 -90.5q0 -13 9.5 -22.5t22.5 -9.5t22.5 9.5t9.5 22.5q0 26 18.5 45t45.5 19h128q26 0 45 -19t19 -45.5t-19 -45t-45 -18.5h-32q-13 0 -22.5 -9.5t-9.5 -22.5t9.5 -22.5t22.5 -9.5h32q26 0 45 -19t19 -45v-64q0 -27 -19 -45.5t-45 -18.5h-128
q-27 0 -45.5 18.5t-18.5 45.5q0 13 -9.5 22.5t-22.5 9.5t-22.5 -9.5t-9.5 -22.5q0 -53 37.5 -90.5t90.5 -37.5h128q53 0 90.5 37.5t37.5 90.5v64z" />
    <glyph glyph-name="uniF703" unicode="circlefour" vert-adv-y="90" 
d="M512 0q-139 0 -257 68.5t-186.5 186.5t-68.5 257t68.5 257t186.5 186.5t257 68.5t257 -68.5t186.5 -186.5t68.5 -257t-68.5 -257t-186.5 -186.5t-257 -68.5zM704 736q0 13 -9.5 22.5t-22.5 9.5t-22.5 -9.5t-9.5 -22.5v-160q0 -27 -18.5 -45.5t-45.5 -18.5h-128
q-26 0 -45 18.5t-19 45.5v160q0 13 -9.5 22.5t-22.5 9.5t-22.5 -9.5t-9.5 -22.5v-160q0 -53 37.5 -90.5t90.5 -37.5h128q34 0 64 17v-177q0 -13 9.5 -22.5t22.5 -9.5t22.5 9.5t9.5 22.5v448z" />
    <glyph glyph-name="uniF704" unicode="circlefive" vert-adv-y="90" 
d="M512 0q-104 0 -199 40.5t-163.5 109t-109 163.5t-40.5 199t40.5 199t109 163.5t163.5 109t199 40.5t199 -40.5t163.5 -109t109 -163.5t40.5 -199t-40.5 -199t-109 -163.5t-163.5 -109t-199 -40.5zM704 448q0 53 -37.5 90.5t-90.5 37.5h-176q-7 0 -11.5 4.5t-4.5 11.5v96
q0 6 4.5 11t11.5 5h272q13 0 22.5 9.5t9.5 22.5t-9.5 22.5t-22.5 9.5h-320q-13 0 -22.5 -9.5t-9.5 -22.5v-160q0 -27 18.5 -45.5t45.5 -18.5h192q27 0 45.5 -19t18.5 -45v-64q0 -27 -18.5 -45.5t-45.5 -18.5h-128q-27 0 -45.5 18.5t-18.5 45.5q0 13 -9.5 22.5t-22.5 9.5
t-22.5 -9.5t-9.5 -22.5q0 -53 37.5 -90.5t90.5 -37.5h128q53 0 90.5 37.5t37.5 90.5v64z" />
    <glyph glyph-name="uniF705" unicode="circlesix" vert-adv-y="90" 
d="M512 0q-104 0 -199 40.5t-163.5 109t-109 163.5t-40.5 199t40.5 199t109 163.5t163.5 109t199 40.5t199 -40.5t163.5 -109t109 -163.5t40.5 -199t-40.5 -199t-109 -163.5t-163.5 -109t-199 -40.5zM704 448q0 53 -37.5 90.5t-90.5 37.5h-128q-34 0 -64 -17v81
q0 26 18.5 45t45.5 19h128q26 0 45 -19t19 -45q0 -13 9.5 -22.5t22.5 -9.5t22.5 9.5t9.5 22.5q0 53 -37.5 90.5t-90.5 37.5h-128q-53 0 -90.5 -37.5t-37.5 -90.5v-256q0 -53 37.5 -90.5t90.5 -37.5h128q53 0 90.5 37.5t37.5 90.5v64zM576 320h-128q-27 0 -45.5 18.5
t-18.5 45.5v64q0 26 18.5 45t45.5 19h128q26 0 45 -19t19 -45v-64q0 -27 -19 -45.5t-45 -18.5z" />
    <glyph glyph-name="uniF706" unicode="circleseven" vert-adv-y="90" 
d="M512 0q-104 0 -199 40.5t-163.5 109t-109 163.5t-40.5 199t40.5 199t109 163.5t163.5 109t199 40.5t199 -40.5t163.5 -109t109 -163.5t40.5 -199t-40.5 -199t-109 -163.5t-163.5 -109t-199 -40.5zM576 768h-224q-13 0 -22.5 -9.5t-9.5 -22.5t9.5 -22.5t22.5 -9.5h224
q27 0 45.5 -19t18.5 -45q4 -43 -16 -80q-28 -52 -128 -240q-16 -22 -16 -32q0 -12 10 -22t22 -10q13 0 22.5 9.5t9.5 22.5l144 272q16 30 16 80q0 53 -37.5 90.5t-90.5 37.5z" />
    <glyph glyph-name="uniF707" unicode="circleeight" vert-adv-y="90" 
d="M512 0q-104 0 -199 40.5t-163.5 109t-109 163.5t-40.5 199t40.5 199t109 163.5t163.5 109t199 40.5t199 -40.5t163.5 -109t109 -163.5t40.5 -199t-40.5 -199t-109 -163.5t-163.5 -109t-199 -40.5zM704 448q0 57 -43 96q43 38 43 96q0 53 -37.5 90.5t-90.5 37.5h-128
q-53 0 -90.5 -37.5t-37.5 -90.5q0 -58 43 -96q-43 -39 -43 -96v-64q0 -53 37.5 -90.5t90.5 -37.5h128q53 0 90.5 37.5t37.5 90.5v64zM576 320h-128q-27 0 -45.5 18.5t-18.5 45.5v64q0 26 18.5 45t45.5 19h128q27 0 45.5 -19t18.5 -45v-64q0 -27 -18.5 -45.5t-45.5 -18.5z
M576 576h-128q-27 0 -45.5 18.5t-18.5 45t18.5 45.5t45.5 19h128q27 0 45.5 -19t18.5 -45.5t-18.5 -45t-45.5 -18.5z" />
    <glyph glyph-name="uniF708" unicode="circlenine" vert-adv-y="90" 
d="M512 0q-139 0 -257 68.5t-186.5 186.5t-68.5 257t68.5 257t186.5 186.5t257 68.5t257 -68.5t186.5 -186.5t68.5 -257t-68.5 -257t-186.5 -186.5t-257 -68.5zM704 640q0 53 -37.5 90.5t-90.5 37.5h-128q-53 0 -90.5 -37.5t-37.5 -90.5v-64q0 -53 37.5 -90.5t90.5 -37.5
h128q34 0 64 17v-81q0 -26 -18.5 -45t-45.5 -19h-128q-26 0 -45 19t-19 45q0 13 -9.5 22.5t-22.5 9.5t-22.5 -9.5t-9.5 -22.5q0 -53 37.5 -90.5t90.5 -37.5h128q53 0 90.5 37.5t37.5 90.5v256zM576 512h-128q-26 0 -45 19t-19 45v64q0 27 19 45.5t45 18.5h128
q27 0 45.5 -18.5t18.5 -45.5v-64q0 -26 -18.5 -45t-45.5 -19z" />
    <glyph glyph-name="uniF709" unicode="circlea" vert-adv-y="90" 
d="M512 0q-104 0 -199 40.5t-163.5 109t-109 163.5t-40.5 199t40.5 199t109 163.5t163.5 109t199 40.5t199 -40.5t163.5 -109t109 -163.5t40.5 -199t-40.5 -199t-109 -163.5t-163.5 -109t-199 -40.5zM704 640q0 53 -37.5 90.5t-90.5 37.5h-128q-53 0 -90.5 -37.5
t-37.5 -90.5v-352q0 -13 9.5 -22.5t22.5 -9.5t22.5 9.5t9.5 22.5v144q0 6 4.5 11t11.5 5h224q7 0 11.5 -5t4.5 -11v-144q0 -13 9.5 -22.5t22.5 -9.5t22.5 9.5t9.5 22.5v352zM624 512h-224q-7 0 -11.5 4.5t-4.5 11.5v112q0 26 19 45t45 19h128q27 0 45.5 -19t18.5 -45v-112
q0 -7 -4.5 -11.5t-11.5 -4.5z" />
    <glyph glyph-name="uniF70A" unicode="circleb" vert-adv-y="90" 
d="M512 0q-139 0 -257 68.5t-186.5 186.5t-68.5 257t68.5 257t186.5 186.5t257 68.5t257 -68.5t186.5 -186.5t68.5 -257t-68.5 -257t-186.5 -186.5t-257 -68.5zM704 448q0 57 -44 96q44 38 44 96q0 53 -37.5 90.5t-90.5 37.5h-224q-13 0 -22.5 -9.5t-9.5 -22.5v-448
q0 -13 9.5 -22.5t22.5 -9.5h224q53 0 90.5 37.5t37.5 90.5v64zM576 320h-176q-7 0 -11.5 4.5t-4.5 11.5v160q0 6 4.5 11t11.5 5h176q26 0 45 -19t19 -45v-64q0 -27 -19 -45.5t-45 -18.5zM576 576h-176q-7 0 -11.5 4.5t-4.5 11.5v96q0 6 4.5 11t11.5 5h176q26 0 45 -19
t19 -45.5t-19 -45t-45 -18.5z" />
    <glyph glyph-name="uniF70B" unicode="circlec" vert-adv-y="90" 
d="M512 0q-139 0 -257 68.5t-186.5 186.5t-68.5 257t68.5 257t186.5 186.5t257 68.5t257 -68.5t186.5 -186.5t68.5 -257t-68.5 -257t-186.5 -186.5t-257 -68.5zM448 704h128q26 0 45 -19t19 -45q0 -13 9.5 -22.5t22.5 -9.5t22.5 9.5t9.5 22.5q0 53 -37.5 90.5t-90.5 37.5
h-128q-54 0 -91.5 -37.5t-37.5 -90.5v-256q0 -53 38 -90.5t91 -37.5h128q53 0 90.5 37.5t37.5 90.5q0 13 -9.5 22.5t-22.5 9.5t-22.5 -9.5t-9.5 -22.5q0 -27 -19 -45.5t-45 -18.5h-128q-27 0 -46 18.5t-19 45.5v256q0 26 19 45t46 19z" />
    <glyph glyph-name="uniF70C" unicode="circled" vert-adv-y="90" 
d="M512 0q-104 0 -199 40.5t-163.5 109t-109 163.5t-40.5 199t40.5 199t109 163.5t163.5 109t199 40.5t199 -40.5t163.5 -109t109 -163.5t40.5 -199t-40.5 -199t-109 -163.5t-163.5 -109t-199 -40.5zM703 640q0 53 -37.5 90.5t-90.5 37.5h-223q-14 0 -23 -9.5t-9 -22.5v-448
q0 -13 9 -22.5t23 -9.5h223q53 0 90.5 37.5t37.5 90.5v256zM575 320h-175q-7 0 -11.5 4.5t-4.5 11.5v352q0 6 4.5 11t11.5 5h175q27 0 45.5 -19t18.5 -45v-256q0 -27 -18.5 -45.5t-45.5 -18.5z" />
    <glyph glyph-name="uniF70D" unicode="circlee" vert-adv-y="90" 
d="M512 0q-104 0 -199 40.5t-163.5 109t-109 163.5t-40.5 199t40.5 199t109 163.5t163.5 109t199 40.5t199 -40.5t163.5 -109t109 -163.5t40.5 -199t-40.5 -199t-109 -163.5t-163.5 -109t-199 -40.5zM400 512h208q13 0 22.5 9.5t9.5 22.5t-9.5 22.5t-22.5 9.5h-208
q-7 0 -11.5 4.5t-4.5 11.5v96q0 7 4.5 11.5t11.5 4.5h272q13 0 22.5 9.5t9.5 22.5t-9.5 22.5t-22.5 9.5h-320q-14 0 -23 -9.5t-9 -22.5v-448q0 -13 9 -22.5t23 -9.5h320q13 0 22.5 9.5t9.5 22.5t-9.5 22.5t-22.5 9.5h-272q-7 0 -11.5 4.5t-4.5 11.5v160q0 6 4.5 11t11.5 5z
" />
    <glyph glyph-name="uniF70E" unicode="circlef" vert-adv-y="90" 
d="M512 0q-104 0 -199 40.5t-163.5 109t-109 163.5t-40.5 199t40.5 199t109 163.5t163.5 109t199 40.5t199 -40.5t163.5 -109t109 -163.5t40.5 -199t-40.5 -199t-109 -163.5t-163.5 -109t-199 -40.5zM672 768h-321q-13 0 -22.5 -9.5t-9.5 -22.5v-448q0 -13 9.5 -22.5
t23 -9.5t22.5 9.5t9 22.5v208q0 6 5 11t11 5h209q13 0 22.5 9.5t9.5 22.5t-9.5 22.5t-22.5 9.5h-209q-6 0 -11 4.5t-5 11.5v96q0 6 5 11t11 5h273q13 0 22.5 9.5t9.5 22.5t-9.5 22.5t-22.5 9.5z" />
    <glyph glyph-name="uniF70F" unicode="circleg" vert-adv-y="90" 
d="M512 0q-104 0 -199 40.5t-163.5 109t-109 163.5t-40.5 199t40.5 199t109 163.5t163.5 109t199 40.5t199 -40.5t163.5 -109t109 -163.5t40.5 -199t-40.5 -199t-109 -163.5t-163.5 -109t-199 -40.5zM703 480q0 13 -9 22.5t-23 9.5h-128q-13 0 -22.5 -9.5t-9.5 -22.5
t9.5 -22.5t22.5 -9.5h96v-64q0 -27 -18.5 -45.5t-45.5 -18.5h-128q-26 0 -44.5 18.5t-18.5 45.5v256q0 26 18.5 45t44.5 19h128q27 0 45.5 -19t18.5 -45q0 -13 9.5 -22.5t23 -9.5t22.5 9.5t9 22.5q0 53 -37.5 90.5t-90.5 37.5h-128q-53 0 -90 -37.5t-37 -90.5v-256
q0 -53 37 -90.5t90 -37.5h128q53 0 90.5 37.5t37.5 90.5v96z" />
    <glyph glyph-name="uniF710" unicode="circleh" vert-adv-y="90" 
d="M512 0q-104 0 -199 40.5t-163.5 109t-109 163.5t-40.5 199t40.5 199t109 163.5t163.5 109t199 40.5t199 -40.5t163.5 -109t109 -163.5t40.5 -199t-40.5 -199t-109 -163.5t-163.5 -109t-199 -40.5zM704 736q0 13 -9.5 22.5t-22.5 9.5t-22.5 -9.5t-9.5 -22.5v-208
q0 -7 -5 -11.5t-11 -4.5h-225q-6 0 -11 4.5t-5 11.5v208q0 13 -9 22.5t-22.5 9.5t-23 -9.5t-9.5 -22.5v-448q0 -13 9.5 -22.5t23 -9.5t22.5 9.5t9 22.5v144q0 6 5 11t11 5h225q6 0 11 -5t5 -11v-144q0 -13 9.5 -22.5t22.5 -9.5t22.5 9.5t9.5 22.5v448z" />
    <glyph glyph-name="uniF711" unicode="circlei" vert-adv-y="90" 
d="M512 0q-104 0 -199 40.5t-163.5 109t-109 163.5t-40.5 199t40.5 199t109 163.5t163.5 109t199 40.5t199 -40.5t163.5 -109t109 -163.5t40.5 -199t-40.5 -199t-109 -163.5t-163.5 -109t-199 -40.5zM544 704q13 0 22.5 9.5t9.5 22.5t-9.5 22.5t-22.5 9.5h-128
q-13 0 -22.5 -9.5t-9.5 -22.5t9.5 -22.5t22.5 -9.5h32v-384h-32q-13 0 -22.5 -9.5t-9.5 -22.5t9.5 -22.5t22.5 -9.5h128q13 0 22.5 9.5t9.5 22.5t-9.5 22.5t-22.5 9.5h-32v384h32z" />
    <glyph glyph-name="uniF712" unicode="circlej" vert-adv-y="90" 
d="M512 0q-104 0 -199 40.5t-163.5 109t-109 163.5t-40.5 199t40.5 199t109 163.5t163.5 109t199 40.5t199 -40.5t163.5 -109t109 -163.5t40.5 -199t-40.5 -199t-109 -163.5t-163.5 -109t-199 -40.5zM672 768q-13 0 -22.5 -9.5t-9.5 -22.5v-352q0 -27 -19 -45.5t-45 -18.5
h-128q-27 0 -45.5 18.5t-18.5 45.5q0 13 -9.5 22.5t-22.5 9.5t-22.5 -9.5t-9.5 -22.5q0 -53 37.5 -90.5t90.5 -37.5h128q53 0 90.5 37.5t37.5 90.5v352q0 13 -9.5 22.5t-22.5 9.5z" />
    <glyph glyph-name="uniF713" unicode="circlek" vert-adv-y="90" 
d="M512 0q-104 0 -199 40.5t-163.5 109t-109 163.5t-40.5 199t40.5 199t109 163.5t163.5 109t199 40.5t199 -40.5t163.5 -109t109 -163.5t40.5 -199t-40.5 -199t-109 -163.5t-163.5 -109t-199 -40.5zM704 448q0 58 -43 96q43 38 43 96v96q0 13 -9 22.5t-22.5 9.5t-23 -9.5
t-9.5 -22.5v-96q0 -27 -18.5 -45.5t-45.5 -18.5h-192v160q0 13 -9.5 22.5t-22.5 9.5t-22.5 -9.5t-9.5 -22.5v-448q0 -13 9.5 -22.5t22.5 -9.5t22.5 9.5t9.5 22.5v224h192q27 0 45.5 -19t18.5 -45v-160q0 -13 9.5 -22.5t23 -9.5t22.5 9.5t9 22.5v160z" />
    <glyph glyph-name="uniF714" unicode="circlel" vert-adv-y="90" 
d="M512 0q-104 0 -199 40.5t-163.5 109t-109 163.5t-40.5 199t40.5 199t109 163.5t163.5 109t199 40.5t199 -40.5t163.5 -109t109 -163.5t40.5 -199t-40.5 -199t-109 -163.5t-163.5 -109t-199 -40.5zM672 320h-288v416q0 13 -9 22.5t-22.5 9.5t-23 -9.5t-9.5 -22.5v-448
q0 -13 9.5 -22.5t22.5 -9.5h320q13 0 22.5 9.5t9.5 22.5t-9.5 22.5t-22.5 9.5z" />
    <glyph glyph-name="uniF715" unicode="circlem" vert-adv-y="90" 
d="M512 0q-104 0 -199 40.5t-163.5 109t-109 163.5t-40.5 199t40.5 199t109 163.5t163.5 109t199 40.5t199 -40.5t163.5 -109t109 -163.5t40.5 -199t-40.5 -199t-109 -163.5t-163.5 -109t-199 -40.5zM704 735q0 14 -10 23.5t-22 9.5q-16 0 -27 -16l-133 -186l-132 186
q-12 16 -28 16q-13 0 -22.5 -9.5t-9.5 -23.5v-447q0 -13 9.5 -22.5t22.5 -9.5t22.5 9.5t9.5 22.5v348l100 -140q11 -15 28 -15q16 0 28 15l100 140v-348q0 -13 9.5 -22.5t22.5 -9.5t22.5 9.5t9.5 22.5v447z" />
    <glyph glyph-name="uniF716" unicode="circlen" vert-adv-y="90" 
d="M512 0q-104 0 -199 40.5t-163.5 109t-109 163.5t-40.5 199t40.5 199t109 163.5t163.5 109t199 40.5t199 -40.5t163.5 -109t109 -163.5t40.5 -199t-40.5 -199t-109 -163.5t-163.5 -109t-199 -40.5zM704 736q0 13 -9.5 22.5t-22.5 9.5t-22.5 -9.5t-9.5 -22.5v-349l-260 365
q-12 16 -28 16q-11 0 -21.5 -9t-10.5 -24v-447q0 -13 9.5 -22.5t22.5 -9.5t22.5 9.5t9.5 22.5v349l260 -365q12 -16 28 -16t24 9.5t8 22.5v448z" />
    <glyph glyph-name="uniF717" unicode="circleo" vert-adv-y="90" 
d="M512 0q-104 0 -199 40.5t-163.5 109t-109 163.5t-40.5 199t40.5 199t109 163.5t163.5 109t199 40.5t199 -40.5t163.5 -109t109 -163.5t40.5 -199t-40.5 -199t-109 -163.5t-163.5 -109t-199 -40.5zM704 640q0 53 -37.5 90.5t-90.5 37.5h-128q-53 0 -90.5 -37.5
t-37.5 -90.5v-256q0 -53 37.5 -90.5t90.5 -37.5h128q53 0 90.5 37.5t37.5 90.5v256zM576 320h-128q-27 0 -45.5 18.5t-18.5 45.5v256q0 26 19 45t45 19h128q26 0 45 -19t19 -45v-256q0 -27 -19 -45.5t-45 -18.5z" />
    <glyph glyph-name="uniF718" unicode="circlep" vert-adv-y="90" 
d="M512 0q-104 0 -199 40.5t-163.5 109t-109 163.5t-40.5 199t40.5 199t109 163.5t163.5 109t199 40.5t199 -40.5t163.5 -109t109 -163.5t40.5 -199t-40.5 -199t-109 -163.5t-163.5 -109t-199 -40.5zM704 640q0 53 -37.5 90.5t-90.5 37.5h-224v0q-13 0 -22.5 -9.5
t-9.5 -22.5v-448q0 -13 9.5 -22.5t22.5 -9.5t22.5 9.5t9.5 22.5v160h192q53 0 90.5 37.5t37.5 90.5v64zM576 512h-192v192h192q27 0 45.5 -19t18.5 -45v-64q0 -27 -18.5 -45.5t-45.5 -18.5z" />
    <glyph glyph-name="uniF719" unicode="circleq" vert-adv-y="90" 
d="M512 0q-104 0 -199 40.5t-163.5 109t-109 163.5t-40.5 199t40.5 199t109 163.5t163.5 109t199 40.5t199 -40.5t163.5 -109t109 -163.5t40.5 -199t-40.5 -199t-109 -163.5t-163.5 -109t-199 -40.5zM704 384v256q0 53 -37.5 90.5t-90.5 37.5h-128q-53 0 -90.5 -37.5
t-37.5 -90.5v-256q0 -53 37.5 -90.5t90.5 -37.5h128q35 0 66 18l9 -9q9 -9 22 -9t22 9t9 21.5t-9 22.5l-9 9q18 31 18 66zM564 439q-9 9 -21.5 9t-21.5 -9t-9 -21.5t9 -21.5l73 -73q-10 -3 -18 -3h-128q-26 0 -45 18.5t-19 45.5v256q0 26 19 45t45 19h128q26 0 45 -19
t19 -45v-256q0 -8 -3 -18z" />
    <glyph glyph-name="uniF71A" unicode="circler" vert-adv-y="90" 
d="M512 0q-139 0 -257 68.5t-186.5 186.5t-68.5 257t68.5 257t186.5 186.5t257 68.5t257 -68.5t186.5 -186.5t68.5 -257t-68.5 -257t-186.5 -186.5t-257 -68.5zM704 640q0 53 -37.5 90.5t-90.5 37.5h-224v0q-13 0 -22.5 -9.5t-9.5 -22.5v-448q0 -13 9.5 -22.5t22.5 -9.5
t22.5 9.5t9.5 22.5v160h192q27 0 45.5 -19t18.5 -45v-96q0 -13 9.5 -22.5t22.5 -9.5t22.5 9.5t9.5 22.5v96q0 58 -43 96q43 38 43 96v64zM576 512h-192v192h192q27 0 45.5 -19t18.5 -45v-64q0 -27 -18.5 -45.5t-45.5 -18.5z" />
    <glyph glyph-name="uniF71B" unicode="circles" vert-adv-y="90" 
d="M512 0q-139 0 -257 68.5t-186.5 186.5t-68.5 257t68.5 257t186.5 186.5t257 68.5t257 -68.5t186.5 -186.5t68.5 -257t-68.5 -257t-186.5 -186.5t-257 -68.5zM576 768h-128q-53 0 -90.5 -37.5t-37.5 -90.5t37.5 -90.5t90.5 -37.5h128q26 0 45 -19t19 -45v-64
q0 -27 -19 -45.5t-45 -18.5h-128q-26 0 -45 18.5t-19 45.5q0 13 -9.5 22.5t-22.5 9.5t-22.5 -9.5t-9.5 -22.5q0 -53 37.5 -90.5t90.5 -37.5h128q53 0 90.5 37.5t37.5 90.5v64q0 53 -37.5 90.5t-90.5 37.5h-128q-26 0 -45 18.5t-19 45t19 45.5t45 19h128q27 0 45.5 -19
t18.5 -45q0 -13 9.5 -22.5t22.5 -9.5t22.5 9.5t9.5 22.5q0 53 -37.5 90.5t-90.5 37.5z" />
    <glyph glyph-name="uniF71C" unicode="circlet" vert-adv-y="90" 
d="M512 0q-104 0 -199 40.5t-163.5 109t-109 163.5t-40.5 199t40.5 199t109 163.5t163.5 109t199 40.5t199 -40.5t163.5 -109t109 -163.5t40.5 -199t-40.5 -199t-109 -163.5t-163.5 -109t-199 -40.5zM608 768h-256q-13 0 -22.5 -9.5t-9.5 -22.5t9.5 -22.5t22.5 -9.5h96v-416
q0 -13 9.5 -22.5t22.5 -9.5t22.5 9.5t9.5 22.5v416h96q13 0 22.5 9.5t9.5 22.5t-9.5 22.5t-22.5 9.5z" />
    <glyph glyph-name="uniF71D" unicode="circleu" vert-adv-y="90" 
d="M512 0q-104 0 -199 40.5t-163.5 109t-109 163.5t-40.5 199t40.5 199t109 163.5t163.5 109t199 40.5t199 -40.5t163.5 -109t109 -163.5t40.5 -199t-40.5 -199t-109 -163.5t-163.5 -109t-199 -40.5zM704 736q0 13 -9 22.5t-22.5 9.5t-23 -9.5t-9.5 -22.5v-352
q0 -27 -19 -45.5t-45 -18.5h-128q-26 0 -45 19t-19 45v352q0 13 -9 22.5t-22.5 9.5t-23 -9.5t-9.5 -22.5v-352q0 -53 37.5 -90.5t90.5 -37.5h128q53 0 90.5 37.5t37.5 90.5v352z" />
    <glyph glyph-name="uniF71E" unicode="circlev" vert-adv-y="90" 
d="M512 0q-104 0 -199 40.5t-163.5 109t-109 163.5t-40.5 199t40.5 199t109 163.5t163.5 109t199 40.5t199 -40.5t163.5 -109t109 -163.5t40.5 -199t-40.5 -199t-109 -163.5t-163.5 -109t-199 -40.5zM704 736q0 13 -9 22.5t-22.5 9.5t-23 -9.5t-9.5 -22.5v-277l-128 -128
l-128 128v129v148q0 13 -9 22.5t-22.5 9.5t-23 -9.5t-9.5 -22.5v-288q0 -12 9 -20l155 -155q14 -17 28 -17q11 0 28 17l155 155q9 8 9 20v288z" />
    <glyph glyph-name="uniF71F" unicode="circlew" vert-adv-y="90" 
d="M512 0q-104 0 -199 40.5t-163.5 109t-109 163.5t-40.5 199t40.5 199t109 163.5t163.5 109t199 40.5t199 -40.5t163.5 -109t109 -163.5t40.5 -199t-40.5 -199t-109 -163.5t-163.5 -109t-199 -40.5zM704 736q0 13 -9 22.5t-22.5 9.5t-23 -9.5t-9.5 -22.5v-352
q0 -27 -18.5 -45.5t-45.5 -18.5h-48q-7 0 -11.5 4.5t-4.5 11.5v400q0 13 -9.5 22.5t-22.5 9.5t-22.5 -9.5t-9.5 -22.5v-400q0 -7 -4.5 -11.5t-11.5 -4.5h-48q-26 0 -45 19t-19 45v352q0 13 -9 22.5t-22.5 9.5t-23 -9.5t-9.5 -22.5v-352q0 -53 37.5 -90.5t90.5 -37.5h192
q53 0 90.5 37.5t37.5 90.5v352z" />
    <glyph glyph-name="uniF720" unicode="circlex" vert-adv-y="90" 
d="M512 0q-139 0 -257 68.5t-186.5 186.5t-68.5 257t68.5 257t186.5 186.5t257 68.5t257 -68.5t186.5 -186.5t68.5 -257t-68.5 -257t-186.5 -186.5t-257 -68.5zM693 713q11 11 11 23q0 13 -9.5 22.5t-22.5 9.5q-7 0 -15.5 -5.5t-12.5 -10.5l-132 -185l-133 185
q-11 16 -27 16q-15 0 -23.5 -10.5t-8.5 -21.5q0 -13 9 -23l144 -201l-144 -201q-9 -10 -9 -23q0 -11 8.5 -21.5t23.5 -10.5q16 0 27 16l133 185l132 -185q4 -5 12.5 -10.5t15.5 -5.5q13 0 22.5 9.5t9.5 22.5q0 12 -11 24l-142 200z" />
    <glyph glyph-name="uniF721" unicode="circle&#x7a;" vert-adv-y="90" 
d="M512 0q-104 0 -199 40.5t-163.5 109t-109 163.5t-40.5 199t40.5 199t109 163.5t163.5 109t199 40.5t199 -40.5t163.5 -109t109 -163.5t40.5 -199t-40.5 -199t-109 -163.5t-163.5 -109t-199 -40.5zM704 736q0 13 -9.5 22.5t-22.5 9.5t-22.5 -9.5t-9.5 -22.5v-160
q0 -27 -19 -45.5t-45 -18.5h-128q-26 0 -45 18.5t-19 45.5v160q0 13 -9.5 22.5t-22.5 9.5t-22.5 -9.5t-9.5 -22.5v-160q0 -53 37.5 -90.5t90.5 -37.5h128q34 0 64 17v-81q0 -27 -19 -45.5t-45 -18.5h-160v0q-13 0 -22.5 -9.5t-9.5 -22.5t9.5 -22.5t22.5 -9.5v0h160
q53 0 90.5 37.5t37.5 90.5v352z" />
    <glyph glyph-name="uniF722" unicode="circle&#x7a;" vert-adv-y="90" 
d="M512 0q-104 0 -199 40.5t-163.5 109t-109 163.5t-40.5 199t40.5 199t109 163.5t163.5 109t199 40.5t199 -40.5t163.5 -109t109 -163.5t40.5 -199t-40.5 -199t-109 -163.5t-163.5 -109t-199 -40.5zM696 714q8 13 8 22t-10 20.5t-22 11.5h-320q-13 0 -22.5 -9.5t-9.5 -22.5
t9.5 -22.5t22.5 -9.5h258l-280 -393q-10 -9 -10 -23q0 -13 9.5 -22.5t22.5 -9.5h320q13 0 22.5 9.5t9.5 22.5t-9.5 22.5t-22.5 9.5h-258z" />
    <glyph glyph-name="uniF723" unicode="creeper" vert-adv-y="90" 
d="M896 0h-768q-53 0 -90.5 37.5t-37.5 90.5v768q0 53 37.5 90.5t90.5 37.5h768q53 0 90.5 -37.5t37.5 -90.5v-768q0 -53 -37.5 -90.5t-90.5 -37.5zM896 832h-256v-256h-256v256h-256v-256h256v-128h-128v-256h128v128h256v-128h128v256h-128v128h256v256z" />
    <glyph glyph-name="uniF724" unicode="minecraft" vert-adv-y="90" 
d="M512 0l-512 256v512l512 256l512 -256v-512zM960 736l-448 224l-448 -224v-96h64v-64h64v64h64v-64h64v-64h64v64l64 -32v-96h64v64h64v-64h64v64h64v96l64 32v-64h64v96l64 32v-64h64v96zM256 640z" />
    <glyph glyph-name="uniF725" unicode="minecraftalt" vert-adv-y="90" 
d="M896 0h-768q-53 0 -90.5 37.5t-37.5 90.5v768q0 53 37.5 90.5t90.5 37.5h768q53 0 90.5 -37.5t37.5 -90.5v-768q0 -53 -37.5 -90.5t-90.5 -37.5zM896 960h-768q-26 0 -45 -18.5t-19 -45.5v-256h64v-128h128v256h128v128h128v-256h128v128h128v-128h128v128h64v128
q0 27 -18.5 45.5t-45.5 18.5z" />
    <glyph glyph-name="uniF726" unicode="pixelsword" vert-adv-y="90" 
d="M960 832v-64h-64v64h64v128h-128v-64h-64v64h64v64h192v-192h-64zM768 832h-64v64h64v-64zM704 832v-64h-64v64h64zM576 704v64h64v-64h-64zM512 640v64h64v-64h-64zM448 576v64h64v-64h-64zM384 512v64h64v-64h-64zM320 384v128h64v-128h-64zM320 320h64v-64h-64v-64
h-64v-64h-64v-128h-192v192h128v64h64v64h64v64h64v-64zM128 128h-64v-64h64v64zM384 384h128v-64h-128v64zM576 448v-64h-64v64h64zM640 512v-64h-64v64h64zM704 576v-64h-64v64h64zM768 640v-64h-64v64h64zM832 704v-64h-64v64h64zM576 320v-64h-64v64h64zM640 128h-128
v64h64v64h64v-128zM512 192h-128v64h128v-64zM192 384v128h64v-128h-64zM256 576h64v-64h-64v64zM192 512h-64v128h128v-64h-64v-64zM896 704h-64v64h64v-64z" />
    <glyph glyph-name="uniF727" unicode="pixelbroadsword" vert-adv-y="90" 
d="M960 768v192h-192v64h256v-256h-64zM768 896h-64v64h64v-64zM704 832h-64v64h64v-64zM640 832v-64h-64v64h64zM512 704v64h64v-64h-64zM448 640v64h64v-64h-64zM384 576v64h64v-64h-64zM320 512v64h64v-64h-64zM384 384h-64v64h64v-64zM448 320h-64v64h64v-64zM576 384
v-64h-64v64h64zM640 448v-64h-64v64h64zM704 512v-64h-64v64h64zM768 576v-64h-64v64h64zM832 640v-64h-64v64h64zM512 256h-64v64h64v-64zM576 128h-192v64h64h64v64h64v-128zM256 448v64h64v-64h-64zM192 448v-64h-64v192h128v-64h-64v-64zM192 320v-64h-64v64h64z
M192 128h64v-64h-64v-64h-128v64h-64v128h64v64h64v-64h-64v-64h64v-64h64v64zM256 192h64v-64h-64v64zM320 256h64v-64h-64v64zM256 320h64v-64h-64v64zM192 384h64v-64h-64v64zM768 768v64h64v-64h-64zM704 704v64h64v-64h-64zM640 640v64h64v-64h-64zM576 576v64h64v-64
h-64zM512 512v64h64v-64h-64zM448 448v64h64v-64h-64zM896 896v-64h-64v64h64zM896 640h-64v64h64v-64zM960 704h-64v64h64v-64z" />
    <glyph glyph-name="uniF728" unicode="pixelwand" vert-adv-y="90" 
d="M960 640v-64h-64v-64h-64v64h-64v64h-64v64h-64v64h-64v64h-64v64h64v64h64v64h256v-64h64v-64h64v-256h-64zM832 960h-128v-64h128v64zM896 704h-64v-64h64v64zM512 704h-64v64h64v-64zM448 512h-64v64v128h64v-64v-128zM448 384h-64v64h64v-64zM448 512h64v-64h-64v64z
M640 448h64v-64h-128h-64v64h128zM640 576h64v-64h-64v64zM576 640h64v-64h-64v64zM512 704h64v-64h-64v64zM768 512v-64h-64v64h64zM960 512v-64h-64v64h64zM896 384h-128v64h128v-64zM512 320h-64v64h64v-64zM384 256v64h64v-64h-64zM320 192v64h64v-64h-64zM320 448v64
h64v-64h-64zM256 384v64h64v-64h-64zM192 320v64h64v-64h-64zM384 768v128h64v-128h-64zM448 960h64v-64h-64v64zM256 192h64v-64h-64v64zM256 128v-64h-64v-64h-128v64h128v64h64zM128 320h64v-64h-64v64zM64 64h-64v128h64v64h64v-64h-64v-128z" />
    <glyph glyph-name="uniF729" unicode="pixelpotion" vert-adv-y="90" 
d="M832 128v-64h-64v-64h-512v64h-64v63h-64v320h64v64h64v64h64v64h-64v63h512v-63h-64v-64h64v-64h64v-64h64v-320h-64v1zM256 256h64v128h-64v-128zM768 512h-128v128h-256v-128h-128v-64h512v64zM768 256h-64v-64h-64v-64h64v64h64v64zM192 832h64v-128h-64v128z
M832 832v-128h-64v128h64zM704 768h-384v64h-64v64h64v63h64v-128h256v128h64v-63h64v-64h-64v-64zM384 1024h256v-64h-256v64z" />
    <glyph glyph-name="uniF72A" unicode="pixelpotionalt" vert-adv-y="90" 
d="M832 128v320h64v-320h-64zM768 512h-128v128h-256v-128h-128v-64h-64v64h64v64h64v64h-64v64h512v-64h-64v-64h64v-64h64v-64h-64v64zM128 128v320h64v-320h-64zM192 832h64v-128h-64v128zM832 832v-128h-64v128h64zM704 768h-384v64h-64v64h64v64h64v-128h256v128h64
v-64h64v-64h-64v-64zM384 1024h256v-64h-256v64zM320 64h384v64h128v-64h-64v-64h-512v64h-64v64h128v-64z" />
    <glyph glyph-name="uniF72B" unicode="pixelpickaxe" vert-adv-y="90" 
d="M960 384v256h64v-256h-64zM896 704h64v-64h-64v64zM832 768h-64v64h-64v64h64h64v64h128v-128h-64v-64v-64h-64v64zM640 960h64v-64h-64v64zM576 832h-192v64h192v-64zM640 768h-64v64h64v-64zM704 704h64v-64h-64v-64h-64v-64h-64v-64h-64v-64h-64v-64h-64v-64h-64v-64
h-64v-64h-64v-128h-192v192h128v64h64v64h64v64h64v64h64v64h64v64h64v64h64v64h64v64h64v-64zM128 128h-64v-64h64v64zM832 576h-64v64h64v-64zM896 384h-64v192h64v-192zM960 320h-64v64h64v-64zM320 896v64h64v-64h-64zM384 1024h256v-64h-256v64z" />
    <glyph glyph-name="uniF72C" unicode="pixelbow" vert-adv-y="90" 
d="M960 64v-64h-64v64h-64v64h64v288h-64v160h-64v64h64v-64h64v64h64v-192h64v-384h-64zM704 704h64v-64h-64v64zM640 704v64h64v-64h-64zM576 832h-192v64h-256v-64h-64v64h-64v64h64v64h384v-64h192v-64h-64v-64h64v-64h-64v64zM192 768h-64v64h64v-64zM256 704h-64v64
h64v-64zM320 640h-64v64h64v-64zM384 576h-64v64h64v-64zM448 512h-64v64h64v-64zM512 448h-64v64h64v-64zM576 384h-64v64h64v-64zM640 320h-64v64h64v-64zM704 256h-64v64h64v-64zM768 192h-64v64h64v-64zM832 128h-64v64h64v-64zM704 896v-64h-64v64h64zM704 832h64v-64
h-64v64zM832 768v-64h-64v64h64zM896 704v-64h-64v64h64z" />
    <glyph glyph-name="uniF72D" unicode="pixelarrow" vert-adv-y="90" 
d="M960 832v128h-128v64h192v-192h-64zM704 896v64h128v-64h-128zM768 832v-64h64v-64h64v-64h-64v64h-64v-64h-64v-64h-64v-64h-64v-64h-64v-64h-64v-64h-64v-64h-64v-64h-64v-128h-64v64h-64v64h-64v64h128v64h64v64h64v64h64v64h64v64h64v64h64v64h64v64h64v64h-64v64h64
v-64h64zM128 64h-64v64h64v-64zM960 832v-128h-64v128h64zM192 0h-64v64h64v-64zM0 0v64h64v-64h-64zM0 128v64h64v-64h-64z" />
    <glyph glyph-name="uniF72E" unicode="pixelaxe" vert-adv-y="90" 
d="M1024 704v-192h-64v-64h-64v64h64v128h-64v64h-64h-64v-64h-64v-192h192v-64h-256v128h-64v-64h-64v-64h-64v-64h-64v-64h-64v-64h-64v-64h-64v-128h-192v192h128v64h64v64h64v64h64v64h64v64h64v64h64v64h-128v256h64v64h64v-64h-64v-192h192v64h64v64v64h64h64v64h128
v-128h-64v-128h128zM128 128h-64v-64h64v64zM640 960h-128v64h192v-128h-64v64z" />
    <glyph glyph-name="uniF72F" unicode="pixeldagger" vert-adv-y="90" 
d="M960 832v-64h-64v64h64v128h-128v-64h-64v64h64v64h192v-192h-64zM768 832h-64v64h64v-64zM704 832v-64h-64v64h64zM576 704v64h64v-64h-64zM512 640v64h64v-64h-64zM384 576v64h128v-64h-128zM448 512v-64h64v-64h64v-64h-128v-64h-64v-64h-64v-64h-64v-64h-64v-64h-128
v64h128v64h-64v64h-64v-128h-64v128h64v64h64v64h64v64h64v64h64v128h64v-64h64zM640 512v-128h-64v128h64zM704 576v-64h-64v64h64zM768 640v-64h-64v64h64zM832 704v-64h-64v64h64zM896 704h-64v64h64v-64z" />
    <glyph glyph-name="uniF730" unicode="pixelbastardsword" vert-adv-y="90" 
d="M960 832v-64h-64v64h64v128h-128v-64h-64v64h64v64h192v-192h-64zM768 832h-64v64h64v-64zM704 832v-64h-64v64h64zM576 704v64h64v-64h-64zM512 640v64h64v-64h-64zM384 576v64h128v-64h-128zM256 512v-64h-64v128h192v-64h-128zM192 320v64h64v64h128v-64h64v-128h-64
v-64h-64v-64h-64v-64h-64v-64h-128v64h128v64h-64v64h-64v-128h-64v128h64v64h64v64h64zM512 384h64v-192h-128v64h64v128zM640 512v-128h-64v128h64zM704 576v-64h-64v64h64zM768 640v-64h-64v64h64zM832 704v-64h-64v64h64zM896 704h-64v64h64v-64z" />
    <glyph glyph-name="uniF731" unicode="pixellance" vert-adv-y="90" 
d="M960 896v64h-64v64h128v-128h-64zM960 832h-64v64h64v-64zM832 896v64h64v-64h-64zM704 896h128v-64h-128v64zM704 768h64v-64h64v-64h-128v-64h-64v-64h-64v-64h-64v-64h-64v-64h-64v-64h-64v-64h-64v-64h-64v-128h-192v192h128v64h64v64h64v64h64v64h64v64h64v64h64v64
h64v64h64v128h64v-64zM128 128h-64v-64h64v64zM896 832v-128h-64v128h64z" />
    <glyph glyph-name="uniF732" unicode="pixelbattleaxe" vert-adv-y="90" 
d="M704 448v64h64v64h-128v64h64v64h64v64h64v64h64v-64v-64h64v64h64v-320h-320zM960 640h-128v-128h128v128zM960 896v-64h-64v64h64zM896 960v64h128v-128h-64v64h-64zM832 896v64h64v-64h-64zM768 832v-64h-64v-64h-64v-64h-64v128h-64v-64h-64v320h320v-64h-64v-64h64
h64v-64h-64zM640 960h-128v-128h128v128zM448 512v64h64v64h64v-64h64v-64h-64v-64h-64v-64h-64v-64h-64v-64h-64v-64h-64v-64h-64v-128h-192v192h128v64h64v64h64v64h64v64h64v64h64zM128 128h-64v-64h64v64z" />
    <glyph glyph-name="uniF733" unicode="pixelshovel" vert-adv-y="90" 
d="M960 768v192h64v-192h-64zM640 896v64h128v-64h-128zM576 832v64h64v-64h-64zM640 640h64v-64h-64v-64h-64v-64h-64v-64h-64v-64h-64v-64h-64v-64h-64v-64h-64v-128h-192v192h128v64h64v64h64v64h64v64h64v64h64v64h64v64h64v64h64v-64zM128 128h-64v-64h64v64zM896 640
v-64h-64v64h64zM960 768v-128h-64v128h64zM832 512h-128v64h128v-64zM512 704v128h64v-128h-64zM768 1024h192v-64h-192v64z" />
    <glyph glyph-name="uniF734" unicode="pixelsphere" vert-adv-y="90" 
d="M960 320v-128h-64v-64h-64v-64h-128v-64h-384v64h-128v64h-64v64h-64v128h-64v384h64v128h64v64h64v64h128v64h384v-64h128v-64h64v-64h64v-128h64v-384h-64zM576 768h-64v64h-192v-64h-64v-64h64v-64h192v64h64v64zM768 640h-64v-64h64v64zM832 320h-64v-64h-64v-64h64
v64h64v64z" />
    <glyph glyph-name="uniF735" unicode="pixelelixir" vert-adv-y="90" 
d="M832 192v-64h-64v-64h-64v-64h-384v64h-64v64h-64v64h64v-64h64v64h64v-64h64v-64h64v64h-64v320h64v192h-64v64h64v64h-64v64h64v128h-64v64h128v-64h64v-128h-64v-64h64v-64h-64v-64h64v-64h64v-64h64v-64h64v-64h64v-192h-64zM768 320h-64v-128h-64v-64h64v64h64v128z
M448 448h-64v64h-64v64h64v64h64v-192zM256 448v-64h-64v64h64v64h64v-64h-64zM320 192h-64v192h64v-192zM320 384v64h64v-64h-64zM128 192v192h64v-192h-64zM384 704v64h64v-64h-64zM320 832h64v-64h-64v64zM384 960h64v-128h-64v128zM704 832v-64h-64v64h64z" />
    <glyph glyph-name="uniF736" unicode="pixelchest" vert-adv-y="0" 
d="M960 128v384h-128v-384h-64h-448h-64v384h-128v-384h-64v640h64v-192h128h576h128v192h64v-640h-64zM576 512v-128h-64v128h-64v-192h192v192h-64zM896 896h64v-128h-64v128zM768 768h64v-128h-576v128h64v128h-128v64h704v-64h-128v-128zM128 768v128h64v-128h-64z
M960 64h-128v64h128v-64zM256 64h-128v64h128v-64z" />
    <glyph glyph-name="uniF737" unicode="pixelshield" vert-adv-y="90" 
d="M896 448v384h-192v64h256v-448h-64zM832 768v-320h-64v-192h-64v-64h-128v-64h-128v64h-128v64h-64v192h-64v320h128v65h384v-65h128zM128 448h-64v448h256v-64h-192v-384zM192 256h-64v192h64v-192zM896 448v-192h-64v192h64zM832 192h-64v64h64v-64zM768 128h-64v64h64
v-64zM704 64h-128v64h128v-64zM320 64v64h128v-64h-128zM256 128v64h64v-64h-64zM256 192h-64v64h64v-64zM576 960h128v-64h-128v64zM448 896h-128v64h128v-64zM448 1024h128v-64h-128v64zM576 0h-128v64h128v-64z" />
    <glyph glyph-name="uniF738" unicode="pixelheart" vert-adv-y="90" 
d="M896 512v-128h-64v-64h-64v64h-64v-64h-64v-64h-64v-64h-64v-64h64v-64h-64v-64h-64v64h-64v64h-64v64h-64v64h-64v64h-64v64h-64v128h-64v320h64v64h64v64h192v-64h64v-64h64v-64h64v64h64v64h64v64h192v-64h64v-64h64v-320h-64zM256 896h-64v-64h-64v-64h-64v-64h64v64
h64v64h64v64zM768 896h-64v-64h-64v-64h-64v-64h64v64h64v64h64v64zM640 192v-64h-64v64h64zM704 256v-64h-64v64h64zM768 320v-64h-64v64h64z" />
    <glyph glyph-name="uniF739" unicode="rudder" vert-adv-y="90" 
d="M960 448h-70q-14 -86 -66 -158l50 -50q19 -18 19 -44.5t-19 -45.5t-45.5 -19t-44.5 19l-50 50q-72 -52 -158 -66v-70q0 -26 -18.5 -45t-45.5 -19t-45.5 19t-18.5 45v70q-86 14 -158 66l-50 -50q-18 -19 -44.5 -19t-45.5 19t-19 45.5t19 44.5l50 50q-52 72 -66 158h-70
q-26 0 -45 19t-19 45.5t18.5 45t45.5 18.5h70q14 86 66 158l-50 50q-19 18 -19 44.5t19 45.5t45.5 19t44.5 -19l50 -49q73 51 158 65v70q0 27 18.5 45.5t45.5 18.5t45.5 -18.5t18.5 -45.5v-70q86 -14 158 -65l50 49q18 19 44.5 19t45.5 -19t19 -45.5t-19 -44.5l-50 -50
q52 -72 66 -158h70q27 0 45.5 -18.5t18.5 -45t-18.5 -45.5t-45.5 -19zM576 198q58 12 112 48l-95 94q-1 0 -7 -3.5t-10 -4.5v-134zM448 198v134q-4 1 -10 4.5t-7 3.5l-95 -94q54 -36 112 -48zM246 336l94 94l-4 8l-5 10h-132q12 -58 47 -112zM246 688q-36 -54 -47 -112h132
l5 10l4 8zM448 826q-59 -12 -112 -48l95 -94q1 0 7 3.5t10 4.5v134zM512 576q-27 0 -45.5 -18.5t-18.5 -45t18.5 -45.5t45.5 -19t45.5 19t18.5 45.5t-18.5 45t-45.5 18.5zM576 826v-134q4 -1 10 -4.5t7 -3.5l95 94q-53 36 -112 48zM778 688l-94 -94l4 -8l5 -10h132
q-12 59 -47 112zM693 448l-5 -10l-4 -8l94 -94q35 54 47 112h-132z" />
    <glyph glyph-name="uniF73A" unicode="folderalt" vert-adv-y="90" 
d="M960 64h-896q-26 0 -45 19t-19 45v576h1024v-576q0 -26 -19 -45t-45 -19zM0 768v128q0 27 18.5 45.5t45.5 18.5h384q26 0 45 -18.5t19 -45.5t18.5 -45.5t45.5 -18.5h384q26 0 45 -19t19 -45h-1024z" />
    <glyph glyph-name="uniF73B" unicode="removefolderalt" vert-adv-y="90" 
d="M960 64h-896q-26 0 -45 19t-19 45v576h1024v-576q0 -26 -19 -45t-45 -19zM878 471q18 18 18 43.5t-18 43.5t-43.5 18t-43.5 -18l-87 -87l-87 87q-18 18 -43.5 18t-43.5 -18t-18 -43.5t18 -43.5l87 -87l-87 -87q-18 -18 -18 -43.5t18 -43.5t43.5 -18t43.5 18l87 87l87 -87
q18 -18 43.5 -18t43.5 18t18 43.5t-18 43.5l-87 87zM0 896q0 27 19 45.5t45 18.5h384q27 0 45.5 -18.5t18.5 -45.5t18.5 -45.5t45.5 -18.5h384q26 0 45 -19t19 -45h-1024v128z" />
    <glyph glyph-name="uniF73C" unicode="addfolderalt" vert-adv-y="90" 
d="M960 64h-896q-27 0 -45.5 19t-18.5 45v576h1024v-576q0 -26 -19 -45t-45 -19zM896 416q0 13 -9.5 22.5t-22.5 9.5h-96v96q0 13 -9.5 22.5t-22.5 9.5h-64q-13 0 -22.5 -9.5t-9.5 -22.5v-96h-96q-13 0 -22.5 -9.5t-9.5 -22.5v-64q0 -13 9.5 -22.5t22.5 -9.5h96v-96
q0 -13 9.5 -22.5t22.5 -9.5h64q13 0 22.5 9.5t9.5 22.5v96h96q13 0 22.5 9.5t9.5 22.5v64zM0 896q0 26 18.5 45t45.5 19h384q27 0 45.5 -18.5t18.5 -45.5t18.5 -45.5t45.5 -18.5h384q26 0 45 -19t19 -45h-1024v128z" />
    <glyph glyph-name="uniF73D" unicode="deletefolderalt" vert-adv-y="90" 
d="M960 64h-896q-27 0 -45.5 19t-18.5 45v576h1024v-576q0 -26 -19 -45t-45 -19zM896 416q0 13 -9.5 22.5t-22.5 9.5h-320q-13 0 -22.5 -9.5t-9.5 -22.5v-64q0 -13 9.5 -22.5t22.5 -9.5h320q13 0 22.5 9.5t9.5 22.5v64zM0 896q0 27 18.5 45.5t45.5 18.5h384q27 0 45.5 -18.5
t18.5 -45.5t18.5 -45.5t45.5 -18.5h384q27 0 45.5 -19t18.5 -45h-1024v128z" />
    <glyph glyph-name="uniF73E" unicode="openfolderalt" vert-adv-y="90" 
d="M0 384v512q0 27 18.5 45.5t45.5 18.5h384q27 0 45.5 -18.5t18.5 -45t18.5 -45.5t45.5 -19h256q27 0 45.5 -18.5t18.5 -45.5v-64h-768zM1024 640l-192 -512q0 -26 -18.5 -45t-45.5 -19h-704q-27 0 -45.5 19t-18.5 45l192 512h832z" />
    <glyph glyph-name="uniF73F" unicode="clipboardalt" vert-adv-y="90" 
d="M896 0h-768q-26 0 -45 19t-19 45v832q0 27 19 45.5t45 18.5h128v-64h-128v-832h768v832h-128v64h128q27 0 45.5 -18.5t18.5 -45.5v-832q0 -26 -18.5 -45t-45.5 -19zM352 576q-13 0 -22.5 9.5t-9.5 22.5t9.5 22.5t22.5 9.5h320q13 0 22.5 -9.5t9.5 -22.5t-9.5 -22.5
t-22.5 -9.5h-320zM736 256q13 0 22.5 -9.5t9.5 -22.5t-9.5 -22.5t-22.5 -9.5h-448q-13 0 -22.5 9.5t-9.5 22.5t9.5 22.5t22.5 9.5h448zM192 416q0 13 9.5 22.5t22.5 9.5h576q13 0 22.5 -9.5t9.5 -22.5t-9.5 -22.5t-22.5 -9.5h-576q-13 0 -22.5 9.5t-9.5 22.5zM640 832h-64
h-128h-64q-26 0 -45 19t-19 45.5t19 45t45 18.5q0 27 19 45.5t45 18.5h128q27 0 45.5 -18.5t18.5 -45.5q27 0 45.5 -18.5t18.5 -45t-18.5 -45.5t-45.5 -19z" />
    <glyph glyph-name="uniF740" unicode="pastealt" vert-adv-y="90" 
d="M960 0h-448q-27 0 -45.5 18.5t-18.5 45.5v576q0 26 18.5 45t45.5 19h256v-256h256v-384q0 -27 -18.5 -45.5t-45.5 -18.5zM832 703q20 -3 32 -15l143 -147q11 -11 14 -29h-189v191zM704 896h-64v64h64q27 0 45.5 -19t18.5 -45v-128h-64v128zM512 832h-64h-128h-64
q-27 0 -45.5 18.5t-18.5 45t18.5 45.5t45.5 19q0 26 18.5 45t45.5 19h128q27 0 45.5 -19t18.5 -45q27 0 45.5 -19t18.5 -45.5t-18.5 -45t-45.5 -18.5zM64 128h320v-64h-320q-26 0 -45 18.5t-19 45.5v768q0 26 18.5 45t45.5 19h64v-64h-64v-768z" />
    <glyph glyph-name="uniF741" unicode="loadingflowccw" vert-adv-y="90" 
d="M1015 416q-23 118 -94 212.5t-178.5 149t-230.5 54.5q-40 0 -68 28t-28 68t28 68t68 28q104 0 199 -40.5t163.5 -109t109 -163.5t40.5 -199q0 -47 -9 -96zM789 352q20 34 58.5 44.5t73 -9.5t44.5 -58.5t-10 -72.5q-52 -90 -134.5 -152t-176 -87t-196 -12.5t-192.5 64.5
q-41 23 -78 56q84 -31 173.5 -28.5t170.5 31t151 86.5t116 138zM235 352q20 -34 9.5 -72.5t-45 -58.5t-72.5 -9.5t-58 44.5q-52 90 -64.5 192.5t12.5 196t87 176t152 134.5q41 24 88 40q-91 -78 -137.5 -187t-39.5 -229.5t68 -226.5z" />
    <glyph glyph-name="uniF742" unicode="loadingflowcw" vert-adv-y="90" 
d="M955 256q-20 -34 -58 -44.5t-72.5 9.5t-45 58.5t9.5 72.5q61 106 68 226.5t-39.5 229.5t-137.5 187q47 -16 88 -40q90 -52 152 -134.5t87 -176t12.5 -196t-64.5 -192.5zM768 69q-90 -52 -192.5 -64.5t-196 12.5t-176 87t-134.5 152q-20 34 -10 72.5t44.5 58.5t73 9.5
t58.5 -44.5q46 -80 116 -138t151 -86.5t170.5 -31t173.5 28.5q-37 -33 -78 -56zM512 832q-123 0 -230.5 -54.5t-178.5 -149t-94 -212.5q-9 49 -9 96q0 104 40.5 199t109 163.5t163.5 109t199 40.5q40 0 68 -28t28 -68t-28 -68t-68 -28z" />
    <glyph glyph-name="uniF743" unicode="code" vert-adv-y="90" 
d="M1006 469l-262 -323q-18 -18 -43.5 -18t-43.5 18t-18 43t18 43l227 280l-227 280q-18 18 -18 43.5t18 43.5t43.5 18t43.5 -18l262 -323q18 -18 18 -43.5t-18 -43.5zM367 146q-18 -18 -43.5 -18t-43.5 18l-262 323q-18 18 -18 43.5t18 43.5l262 323q18 18 43.5 18
t43.5 -18t18 -43.5t-18 -43.5l-227 -280l227 -280q18 -18 18 -43t-18 -43z" />
    <glyph glyph-name="uniF744" unicode="cloveralt" vert-adv-y="90" 
d="M896 512q53 0 90.5 -37.5t37.5 -90.5t-37.5 -90.5t-90.5 -37.5q-46 0 -83 10t-45 22l-192 192q-19 19 -19 32t19 32l192 192q10 11 47 21.5t81 10.5q53 0 90.5 -37.5t37.5 -90.5t-37.5 -90.5t-90.5 -37.5zM544 576q-19 -19 -32 -19t-32 19l-192 192q-11 10 -21.5 47
t-10.5 81q0 53 37.5 90.5t90.5 37.5t90.5 -37.5t37.5 -90.5q0 53 37.5 90.5t90.5 37.5t90.5 -37.5t37.5 -90.5q0 -46 -10 -83t-22 -45zM448 480l-192 -192q-8 -12 -45 -22t-83 -10q-53 0 -90.5 37.5t-37.5 90.5t37.5 90.5t90.5 37.5q-53 0 -90.5 37.5t-37.5 90.5t37.5 90.5
t90.5 37.5q44 0 81 -10.5t47 -21.5l192 -192q19 -19 19 -32t-19 -32zM480 448q19 19 32 19t32 -19l192 -192q12 -8 22 -45t10 -83q0 -53 -37.5 -90.5t-90.5 -37.5t-90.5 37.5t-37.5 90.5q0 -53 -37.5 -90.5t-90.5 -37.5t-90.5 37.5t-37.5 90.5q0 44 10.5 81t21.5 47z" />
    <glyph glyph-name="uniF745" unicode="lips" vert-adv-y="90" 
d="M512 512q-28 28 -74 46t-86 18q-31 0 -69 -10t-71 -22t-90 -22t-122 -10q41 21 100 66.5t105 86t96 72t83 31.5q39 0 72.5 -17t55.5 -47q22 30 55.5 47t72.5 17q33 0 83 -31.5t96 -72t105 -86t100 -66.5q-65 0 -122 10t-90 22t-71 22t-69 10q-40 0 -86 -18t-74 -46z
M512 434q28 35 72 56.5t88 21.5q63 0 122 -6.5t99 -16t71 -19t45 -15.5l15 -7q-40 -20 -94.5 -56.5t-94 -64.5t-85 -49.5t-78.5 -21.5q-118 0 -160 31q-42 -31 -160 -31q-33 0 -78.5 21.5t-85 49.5t-94 64.5t-94.5 56.5q5 3 15 7t44 15t72 19.5t98 15.5t123 7q44 0 88 -21.5
t72 -56.5z" />
    <glyph glyph-name="uniF746" unicode="kiss" vert-adv-y="90" 
d="M608 256h-192q-38 0 -78 10.5t-71.5 25.5t-71 41t-65 45.5t-67 52t-63.5 49.5q38 29 95 84.5t98 97t94 74t97 32.5q39 0 72.5 -17t55.5 -47q22 30 55.5 47t72.5 17q44 0 97 -32.5t94 -74t98 -97t95 -84.5q-22 -17 -63.5 -49.5t-67 -52t-65 -45.5t-71 -41t-71.5 -25.5
t-78 -10.5zM576 576h-96q-23 0 -46.5 -9t-59 -27t-63.5 -29h4.5h4.5q1 -26 57 -44.5t135 -18.5t135 18.5t57 44.5h13h11q-24 10 -55 28t-52.5 27.5t-44.5 9.5z" />
    <glyph glyph-name="uniF747" unicode="manualshift" vert-adv-y="90" 
d="M960 786v-274q0 -26 -18.5 -45t-45.5 -19h-320v-210q29 -17 46.5 -46t17.5 -64q0 -53 -37.5 -90.5t-90.5 -37.5t-90.5 37.5t-37.5 90.5q0 35 17.5 64t46.5 46v210h-256v-210q29 -17 46.5 -46t17.5 -64q0 -53 -37.5 -90.5t-90.5 -37.5t-90.5 37.5t-37.5 90.5q0 35 17.5 64
t46.5 46v548q-29 17 -46.5 46t-17.5 64q0 53 37.5 90.5t90.5 37.5t90.5 -37.5t37.5 -90.5q0 -35 -17.5 -64t-46.5 -46v-210h256v210q-29 17 -46.5 46t-17.5 64q0 53 37.5 90.5t90.5 37.5t90.5 -37.5t37.5 -90.5q0 -35 -17.5 -64t-46.5 -46v-210h256v210q-29 17 -46.5 46
t-17.5 64q0 53 37.5 90.5t90.5 37.5t90.5 -37.5t37.5 -90.5q0 -35 -17.5 -64t-46.5 -46z" />
    <glyph glyph-name="uniF748" unicode="simcardthree" vert-adv-y="90" 
d="M941 576l-558 -558q-18 -18 -43.5 -18t-42.5 18l-233 232v309l448 447q17 18 42.5 18t43.5 -18l343 -344q18 -17 18 -42.5t-18 -43.5zM816 631l-185 186q-16 15 -37.5 15t-37.5 -15l-222 -223q-15 -15 -15 -36.5t15 -37.5l185 -185q16 -15 37.5 -15t37.5 15l222 222
q15 16 15 37.5t-15 36.5zM584 455q-7 -7 -18 -7t-19 7l-92 93q-8 8 -8 18.5t8 18.5l111 111q8 8 18.5 8t18.5 -8l93 -93q7 -7 7 -18t-7 -19zM635 590l-46 46q-9 9 -19 0l-55 -56q-9 -9 0 -18l46 -46q9 -9 19 0l55 55q9 9 0 19z" />
    <glyph glyph-name="uniF749" unicode="parthenon" vert-adv-y="90" 
d="M992 128q13 0 22.5 -9.5t9.5 -22.5v-64q0 -13 -9.5 -22.5t-22.5 -9.5h-960q-13 0 -22.5 9.5t-9.5 22.5v64q0 13 9.5 22.5t22.5 9.5h32v512h-32q-13 0 -22.5 9.5t-9.5 22.5v64q0 13 9.5 22.5t22.5 9.5h64h32l362 251q22 11 44 0l362 -251h32h64q13 0 22.5 -9.5t9.5 -22.5
v-64q0 -13 -9.5 -22.5t-22.5 -9.5h-32v-512h32zM256 640h-64v-512h64v512zM448 640h-64v-512h64v512zM576 128h64v512h-64v-512zM832 640h-64v-512h64v512z" />
    <glyph glyph-name="uniF74A" unicode="addcomment" vert-adv-y="90" 
d="M512 128q-66 0 -134 16q-34 -40 -69.5 -69.5t-60 -43.5t-47.5 -21.5t-30.5 -8.5t-10.5 -1q26 57 30 124.5t-13 113.5q-83 63 -130 151t-47 187q0 91 40.5 174t109 143t163.5 95.5t199 35.5t199 -35.5t163.5 -95.5t109 -143t40.5 -174t-40.5 -174t-109 -143t-163.5 -95.5
t-199 -35.5zM768 608q0 13 -9.5 22.5t-22.5 9.5h-160v160q0 13 -9.5 22.5t-22.5 9.5h-64q-13 0 -22.5 -9.5t-9.5 -22.5v-160h-160q-13 0 -22.5 -9.5t-9.5 -22.5v-64q0 -13 9.5 -22.5t22.5 -9.5h160v-160q0 -13 9.5 -22.5t22.5 -9.5h64q13 0 22.5 9.5t9.5 22.5v160h160
q13 0 22.5 9.5t9.5 22.5v64z" />
    <glyph glyph-name="uniF74B" unicode="deletecomment" vert-adv-y="90" 
d="M512 128q-66 0 -134 16q-103 -121 -201 -142l-17 -2q26 57 30 124.5t-14 113.5q-82 63 -129 151t-47 187q0 91 40.5 174t109 143t163.5 95.5t199 35.5t199 -35.5t163.5 -95.5t109 -143t40.5 -174t-40.5 -174t-109 -143t-163.5 -95.5t-199 -35.5zM768 608q0 13 -9.5 22.5
t-22.5 9.5h-448q-13 0 -22.5 -9.5t-9.5 -22.5v-64q0 -13 9.5 -22.5t22.5 -9.5h448q13 0 22.5 9.5t9.5 22.5v64z" />
    <glyph glyph-name="uniF74C" unicode="gender" vert-adv-y="90" 
d="M1009 513l-145 -449q-14 -26 -40 -44.5t-58 -19.5q-28 1 -56 20.5t-38 43.5l-145 449q-23 58 -9.5 93t49.5 35h201h201q36 0 49.5 -35t-9.5 -93zM763 0h1h1.5h1.5h2h-6zM576 833q0 80 56.5 136t136 56t135.5 -56t56 -136t-56 -136t-135.5 -56t-136 56t-56.5 136zM457 0
h-403q-35 0 -48.5 35t8.5 93l176 525q-56 21 -91.5 70t-35.5 110q0 80 56.5 136t136 56t136 -56t56.5 -136q0 -62 -36.5 -111.5t-93.5 -69.5l179 -524q23 -58 9 -93t-49 -35z" />
    <glyph glyph-name="uniF74D" unicode="callalt" vert-adv-y="90" 
d="M884 140l-91 91q49 53 76 126t27 155t-27 155t-76 126l91 91q66 -72 103 -168t37 -204t-37 -204t-103 -168zM748 276l-90 90q46 58 46 146t-46 146l90 90q40 -45 62 -106t22 -130t-22 -130t-62 -106zM448 0h-64q-80 0 -149.5 35.5t-122 100t-82.5 162t-30 214.5t30 214.5
t82.5 162t122 100t149.5 35.5h64q27 0 45.5 -18.5t18.5 -45.5v-192q0 -26 -18.5 -45t-45.5 -19h-64q-24 0 -42 15.5t-21 39.5q-129 -40 -129 -247t129 -247q3 24 21 39.5t42 15.5h64q26 0 45 -18.5t19 -45.5v-192q0 -26 -19 -45t-45 -19z" />
    <glyph glyph-name="uniF74E" unicode="outgoingcallalt" vert-adv-y="90" 
d="M1018 498l-225 -174q-10 -9 -25 6v118h-160q-13 0 -22.5 9.5t-9.5 22.5v64q0 13 9.5 22.5t22.5 9.5h160v119q15 15 25 5l225 -173q6 -6 6 -14.5t-6 -14.5zM448 0h-64q-80 0 -149.5 35.5t-122 100t-82.5 162t-30 214.5t30 214.5t82.5 162t122 100t149.5 35.5h64
q27 0 45.5 -18.5t18.5 -45.5v-192q0 -26 -18.5 -45t-45.5 -19h-64q-24 0 -42 16t-21 39q-129 -40 -129 -247t129 -247q3 24 21 39.5t42 15.5h64q27 0 45.5 -18.5t18.5 -45.5v-192q0 -26 -18.5 -45t-45.5 -19z" />
    <glyph glyph-name="uniF74F" unicode="incomingcallalt" vert-adv-y="90" 
d="M992 448h-160v-119q-15 -15 -25 -5l-225 174q-6 6 -6 14.5t6 13.5l225 174q10 10 25 -5v-119h160q13 0 22.5 -9.5t9.5 -22.5v-64q0 -13 -9.5 -22.5t-22.5 -9.5zM448 0h-64q-80 0 -149.5 35.5t-122 100t-82.5 162t-30 214.5t30 214.5t82.5 162t122 100t149.5 35.5h64
q27 0 45.5 -18.5t18.5 -45.5v-192q0 -26 -18.5 -45t-45.5 -19h-64q-24 0 -42 15.5t-21 39.5q-129 -40 -129 -247t129 -247q3 24 21 39.5t42 15.5h64q27 0 45.5 -18.5t18.5 -45.5v-192q0 -26 -19 -45t-45 -19z" />
    <glyph glyph-name="uniF750" unicode="missedcallalt" vert-adv-y="90" 
d="M919 512l87 -87q18 -18 18 -43.5t-18 -43.5t-43.5 -18t-43.5 18l-87 87l-87 -87q-18 -18 -43.5 -18t-43.5 18t-18 43.5t18 43.5l87 87l-87 87q-18 18 -18 43.5t18 43.5t43.5 18t43.5 -18l87 -87l87 87q18 18 43.5 18t43.5 -18t18 -43.5t-18 -43.5zM448 0h-64
q-79 0 -149 35.5t-122.5 100t-82.5 162t-30 214.5t30 214.5t82.5 162t122 100t149.5 35.5h64q27 0 45.5 -18.5t18.5 -45.5v-192q0 -26 -18.5 -45t-45.5 -19h-64q-24 0 -42 16t-21 39q-129 -40 -129 -247t129 -247q3 24 21 39.5t42 15.5h64q27 0 45.5 -18.5t18.5 -45.5v-192
q0 -26 -18.5 -45t-45.5 -19z" />
    <glyph glyph-name="uniF751" unicode="export" vert-adv-y="90" 
d="M960 640q-27 0 -45.5 19t-18.5 45v105l-343 -343q-18 -18 -43.5 -18t-43.5 18t-18 43.5t18 43.5l343 343h-105q-27 0 -45.5 19t-18.5 45.5t18.5 45t45.5 18.5h256q27 0 45.5 -18.5t18.5 -45.5v-256q0 -26 -18.5 -45t-45.5 -19zM512 896q-104 0 -192.5 -51.5t-140 -140
t-51.5 -192.5t51.5 -192.5t140 -140t192.5 -51.5t192.5 51.5t140 140t51.5 192.5q0 27 18.5 45.5t45.5 18.5t45.5 -18.5t18.5 -45.5q0 -104 -40.5 -199t-109 -163.5t-163.5 -109t-199 -40.5t-199 40.5t-163.5 109t-109 163.5t-40.5 199t40.5 199t109 163.5t163.5 109
t199 40.5q27 0 45.5 -18.5t18.5 -45t-19 -45.5t-45 -19z" />
    <glyph glyph-name="uniF752" unicode="import" vert-adv-y="90" 
d="M663 576h105q26 0 45 -18.5t19 -45t-19 -45.5t-45 -19h-256q-27 0 -45.5 19t-18.5 45v256q0 27 18.5 45.5t45 18.5t45.5 -18.5t19 -45.5v-105l343 343q18 18 43.5 18t43.5 -18t18 -43.5t-18 -43.5zM512 896q-104 0 -192.5 -51.5t-140 -140t-51.5 -192.5t51.5 -192.5
t140 -140t192.5 -51.5t192.5 51.5t140 140t51.5 192.5q0 27 18.5 45.5t45.5 18.5t45.5 -18.5t18.5 -45.5q0 -104 -40.5 -199t-109 -163.5t-163.5 -109t-199 -40.5t-199 40.5t-163.5 109t-109 163.5t-40.5 199t40.5 199t109 163.5t163.5 109t199 40.5q26 0 45 -18.5t19 -45
t-19 -45.5t-45 -19z" />
    <glyph glyph-name="uniF753" unicode="cherryalt" vert-adv-y="90" 
d="M800 0q-93 0 -158.5 65.5t-65.5 158.5q0 81 51 142.5t129 77.5q-25 160 -91 286t-153 166q-87 -40 -153 -166t-91 -286q78 -16 129 -77.5t51 -142.5q0 -93 -65.5 -158.5t-158.5 -65.5t-158.5 65.5t-65.5 158.5q0 85 56.5 148t140.5 73q13 142 64 259.5t129 191.5h-6
q-27 0 -45.5 19t-18.5 45.5t18.5 45t45.5 18.5h256q27 0 45.5 -18.5t18.5 -45t-18.5 -45.5t-45.5 -19h-6q78 -74 129 -191.5t64 -259.5q84 -10 140.5 -73t56.5 -148q0 -93 -65.5 -158.5t-158.5 -65.5z" />
    <glyph glyph-name="uniF754" unicode="panties" vert-adv-y="90" 
d="M320 64q-18 7 -60.5 17t-75 22t-51 30.5t-30.5 51t-22 75t-16 60.5q17 15 40 92.5t23 163.5q0 79 -29.5 145t-98.5 132q0 30 7 58.5t16.5 48t20.5 34.5t19 22t11 7q6 -11 18 -31t52.5 -81t85.5 -121.5t115.5 -144t144 -156.5t155.5 -143t147 -117t119 -83.5t83.5 -54.5
t29.5 -17q0 -3 -7.5 -11.5t-22.5 -19t-34 -20.5t-47.5 -16.5t-57.5 -6.5q-124 128 -279 128q-85 0 -162.5 -23t-93.5 -41z" />
    <glyph glyph-name="uniF629" unicode="poop" vert-adv-y="90" 
d="M1024 288q0 -70 -21.5 -126t-57.5 -90.5t-81.5 -53t-95.5 -18.5h-576q-80 0 -136 56t-56 136q0 68 45 111t123 72q-24 27 -33 59q-19 62 14 118.5t98 74.5l49 18q-22 7 -31 33.5t-9 89.5q0 35 26.5 62.5t64 46.5l75 38t64 46.5t26.5 62.5l13.5 -13.5t31 -33.5t39 -47.5
t30.5 -50t14 -47.5q0 -38 -15 -70q65 17 123.5 -14.5t76.5 -93.5q11 -39 2.5 -76.5t-33.5 -66.5q100 -7 165 -66.5t65 -156.5z" />
    <glyph glyph-name="uniF62A" unicode="poopalt" vert-adv-y="90" 
d="M1024 288q0 -70 -21.5 -126t-57.5 -90.5t-81.5 -53t-95.5 -18.5h-576q-80 0 -136 56t-56 136q0 68 45 111t123 72q-24 27 -33 59q-19 62 14 118.5t98 74.5l49 18q-22 7 -31 33.5t-9 89.5q0 35 26.5 62.5t64 46.5l75 38t64 46.5t26.5 62.5l13.5 -13.5t31 -33.5t39 -47.5
t30.5 -50t14 -47.5q0 -38 -15 -70q65 17 123.5 -14.5t76.5 -93.5q11 -39 2.5 -76.5t-33.5 -66.5q100 -7 165 -66.5t65 -156.5zM736 448q-13 0 -74 1.5t-80 0.5q58 16 122 67.5t64 90.5q0 29 -16.5 50.5t-42 31.5t-55 13.5t-56.5 -4.5l-86 -34q23 21 37 45t19 48.5t6.5 38.5
t1.5 35t-16 45t-32 37l-16 14q0 -27 -20 -50.5t-48 -40.5t-56 -33t-48 -33.5t-20 -34.5q0 -28 46 -62t82 -34h1l-161 -64q-27 -9 -40 -14.5t-28.5 -16t-21.5 -26.5t-6 -39q0 -34 26 -53.5t62 -21.5t75 1q-53 -21 -119.5 -59.5t-119 -83t-52.5 -71.5q0 -49 50 -88.5
t118 -39.5h504q60 0 109.5 23.5t82 73.5t32.5 119q0 77 -64 122.5t-160 45.5z" />
    <glyph glyph-name="uniF62B" unicode="kiwi" vert-adv-y="90" 
d="M832 205v-109q0 -13 -9.5 -22.5t-22.5 -9.5h-64q-13 0 -22.5 9.5t-9.5 22.5t9.5 22.5t22.5 9.5h32v64q-21 0 -36.5 17.5t-31.5 51.5q-14 -47 -60 -63v-102q0 -13 -9.5 -22.5t-22.5 -9.5h-64q-13 0 -22.5 9.5t-9.5 22.5t9.5 22.5t22.5 9.5h32v87q-4 8 -10.5 27.5t-15 36.5
t-20.5 28q-148 50 -255 189q-74 -48 -147 -48l-6 1q-31 -52 -44.5 -93t-13.5 -100q0 -13 -11 -38.5t-21 -25.5q-9 0 -20.5 24.5t-11.5 39.5q0 174 66 312q-2 26 -2 72q0 53 37.5 90.5t90.5 37.5q32 0 73 -14q59 66 153 104t190 38q59 0 118 -15t112.5 -45t95 -71t66 -98.5
t24.5 -122.5q0 -118 -56 -212.5t-136 -126.5z" />
    <glyph glyph-name="uniF62C" unicode="kiwifruit" vert-adv-y="90" 
d="M512 0q-104 0 -199 40.5t-163.5 109t-109 163.5t-40.5 199t40.5 199t109 163.5t163.5 109t199 40.5t199 -40.5t163.5 -109t109 -163.5t40.5 -199t-40.5 -199t-109 -163.5t-163.5 -109t-199 -40.5zM512 960q-91 0 -174 -35.5t-143 -95.5t-95.5 -143t-35.5 -174t35.5 -174
t95.5 -143t143 -95.5t174 -35.5t174 35.5t143 95.5t95.5 143t35.5 174t-35.5 174t-95.5 143t-143 95.5t-174 35.5zM864 512q-13 0 -22.5 9.5t-9.5 22.5t9.5 22.5t22.5 9.5t22.5 -9.5t9.5 -22.5t-9.5 -22.5t-22.5 -9.5zM800 640q-13 0 -22.5 9.5t-9.5 22.5t9.5 22.5t22.5 9.5
t22.5 -9.5t9.5 -22.5t-9.5 -22.5t-22.5 -9.5zM736 448q-13 0 -22.5 9.5t-9.5 22.5t9.5 22.5t22.5 9.5t22.5 -9.5t9.5 -22.5t-9.5 -22.5t-22.5 -9.5zM512 320q-87 0 -145 68q-8 -4 -15 -4q-13 0 -22.5 9.5t-9.5 22.5q0 16 14 26q-14 34 -14 70q0 87 68 145q-4 8 -4 15
q0 13 9.5 22.5t22.5 9.5q16 0 26 -14q34 14 70 14q87 0 145 -68q8 4 15 4q13 0 22.5 -9.5t9.5 -22.5q0 -16 -14 -26q14 -34 14 -70q0 -80 -56 -136t-136 -56zM512 640q-53 0 -90.5 -37.5t-37.5 -90.5t37.5 -90.5t90.5 -37.5t90.5 37.5t37.5 90.5t-37.5 90.5t-90.5 37.5z
M672 704q-13 0 -22.5 9.5t-9.5 22.5t9.5 22.5t22.5 9.5t22.5 -9.5t9.5 -22.5t-9.5 -22.5t-22.5 -9.5zM544 704q-13 0 -22.5 9.5t-9.5 22.5t9.5 22.5t22.5 9.5t22.5 -9.5t9.5 -22.5t-9.5 -22.5t-22.5 -9.5zM416 768q-13 0 -22.5 9.5t-9.5 22.5t9.5 22.5t22.5 9.5t22.5 -9.5
t9.5 -22.5t-9.5 -22.5t-22.5 -9.5zM288 576q-13 0 -22.5 9.5t-9.5 22.5t9.5 22.5t22.5 9.5t22.5 -9.5t9.5 -22.5t-9.5 -22.5t-22.5 -9.5zM288 704q-13 0 -22.5 9.5t-9.5 22.5t9.5 22.5t22.5 9.5t22.5 -9.5t9.5 -22.5t-9.5 -22.5t-22.5 -9.5zM224 512q-13 0 -22.5 9.5
t-9.5 22.5t9.5 22.5t22.5 9.5t22.5 -9.5t9.5 -22.5t-9.5 -22.5t-22.5 -9.5zM224 448q13 0 22.5 -9.5t9.5 -22.5t-9.5 -22.5t-22.5 -9.5t-22.5 9.5t-9.5 22.5t9.5 22.5t22.5 9.5zM352 320q13 0 22.5 -9.5t9.5 -22.5t-9.5 -22.5t-22.5 -9.5t-22.5 9.5t-9.5 22.5t9.5 22.5
t22.5 9.5zM416 256q13 0 22.5 -9.5t9.5 -22.5t-9.5 -22.5t-22.5 -9.5t-22.5 9.5t-9.5 22.5t9.5 22.5t22.5 9.5zM544 320q13 0 22.5 -9.5t9.5 -22.5t-9.5 -22.5t-22.5 -9.5t-22.5 9.5t-9.5 22.5t9.5 22.5t22.5 9.5zM672 384q13 0 22.5 -9.5t9.5 -22.5t-9.5 -22.5t-22.5 -9.5
t-22.5 9.5t-9.5 22.5t9.5 22.5t22.5 9.5zM672 256q13 0 22.5 -9.5t9.5 -22.5t-9.5 -22.5t-22.5 -9.5t-22.5 9.5t-9.5 22.5t9.5 22.5t22.5 9.5zM800 448q13 0 22.5 -9.5t9.5 -22.5t-9.5 -22.5t-22.5 -9.5t-22.5 9.5t-9.5 22.5t9.5 22.5t22.5 9.5z" />
    <glyph glyph-name="uniF62D" unicode="lemon" vert-adv-y="90" 
d="M819 205q-71 -72 -155.5 -120.5t-168 -69t-165 -14t-147.5 41.5q-6 -2 -28.5 -13.5t-32.5 -15.5t-27 -9t-31 -5q-25 0 -44.5 20.5t-19.5 43.5q0 8 1 16.5t4.5 18.5t5 16.5t7 19t7.5 16.5t9 18.5t8 16.5q-34 67 -40 147.5t14.5 163.5t68.5 167t120 156q71 71 155.5 119.5
t168 69t165 14t147.5 -41.5q6 2 28.5 13.5t32.5 15.5t27 9t31 5q25 0 44.5 -20.5t19.5 -43.5q0 -8 -1 -16.5t-4 -18.5t-5 -16.5t-7.5 -19t-7.5 -16.5t-9 -18.5t-8 -16.5q34 -67 40 -147.5t-14.5 -163.5t-68.5 -167t-120 -155z" />
    <glyph glyph-name="uniF62E" unicode="pear" vert-adv-y="90" 
d="M1000 958q-92 -60 -150 -133q47 -57 44 -132t-56 -128q-38 -38 -61 -90t-33.5 -102.5t-20.5 -100.5t-29.5 -98t-51.5 -81q-74 -73 -164 -88t-176 21t-163 113t-113 163.5t-21 176.5t88 163q34 33 82 53t98 29.5t100.5 20t101.5 33.5t89 61q46 46 111 54.5t120 -22.5
q24 40 69.5 77t76.5 54t42 20q13 4 24.5 -3t15.5 -20q6 -22 -23 -41z" />
    <glyph glyph-name="uniF62F" unicode="watermelon" vert-adv-y="90" 
d="M808 216q-122 -122 -273.5 -177.5t-294 -33t-240.5 120.5l898 899q98 -98 120.5 -241t-33 -294.5t-177.5 -273.5zM896 929l-800 -800q64 -64 160 -64q102 0 240 60.5t240 163.5q105 104 164.5 240.5t59.5 239.5q0 49 -18.5 91.5t-45.5 68.5zM864.5 769q-13.5 0 -23 9.5
t-9.5 23t9.5 22.5t23 9t22.5 -9t9 -22.5t-9 -23t-22.5 -9.5zM800.5 641q-13.5 0 -23 9.5t-9.5 22.5t9.5 22.5t22.5 9.5t22.5 -9.5t9.5 -22.5t-9 -22.5t-22.5 -9.5zM736 449q-13 0 -22.5 9.5t-9.5 22.5t9.5 22.5t22.5 9.5t22.5 -9.5t9.5 -22.5t-9.5 -22.5t-22.5 -9.5z
M672 577q-13 0 -22.5 9.5t-9.5 22.5t9.5 22.5t22.5 9.5t22.5 -9.5t9.5 -22.5t-9.5 -22.5t-22.5 -9.5zM608 449q-13 0 -22.5 9.5t-9.5 22.5t9.5 22.5t22.5 9.5t22.5 -9.5t9.5 -22.5t-9.5 -22.5t-22.5 -9.5zM544 321q-13 0 -22.5 9.5t-9.5 22.5t9.5 22.5t22.5 9.5t22.5 -9.5
t9.5 -22.5t-9.5 -22.5t-22.5 -9.5zM480 385q-13 0 -22.5 9.5t-9.5 22.5t9.5 22.5t22.5 9.5t22.5 -9.5t9.5 -22.5t-9.5 -22.5t-22.5 -9.5zM416 257q-13 0 -22.5 9.5t-9.5 22.5t9.5 22.5t22.5 9.5t22.5 -9.5t9.5 -22.5t-9.5 -22.5t-22.5 -9.5zM288 193q-13 0 -22.5 9
t-9.5 22.5t9.5 23t22.5 9.5t22.5 -9.5t9.5 -23t-9.5 -22.5t-22.5 -9zM223.5 129q-13.5 0 -22.5 9t-9 22.5t9 23t22.5 9.5t23 -9.5t9.5 -23t-9.5 -22.5t-23 -9zM416 193q13 0 22.5 -9.5t9.5 -23t-9.5 -22.5t-22.5 -9t-22.5 9t-9.5 22.5t9.5 23t22.5 9.5zM544 257
q13 0 22.5 -9.5t9.5 -23t-9.5 -22.5t-22.5 -9t-22.5 9.5t-9.5 22.5t9.5 22.5t22.5 9.5zM672 385q13 0 22.5 -9.5t9.5 -22.5t-9.5 -22.5t-22.5 -9.5t-22.5 9.5t-9.5 22.5t9.5 22.5t22.5 9.5zM864.5 577q13.5 0 22.5 -9.5t9 -22.5t-9 -22.5t-22.5 -9.5t-23 9.5t-9.5 22.5
t9.5 22.5t23 9.5z" />
    <glyph glyph-name="uniF630" unicode="onion" vert-adv-y="90" 
d="M512 0q-108 0 -199.5 24.5t-162 72t-110.5 124t-40 173.5q0 57 30 113t80.5 101t109.5 81.5t123 60.5q29 28 48 56t25.5 56t8.5 44t2 39q0 33 25 56t60 23v-79q35 0 60 -23t25 -56q0 -31 9.5 -43.5t74.5 -72.5q63 -24 122.5 -60t110 -81.5t80.5 -101.5t30 -113
q0 -97 -40 -173.5t-110.5 -124t-162 -72t-199.5 -24.5zM192 384q0 -115 50 -199t134 -123q-55 54 -87.5 143.5t-32.5 194.5q0 140 84 264q-66 -50 -107 -122t-41 -158zM384 384q0 75 4 123t14.5 74t19 36t26.5 23q-22 -8 -43 -25t-40.5 -45t-32 -71.5t-12.5 -96.5
q0 -148 55 -236.5t137 -101.5q-55 18 -91.5 96.5t-36.5 223.5zM684 664q84 -124 84 -264q0 -105 -32.5 -194.5t-87.5 -143.5q84 39 134 123t50 199q0 86 -41 158t-107 122z" />
    <glyph glyph-name="uniF631" unicode="turnip" vert-adv-y="90" 
d="M989 895q-75 -23 -106.5 -66.5t-21.5 -85.5q99 -132 99 -263q0 -84 -32.5 -151.5t-89.5 -111t-132 -66.5t-162 -23q-62 0 -111.5 -13t-79.5 -32t-55 -38t-51 -32t-55 -13q-93 0 -142.5 37.5t-49.5 90.5q11 -32 48 -48t80 -16q33 0 80.5 50t47.5 78q0 38 -9 61
q-56 57 -87.5 132t-31.5 159q0 87 23 162t66.5 132t111 89.5t151.5 32.5q139 0 275 -109q49 55 75 139q11 34 33 34q14 0 23.5 -10t9.5 -24q0 -21 -19 -77q32 22 66.5 34.5t45.5 12.5q15 0 25 -9.5t10 -22.5q0 -23 -35 -33z" />
    <glyph glyph-name="uniF632" unicode="eggplant" vert-adv-y="90" 
d="M992 960q-41 0 -86 -55q54 -48 54 -105q0 -72 -23 -159.5t-64 -176t-101 -172.5t-129 -148.5t-153.5 -104t-169.5 -39.5q-87 0 -160.5 43t-116.5 116.5t-43 160.5t43 160.5t116.5 116.5t160.5 43q45 0 87.5 17t72 41.5t52 52t33.5 49.5t11 32q0 42 30.5 72t72.5 43t89 13
q34 0 72 -14q24 26 59.5 45t58.5 26t31 7q15 0 25 -9.5t10 -23t-9 -22.5t-23 -9z" />
    <glyph glyph-name="uniF633" unicode="avocado" vert-adv-y="90" 
d="M514 0q-81 0 -150.5 21t-122.5 60.5t-83 102.5t-30 142q0 60 17 127t38.5 118t53.5 128t51 134q28 82 88.5 138.5t136.5 56.5t136.5 -56.5t88.5 -138.5q19 -56 51.5 -134t54 -129.5t38.5 -118.5t17 -126q0 -104 -52.5 -179t-138.5 -110.5t-194 -35.5zM706 739
q-11 36 -30 73t-43.5 72t-56 57.5t-63 22.5t-63 -22t-56.5 -57t-43.5 -72.5t-29.5 -73.5q-20 -61 -55 -145.5t-54.5 -142t-19.5 -102.5q0 -91 44 -156.5t115.5 -97t162 -31.5t162 31t115 96.5t44.5 157.5q0 45 -19 102t-54.5 142.5t-55.5 145.5zM513.5 129
q-79.5 0 -136 56.5t-56.5 136.5q0 54 25.5 113t71 101.5t96 42.5t96.5 -42.5t71 -101.5t25 -113q0 -80 -56.5 -136.5t-136 -56.5z" />
    <glyph glyph-name="uniF634" unicode="perfume" vert-adv-y="90" 
d="M1006 620q18 -18 18 -59.5t-18 -59.5q-8 -9 -22 -25.5t-51.5 -71.5t-68.5 -116q-32 -63 -32 -96q1 -63 64 -192h-767q7 14 17.5 37t28.5 74.5t18 80.5q0 16 -5.5 34t-10 27.5t-16.5 34.5q-31 60 -67 113.5t-55.5 76.5t-20.5 23q-18 18 -18 59.5t18 59.5l431 125v87
q-27 0 -45.5 18.5t-18.5 45.5q-86 0 -130 -21q-8 -46 -43.5 -76.5t-82.5 -30.5q-53 0 -90.5 37.5t-37.5 90.5t37.5 90.5t90.5 37.5q39 0 71.5 -22.5t46.5 -57.5q50 15 135 16l1 -0.5t2 -0.5v1q0 26 18.5 45t45.5 19h127q27 0 45.5 -19t18.5 -45v-64q0 -27 -18.5 -45.5
t-45.5 -18.5v-88z" />
    <glyph glyph-name="uniF635" unicode="arch" vert-adv-y="90" 
d="M832 192v128h192v-128h-192zM832 512v1v2l187 64q5 -38 5 -67v-128h-192v128zM786 677l138 138q58 -79 83 -173l-182 -62q-11 51 -39 97zM651 800l59 184q98 -41 173 -120l-136 -136q-41 45 -96 72zM512 832q-39 0 -79 -10l-59 183q70 19 138 19t137 -19l-58 -183
q-40 10 -79 10zM277 728l-136 136q75 79 173 120l59 -184q-55 -27 -96 -72zM199 580l-182 62q25 94 83 173l138 -138q-28 -46 -39 -97zM192 512v-128h-192v128q0 29 5 67l187 -64v-2v-1zM192 192h-192v128h192v-128zM192 128v-128h-192v128h192zM1024 128v-128h-192v128h192
z" />
    <glyph glyph-name="uniF636" unicode="pluspages" vert-adv-y="90" 
d="M992 0h-416v304l192 -48l-48 192h304v-416q0 -13 -9.5 -22.5t-22.5 -9.5zM768 768l-192 -48v304h416q13 0 22.5 -9.5t9.5 -22.5v-416h-304zM304 576h-304v416q0 13 9.5 22.5t22.5 9.5h416v-304l-192 48zM256 256l192 48v-304h-416q-13 0 -22.5 9.5t-9.5 22.5v416h304z
" />
    <glyph glyph-name="uniF637" unicode="community" vert-adv-y="90" 
d="M512 0q-104 0 -199 40.5t-163.5 109t-109 163.5t-40.5 199t40.5 199t109 163.5t163.5 109t199 40.5t199 -40.5t163.5 -109t109 -163.5t40.5 -199t-40.5 -199t-109 -163.5t-163.5 -109t-199 -40.5zM512 896q-104 0 -192.5 -51.5t-140 -140t-51.5 -192.5q0 -146 98 -256
h126q40 0 68 -28t28 -68v-26q34 -6 64 -6t64 6v26q0 40 28 68t68 28h126q98 110 98 256q0 104 -51.5 192.5t-140 140t-192.5 51.5zM736 320q-53 0 -90.5 37.5t-37.5 90.5t37.5 90.5t90.5 37.5t90.5 -37.5t37.5 -90.5t-37.5 -90.5t-90.5 -37.5zM512 576q-53 0 -90.5 37.5
t-37.5 90.5t37.5 90.5t90.5 37.5t90.5 -37.5t37.5 -90.5t-37.5 -90.5t-90.5 -37.5zM448 448q0 -53 -37.5 -90.5t-90.5 -37.5t-90.5 37.5t-37.5 90.5t37.5 90.5t90.5 37.5t90.5 -37.5t37.5 -90.5z" />
    <glyph glyph-name="uniF638" unicode="pluscircles" vert-adv-y="90" 
d="M613 192q-37 -86 -116.5 -139t-176.5 -53q-87 0 -160.5 43t-116.5 116.5t-43 160.5q0 97 53 176.5t139 116.5q2 112 57.5 206.5t151 149.5t207.5 55q113 0 209 -55.5t151.5 -151.5t55.5 -209q0 -112 -55 -207.5t-149.5 -151t-206.5 -57.5zM128 320q0 -80 56 -136t136 -56
q49 0 91 23t68 62q-94 30 -165 101t-101 165q-39 -26 -62 -68t-23 -91zM510 337q-6 69 -55 118t-118 55q22 -60 67.5 -105.5t105.5 -67.5zM608 896q-111 0 -192.5 -74t-93.5 -182q131 -1 224 -94t94 -224q108 12 182 93.5t74 192.5q0 119 -84.5 203.5t-203.5 84.5zM128 768
q-53 0 -90.5 37.5t-37.5 90.5t37.5 90.5t90.5 37.5t90.5 -37.5t37.5 -90.5t-37.5 -90.5t-90.5 -37.5zM128 960q-27 0 -45.5 -19t-18.5 -45.5t19 -45t45.5 -18.5t45 18.5t18.5 45t-18.5 45.5t-45.5 19z" />
    <glyph glyph-name="uniF639" unicode="googleplusold" vert-adv-y="90" 
d="M896 0h-288q-13 0 -22.5 9.5t-9.5 22.5v64q0 13 9.5 22.5t22.5 9.5h288v288q0 13 9.5 22.5t22.5 9.5h64q13 0 22.5 -9.5t9.5 -22.5v-288q0 -53 -37.5 -90.5t-90.5 -37.5zM992 576h-64q-13 0 -22.5 9.5t-9.5 22.5v288h-288q-13 0 -22.5 9.5t-9.5 22.5v64q0 13 9.5 22.5
t22.5 9.5h288q53 0 90.5 -37.5t37.5 -90.5v-288q0 -13 -9.5 -22.5t-22.5 -9.5zM576 576h160q13 0 22.5 -9.5t9.5 -22.5v-64q0 -13 -9.5 -22.5t-22.5 -9.5h-160v-160q0 -13 -9.5 -22.5t-22.5 -9.5h-64q-13 0 -22.5 9.5t-9.5 22.5v160h-160q-13 0 -22.5 9.5t-9.5 22.5v64
q0 13 9.5 22.5t22.5 9.5h160v160q0 13 9.5 22.5t22.5 9.5h64q13 0 22.5 -9.5t9.5 -22.5v-160zM416 896h-288v-288q0 -13 -9.5 -22.5t-22.5 -9.5h-64q-13 0 -22.5 9.5t-9.5 22.5v288q0 53 37.5 90.5t90.5 37.5h288q13 0 22.5 -9.5t9.5 -22.5v-64q0 -13 -9.5 -22.5t-22.5 -9.5
zM32 448h64q13 0 22.5 -9.5t9.5 -22.5v-288h288q13 0 22.5 -9.5t9.5 -22.5v-64q0 -13 -9.5 -22.5t-22.5 -9.5h-288q-53 0 -90.5 37.5t-37.5 90.5v288q0 13 9.5 22.5t22.5 9.5z" />
    <glyph glyph-name="uniF63A" unicode="plusgames" vert-adv-y="90" 
d="M1006 783l-135 -135q25 -67 25 -136t-25 -136l134 -134q18 -18 18 -44.5t-18 -44.5l-134 -134q-18 -18 -44.5 -18t-44.5 18l-134 134q-67 -25 -136 -25t-136 25l-135 -135q-18 -18 -44 -18t-45 18l-134 134q-18 19 -18 45t18 44l135 135q-25 67 -25 136t26 136l-135 135
q-19 18 -19 44.5t19 44.5l133 134q18 18 44.5 18t44.5 -18l135 -136q67 26 136 26t136 -25l135 135q18 18 44 18t45 -18l134 -134q18 -19 18 -45t-18 -44zM512.5 704q-79.5 0 -136 -56.5t-56.5 -135.5t56.5 -135.5t136 -56.5t135.5 56.5t56 135.5t-56 135.5t-135.5 56.5z
" />
    <glyph glyph-name="uniF63B" unicode="event" vert-adv-y="90" 
d="M960 64h-896q-27 0 -45.5 18.5t-18.5 45.5v512h1024v-512q0 -27 -18.5 -45.5t-45.5 -18.5zM768 448h-256v-192h256v192zM0 832q0 27 19 45.5t45 18.5h64v64q0 26 19 45t45.5 19t45 -19t18.5 -45v-64h512v64q0 26 19 45t45.5 19t45 -19t18.5 -45v-64h64q27 0 45.5 -19
t18.5 -45v-128h-1024v128z" />
    <glyph glyph-name="uniF63C" unicode="miui" vert-adv-y="90" 
d="M832 192v640h192v-640h-192zM512 576q0 27 -18.5 45.5t-45.5 18.5h-256v-448h-192v640h512q80 0 136 -56t56 -136v-448h-192v384zM448 192h-192v384h192v-384z" />
    <glyph glyph-name="uniF63D" unicode="hot" vert-adv-y="90" 
d="M480 0q-113 0 -209 55.5t-151.5 151.5t-55.5 209q0 44 13 79.5t32 63.5t38 61t32 87t13 125q0 -10 10.5 -19.5t25 -19t32 -33.5t28.5 -56q16 -49 52 -88.5t76 -39.5q52 0 88.5 59t54 159t17.5 230q15 -44 46 -92t65.5 -87t72.5 -89t67.5 -97.5t49 -111t19.5 -131.5
q0 -113 -55.5 -209t-151.5 -151.5t-209 -55.5zM608 640q-51 -136 -96 -192q-19 -24 -47.5 -43t-52 -30.5t-45.5 -26t-34.5 -37t-12.5 -55.5q0 -61 47.5 -94.5t112.5 -33.5q96 0 160 50.5t64 137.5q0 67 -11 115.5t-25 72t-32 60t-28 76.5z" />
    <glyph glyph-name="uniF63E" unicode="flowdown" vert-adv-y="90" 
d="M1012 702l-194 -181q-20 -24 -49 11v108h-129q-26 0 -45 -18.5t-19 -45.5v-192v0q0 -70 -19.5 -120.5t-55.5 -79.5t-81 -42.5t-100 -13.5h-320v192h320q27 0 45.5 19t18.5 45v192v0q0 70 20 121t55.5 79.5t80.5 42t100 13.5h129v108q29 34 49 11l194 -182
q12 -14 12 -33.5t-12 -33.5z" />
    <glyph glyph-name="uniF63F" unicode="flowup" vert-adv-y="90" 
d="M1012 322l-194 182q-20 23 -49 -12v-108h-129q-26 0 -45 19t-19 45v192v0q0 70 -19.5 121t-55.5 80t-80.5 42t-100.5 13h-320v-192h320q27 0 45.5 -18.5t18.5 -45.5v-192v0q0 -70 20 -120.5t55.5 -79.5t80.5 -42.5t100 -13.5h129v-107q29 -35 49 -12l194 182
q12 14 12 33.5t-12 33.5z" />
    <glyph glyph-name="uniF640" unicode="moustache" vert-adv-y="90" 
d="M853 384q-50 0 -104 8.5t-107 26t-89 50.5t-40 75h-2q-4 -42 -40 -75t-89 -50.5t-107 -26t-104 -8.5q-26 0 -46 1.5t-44.5 7t-41 15.5t-28 28.5t-11.5 43.5q0 96 96 96q20 0 28.5 -16t0 -32t-28.5 -16q-4 -1 -9 -2.5t-14 -10t-9 -19.5q0 -32 96 -32q36 0 66 17t30 47
q0 58 36.5 93t91.5 35q43 0 77 -18.5t46 -45.5h10q12 27 46 45.5t77 18.5q55 0 91.5 -35t36.5 -93q0 -30 30 -47t66 -17q96 0 96 32q0 11 -8 19t-16 11l-8 2q-20 0 -28.5 16t0 32t28.5 16q96 0 96 -96q0 -25 -11.5 -43.5t-28 -28.5t-41 -15.5t-44.5 -7t-46 -1.5z" />
    <glyph glyph-name="uniF641" unicode="angle" vert-adv-y="90" 
d="M960 0h-896q-26 0 -45 18.5t-19 45.5v896q0 26 19 45t45.5 19t45 -19t18.5 -45v-832h832q27 0 45.5 -19t18.5 -45.5t-18.5 -45t-45.5 -18.5zM192 885v65q194 -28 357 -133t268 -268t133 -357h-65q-27 176 -123.5 324.5t-245 245t-324.5 123.5z" />
    <glyph glyph-name="uniF642" unicode="sleep" vert-adv-y="90" 
d="M734 576h258q13 0 22.5 -9.5t9.5 -22.5t-9.5 -22.5t-22.5 -9.5h-320q-13 0 -22.5 9.5t-9.5 22.5q0 14 10 23l280 393h-258q-13 0 -22.5 9.5t-9.5 22.5t9.5 22.5t22.5 9.5h320q12 0 22 -11.5t10 -20.5t-8 -21zM576 224q0 -13 -9.5 -22.5t-22.5 -9.5h-256q-13 0 -22.5 9.5
t-9.5 22.5q0 14 10 23l216 265h-194q-13 0 -22.5 9.5t-9.5 22.5t9.5 22.5t22.5 9.5h256q12 0 22 -11.5t10 -20.5t-8 -21l-218 -267h194q13 0 22.5 -9.5t9.5 -22.5zM192 32q0 -13 -9.5 -22.5t-22.5 -9.5h-128q-13 0 -22.5 9.5t-9.5 22.5q0 14 10 23l88 137h-66
q-13 0 -22.5 9.5t-9.5 22.5t9.5 22.5t22.5 9.5h128q12 0 22 -11.5t10 -20.5t-8 -21l-90 -139h66q13 0 22.5 -9.5t9.5 -22.5z" />
    <glyph glyph-name="uniF643" unicode="acorn" vert-adv-y="90" 
d="M928 895q-35 0 -65.5 -46.5t-36.5 -96.5q122 -132 173 -254.5t2 -171.5q-45 -45 -122 -71q-15 63 -85 163.5t-172.5 203t-203 172t-163.5 85.5q26 76 72 121q46 44 152.5 5.5t228.5 -141.5q2 2 16.5 13.5t19 14.5t19 13.5t22.5 14t22.5 12t26 11.5t27 7.5t31.5 6.5t33 2
q14 0 24.5 -9.5t10 -23.5t-9 -22.5t-22.5 -8.5zM576 575q156 -156 237 -311q-36 -49 -80 -93q-60 -60 -130.5 -98.5t-132.5 -54t-129 -17.5t-114 4t-93 18t-61 17.5t-23 9.5q-4 8 -9.5 22.5t-17.5 61t-18 93t-4 113.5t17.5 129t54.5 132.5t98 130.5q45 44 93 80
q156 -81 312 -237z" />
    <glyph glyph-name="uniF644" unicode="steam" vert-adv-y="90" 
d="M703.5 896q79.5 0 136 -56.5t56.5 -136t-56.5 -135.5t-136 -56t-135.5 56t-56 135.5t56 136t135.5 56.5zM704 576q53 0 90.5 37.5t37.5 90.5t-37.5 90.5t-90.5 37.5t-90.5 -37.5t-37.5 -90.5t37.5 -90.5t90.5 -37.5zM364.5 275.5q19.5 19.5 19.5 47t-20 47.5l-99 65
q27 13 55 13q53 0 90.5 -37.5t37.5 -90.5t-37.5 -90.5t-90.5 -37.5t-90.5 37.5t-37.5 90.5q0 2 0.5 5.5t0.5 4.5l78 -54q19 -20 46.5 -20t47 19.5zM896 0h-768q-53 0 -90.5 37.5t-37.5 90.5v336l136 -94q-8 -27 -8 -50q0 -80 56.5 -136t136 -56t135.5 56t56 136q0 3 -2 22
l157 109q21 -3 37 -3q106 0 180.5 75t74.5 181t-74.5 181t-180.5 75t-181 -75t-75 -181q0 -16 3 -37l-108 -157q-20 2 -23 2q-62 0 -113 -38l-207 137v285q0 53 37.5 90.5t90.5 37.5h768q53 0 90.5 -37.5t37.5 -90.5v-768q0 -53 -37.5 -90.5t-90.5 -37.5z" />
    <glyph glyph-name="uniF645" unicode="resi&#x7a;eupleft" vert-adv-y="90" 
d="M992 0h-512q-13 0 -22.5 9.5t-9.5 22.5v512q0 13 9.5 22.5t22.5 9.5h512q13 0 22.5 -9.5t9.5 -22.5v-512q0 -13 -9.5 -22.5t-22.5 -9.5zM992 640h-64q-13 0 -22.5 9.5t-9.5 22.5v64q0 13 9.5 22.5t22.5 9.5h64q13 0 22.5 -9.5t9.5 -22.5v-64q0 -13 -9.5 -22.5t-22.5 -9.5
zM992 832h-64q-13 0 -22.5 9.5t-9.5 22.5v32h-32q-13 0 -22.5 9.5t-9.5 22.5v64q0 13 9.5 22.5t22.5 9.5h128q13 0 22.5 -9.5t9.5 -22.5v-128q0 -13 -9.5 -22.5t-22.5 -9.5zM736 896h-64q-13 0 -22.5 9.5t-9.5 22.5v64q0 13 9.5 22.5t22.5 9.5h64q13 0 22.5 -9.5t9.5 -22.5
v-64q0 -13 -9.5 -22.5t-22.5 -9.5zM544 896h-64q-13 0 -22.5 9.5t-9.5 22.5v64q0 13 9.5 22.5t22.5 9.5h64q13 0 22.5 -9.5t9.5 -22.5v-64q0 -13 -9.5 -22.5t-22.5 -9.5zM352 0h-64q-13 0 -22.5 9.5t-9.5 22.5v64q0 13 9.5 22.5t22.5 9.5h64q13 0 22.5 -9.5t9.5 -22.5v-64
q0 -13 -9.5 -22.5t-22.5 -9.5zM352 896h-64q-13 0 -22.5 9.5t-9.5 22.5v64q0 13 9.5 22.5t22.5 9.5h64q13 0 22.5 -9.5t9.5 -22.5v-64q0 -13 -9.5 -22.5t-22.5 -9.5zM160 0h-128q-13 0 -22.5 9.5t-9.5 22.5v128q0 13 9.5 22.5t22.5 9.5h64q13 0 22.5 -9.5t9.5 -22.5v-32h32
q13 0 22.5 -9.5t9.5 -22.5v-64q0 -13 -9.5 -22.5t-22.5 -9.5zM160 896h-32v-32q0 -13 -9.5 -22.5t-22.5 -9.5h-64q-13 0 -22.5 9.5t-9.5 22.5v128q0 13 9.5 22.5t22.5 9.5h128q13 0 22.5 -9.5t9.5 -22.5v-64q0 -13 -9.5 -22.5t-22.5 -9.5zM32 768h64q13 0 22.5 -9.5
t9.5 -22.5v-64q0 -13 -9.5 -22.5t-22.5 -9.5h-64q-13 0 -22.5 9.5t-9.5 22.5v64q0 13 9.5 22.5t22.5 9.5zM32 576h64q13 0 22.5 -9.5t9.5 -22.5v-64q0 -13 -9.5 -22.5t-22.5 -9.5h-64q-13 0 -22.5 9.5t-9.5 22.5v64q0 13 9.5 22.5t22.5 9.5zM32 384h64q13 0 22.5 -9.5
t9.5 -22.5v-64q0 -13 -9.5 -22.5t-22.5 -9.5h-64q-13 0 -22.5 9.5t-9.5 22.5v64q0 13 9.5 22.5t22.5 9.5z" />
    <glyph glyph-name="uniF646" unicode="resi&#x7a;eupright" vert-adv-y="90" 
d="M992 0h-128q-13 0 -22.5 9.5t-9.5 22.5v64q0 13 9.5 22.5t22.5 9.5h32v32q0 13 9.5 22.5t22.5 9.5h64q13 0 22.5 -9.5t9.5 -22.5v-128q0 -13 -9.5 -22.5t-22.5 -9.5zM992 256h-64q-13 0 -22.5 9.5t-9.5 22.5v64q0 13 9.5 22.5t22.5 9.5h64q13 0 22.5 -9.5t9.5 -22.5v-64
q0 -13 -9.5 -22.5t-22.5 -9.5zM992 448h-64q-13 0 -22.5 9.5t-9.5 22.5v64q0 13 9.5 22.5t22.5 9.5h64q13 0 22.5 -9.5t9.5 -22.5v-64q0 -13 -9.5 -22.5t-22.5 -9.5zM992 640h-64q-13 0 -22.5 9.5t-9.5 22.5v64q0 13 9.5 22.5t22.5 9.5h64q13 0 22.5 -9.5t9.5 -22.5v-64
q0 -13 -9.5 -22.5t-22.5 -9.5zM992 832h-64q-13 0 -22.5 9.5t-9.5 22.5v32h-32q-13 0 -22.5 9.5t-9.5 22.5v64q0 13 9.5 22.5t22.5 9.5h128q13 0 22.5 -9.5t9.5 -22.5v-128q0 -13 -9.5 -22.5t-22.5 -9.5zM736 0h-64q-13 0 -22.5 9.5t-9.5 22.5v64q0 13 9.5 22.5t22.5 9.5h64
q13 0 22.5 -9.5t9.5 -22.5v-64q0 -13 -9.5 -22.5t-22.5 -9.5zM736 896h-64q-13 0 -22.5 9.5t-9.5 22.5v64q0 13 9.5 22.5t22.5 9.5h64q13 0 22.5 -9.5t9.5 -22.5v-64q0 -13 -9.5 -22.5t-22.5 -9.5zM544 896h-64q-13 0 -22.5 9.5t-9.5 22.5v64q0 13 9.5 22.5t22.5 9.5h64
q13 0 22.5 -9.5t9.5 -22.5v-64q0 -13 -9.5 -22.5t-22.5 -9.5zM352 896h-64q-13 0 -22.5 9.5t-9.5 22.5v64q0 13 9.5 22.5t22.5 9.5h64q13 0 22.5 -9.5t9.5 -22.5v-64q0 -13 -9.5 -22.5t-22.5 -9.5zM160 896h-32v-32q0 -13 -9.5 -22.5t-22.5 -9.5h-64q-13 0 -22.5 9.5
t-9.5 22.5v128q0 13 9.5 22.5t22.5 9.5h128q13 0 22.5 -9.5t9.5 -22.5v-64q0 -13 -9.5 -22.5t-22.5 -9.5zM32 768h64q13 0 22.5 -9.5t9.5 -22.5v-64q0 -13 -9.5 -22.5t-22.5 -9.5h-64q-13 0 -22.5 9.5t-9.5 22.5v64q0 13 9.5 22.5t22.5 9.5zM32 576h512q13 0 22.5 -9.5
t9.5 -22.5v-512q0 -13 -9.5 -22.5t-22.5 -9.5h-512q-13 0 -22.5 9.5t-9.5 22.5v512q0 13 9.5 22.5t22.5 9.5z" />
    <glyph glyph-name="uniF647" unicode="resi&#x7a;edownright" vert-adv-y="90" 
d="M992 0h-128q-13 0 -22.5 9.5t-9.5 22.5v64q0 13 9.5 22.5t22.5 9.5h32v32q0 13 9.5 22.5t22.5 9.5h64q13 0 22.5 -9.5t9.5 -22.5v-128q0 -13 -9.5 -22.5t-22.5 -9.5zM992 256h-64q-13 0 -22.5 9.5t-9.5 22.5v64q0 13 9.5 22.5t22.5 9.5h64q13 0 22.5 -9.5t9.5 -22.5v-64
q0 -13 -9.5 -22.5t-22.5 -9.5zM992 448h-64q-13 0 -22.5 9.5t-9.5 22.5v64q0 13 9.5 22.5t22.5 9.5h64q13 0 22.5 -9.5t9.5 -22.5v-64q0 -13 -9.5 -22.5t-22.5 -9.5zM992 640h-64q-13 0 -22.5 9.5t-9.5 22.5v64q0 13 9.5 22.5t22.5 9.5h64q13 0 22.5 -9.5t9.5 -22.5v-64
q0 -13 -9.5 -22.5t-22.5 -9.5zM992 832h-64q-13 0 -22.5 9.5t-9.5 22.5v32h-32q-13 0 -22.5 9.5t-9.5 22.5v64q0 13 9.5 22.5t22.5 9.5h128q13 0 22.5 -9.5t9.5 -22.5v-128q0 -13 -9.5 -22.5t-22.5 -9.5zM736 0h-64q-13 0 -22.5 9.5t-9.5 22.5v64q0 13 9.5 22.5t22.5 9.5h64
q13 0 22.5 -9.5t9.5 -22.5v-64q0 -13 -9.5 -22.5t-22.5 -9.5zM736 896h-64q-13 0 -22.5 9.5t-9.5 22.5v64q0 13 9.5 22.5t22.5 9.5h64q13 0 22.5 -9.5t9.5 -22.5v-64q0 -13 -9.5 -22.5t-22.5 -9.5zM544 0h-64q-13 0 -22.5 9.5t-9.5 22.5v64q0 13 9.5 22.5t22.5 9.5h64
q13 0 22.5 -9.5t9.5 -22.5v-64q0 -13 -9.5 -22.5t-22.5 -9.5zM544 448h-512q-13 0 -22.5 9.5t-9.5 22.5v512q0 13 9.5 22.5t22.5 9.5h512q13 0 22.5 -9.5t9.5 -22.5v-512q0 -13 -9.5 -22.5t-22.5 -9.5zM32 384h64q13 0 22.5 -9.5t9.5 -22.5v-64q0 -13 -9.5 -22.5t-22.5 -9.5
h-64q-13 0 -22.5 9.5t-9.5 22.5v64q0 13 9.5 22.5t22.5 9.5zM32 192h64q13 0 22.5 -9.5t9.5 -22.5v-32h32q13 0 22.5 -9.5t9.5 -22.5v-64q0 -13 -9.5 -22.5t-22.5 -9.5h-128q-13 0 -22.5 9.5t-9.5 22.5v128q0 13 9.5 22.5t22.5 9.5zM288 128h64q13 0 22.5 -9.5t9.5 -22.5
v-64q0 -13 -9.5 -22.5t-22.5 -9.5h-64q-13 0 -22.5 9.5t-9.5 22.5v64q0 13 9.5 22.5t22.5 9.5z" />
    <glyph glyph-name="uniF648" unicode="resi&#x7a;edownleft" vert-adv-y="90" 
d="M992 0h-128q-13 0 -22.5 9.5t-9.5 22.5v64q0 13 9.5 22.5t22.5 9.5h32v32q0 13 9.5 22.5t22.5 9.5h64q13 0 22.5 -9.5t9.5 -22.5v-128q0 -13 -9.5 -22.5t-22.5 -9.5zM992 256h-64q-13 0 -22.5 9.5t-9.5 22.5v64q0 13 9.5 22.5t22.5 9.5h64q13 0 22.5 -9.5t9.5 -22.5v-64
q0 -13 -9.5 -22.5t-22.5 -9.5zM992 448h-512q-13 0 -22.5 9.5t-9.5 22.5v512q0 13 9.5 22.5t22.5 9.5h512q13 0 22.5 -9.5t9.5 -22.5v-512q0 -13 -9.5 -22.5t-22.5 -9.5zM480 128h64q13 0 22.5 -9.5t9.5 -22.5v-64q0 -13 -9.5 -22.5t-22.5 -9.5h-64q-13 0 -22.5 9.5
t-9.5 22.5v64q0 13 9.5 22.5t22.5 9.5zM352 0h-64q-13 0 -22.5 9.5t-9.5 22.5v64q0 13 9.5 22.5t22.5 9.5h64q13 0 22.5 -9.5t9.5 -22.5v-64q0 -13 -9.5 -22.5t-22.5 -9.5zM352 896h-64q-13 0 -22.5 9.5t-9.5 22.5v64q0 13 9.5 22.5t22.5 9.5h64q13 0 22.5 -9.5t9.5 -22.5
v-64q0 -13 -9.5 -22.5t-22.5 -9.5zM160 0h-128q-13 0 -22.5 9.5t-9.5 22.5v128q0 13 9.5 22.5t22.5 9.5h64q13 0 22.5 -9.5t9.5 -22.5v-32h32q13 0 22.5 -9.5t9.5 -22.5v-64q0 -13 -9.5 -22.5t-22.5 -9.5zM160 896h-32v-32q0 -13 -9.5 -22.5t-22.5 -9.5h-64q-13 0 -22.5 9.5
t-9.5 22.5v128q0 13 9.5 22.5t22.5 9.5h128q13 0 22.5 -9.5t9.5 -22.5v-64q0 -13 -9.5 -22.5t-22.5 -9.5zM32 768h64q13 0 22.5 -9.5t9.5 -22.5v-64q0 -13 -9.5 -22.5t-22.5 -9.5h-64q-13 0 -22.5 9.5t-9.5 22.5v64q0 13 9.5 22.5t22.5 9.5zM32 576h64q13 0 22.5 -9.5
t9.5 -22.5v-64q0 -13 -9.5 -22.5t-22.5 -9.5h-64q-13 0 -22.5 9.5t-9.5 22.5v64q0 13 9.5 22.5t22.5 9.5zM32 384h64q13 0 22.5 -9.5t9.5 -22.5v-64q0 -13 -9.5 -22.5t-22.5 -9.5h-64q-13 0 -22.5 9.5t-9.5 22.5v64q0 13 9.5 22.5t22.5 9.5zM672 128h64q13 0 22.5 -9.5
t9.5 -22.5v-64q0 -13 -9.5 -22.5t-22.5 -9.5h-64q-13 0 -22.5 9.5t-9.5 22.5v64q0 13 9.5 22.5t22.5 9.5z" />
    </font>
</defs>
</svg>
