<svg width="20" height="15" viewBox="0 0 20 15" fill="none" xmlns="http://www.w3.org/2000/svg">
<path fill-rule="evenodd" clip-rule="evenodd" d="M7.5 0C3.35786 0 0 3.35786 0 7.5C0 11.6421 3.35786 15 7.5 15H12.5C16.6421 15 20 11.6421 20 7.5C20 3.35786 16.6421 0 12.5 0H7.5ZM12 4.48012C12 4.27787 12.2276 4.15933 12.3933 4.27531L16.7074 7.29515C16.8496 7.39467 16.8496 7.60524 16.7074 7.70476L12.3933 10.7246C12.2276 10.8406 12 10.722 12 10.5198V4.48012ZM7.99998 4.48013C7.99998 4.27787 7.77231 4.15933 7.60662 4.27532L3.29257 7.29516C3.15039 7.39468 3.15039 7.60525 3.29257 7.70477L7.60662 10.7246C7.77231 10.8406 7.99998 10.7221 7.99998 10.5198V4.48013Z" fill="#6B6B6B"/>
</svg>
