<svg width="15" height="15" viewBox="0 0 15 15" fill="none" xmlns="http://www.w3.org/2000/svg">
<path fill-rule="evenodd" clip-rule="evenodd" d="M7.5 0C3.35786 0 0 3.35786 0 7.5C0 11.6421 3.35786 15 7.5 15C11.6421 15 15 11.6421 15 7.5C15 3.35786 11.6421 0 7.5 0ZM6.5 3.5C6.5 3.22386 6.72386 3 7 3H8C8.27614 3 8.5 3.22386 8.5 3.5V6.5H11.5C11.7761 6.5 12 6.72386 12 7V8C12 8.27614 11.7761 8.5 11.5 8.5H8.5V11.5C8.5 11.7761 8.27614 12 8 12H7C6.72386 12 6.5 11.7761 6.5 11.5V8.5H3.5C3.22386 8.5 3 8.27614 3 8V7C3 6.72386 3.22386 6.5 3.5 6.5L6.5 6.5V3.5Z" fill="#6B6B6B"/>
</svg>
