<svg version="1.1" width="36" height="36"  viewBox="0 0 36 36" preserveAspectRatio="xMidYMid meet" xmlns="http://www.w3.org/2000/svg" xmlns:xlink="http://www.w3.org/1999/xlink">
    <title>code-line</title>
    <path d="M13.71,12.59a1,1,0,0,0-1.39-.26L5.79,16.78a1,1,0,0,0,0,1.65l6.53,4.45a1,1,0,1,0,1.13-1.65L8.13,17.61,13.45,14A1,1,0,0,0,13.71,12.59Z" class="clr-i-outline clr-i-outline-path-1"></path><path d="M30.21,16.78l-6.53-4.45A1,1,0,1,0,22.55,14l5.32,3.63-5.32,3.63a1,1,0,0,0,1.13,1.65l6.53-4.45a1,1,0,0,0,0-1.65Z" class="clr-i-outline clr-i-outline-path-2"></path>
    <rect x="0" y="0" width="36" height="36" fill-opacity="0"/>
</svg>
