<?xml version="1.0" encoding="UTF-8"?>
<svg id="Layer_1" data-name="Layer 1" xmlns="http://www.w3.org/2000/svg" viewBox="0 0 500 94.33">
  <defs>
    <style>
      .cls-1 {
        fill: #fff;
      }
    </style>
  </defs>
  <path class="cls-1" d="M11.5,13.79c0-3.35,2.49-5.62,6.38-5.62h18.59c16.86,0,28.32,9.29,28.32,22.91s-11.35,23.34-28.32,23.34h-2.59c-6.49,0-9.84,3.35-9.84,8.75v15.24c0,4.32-2.49,7.02-6.27,7.02s-6.27-2.7-6.27-7.02V13.79ZM24.04,33.14c0,6.81,3.46,10.05,10.05,10.05h1.62c9.3,0,16.1-3.78,16.1-12.1s-6.81-12.1-16.1-12.1h-1.62c-6.59,0-10.05,3.24-10.05,10.05v4.11ZM64.79,79.5c0,3.57,2.49,5.94,6.27,5.94,2.49,0,4.76-1.62,6.05-4.97l2.27-6.05c1.84-4.86,5.08-7.13,8.65-7.13h20.54c3.57,0,6.81,2.27,8.65,7.13l2.27,6.05c1.3,3.35,3.57,4.97,6.05,4.97,3.78,0,6.27-2.38,6.27-5.94,0-.97-.22-2.16-.65-3.35l-24.54-63.76c-1.51-3.89-4.97-5.84-8.32-5.84s-6.81,1.95-8.32,5.84l-24.54,63.76c-.43,1.19-.65,2.38-.65,3.35ZM88.67,50.54c0-1.19.32-2.27.86-3.89l4.65-12.86c.86-2.49,2.38-3.67,4.11-3.67s3.24,1.19,4.11,3.67l4.65,12.86c.54,1.62.86,2.7.86,3.89,0,3.24-1.84,5.51-6.7,5.51h-5.84c-4.86,0-6.7-2.27-6.7-5.51ZM127.69,14.01c0-3.46,2.49-5.84,6.49-5.84h49.72c4,0,6.49,2.38,6.49,5.84s-2.49,5.84-6.49,5.84h-8.32c-6.59,0-10.16,3.35-10.16,11.02v47.44c0,4.43-2.49,7.13-6.38,7.13s-6.38-2.7-6.38-7.13V30.87c0-7.67-3.57-11.02-10.16-11.02h-8.32c-4,0-6.49-2.38-6.49-5.84ZM202.06,78.42c0,4.32,2.49,7.02,6.27,7.02s6.27-2.7,6.27-7.02v-17.18c0-4.86,2.81-6.92,6.27-6.92h.87c2.27,0,4.54,1.4,5.94,3.46l16.43,24.1c1.51,2.27,3.46,3.57,5.94,3.57,3.24,0,5.84-2.7,5.84-5.94,0-1.3-.43-2.7-1.4-4.11l-10.92-15.35c-1.3-1.84-1.84-3.35-1.84-4.65,0-2.7,2.38-4.65,5.19-6.7,5.08-3.78,10.59-8.75,10.59-18.26,0-13.29-10.38-22.26-27.45-22.26h-21.72c-3.89,0-6.27,2.27-6.27,5.62v64.63ZM214.59,32.17v-3.24c0-7.02,3.68-9.94,9.3-9.94h5.4c9.29,0,15.24,3.46,15.24,11.46s-6.27,11.67-15.56,11.67h-5.08c-5.62,0-9.3-2.92-9.3-9.94ZM273.5,78.21V13.79c0-3.35,2.38-5.62,6.27-5.62h40.86c3.89,0,6.27,2.27,6.27,5.62s-2.38,5.62-6.27,5.62h-25.83c-5.08,0-8.76,3.03-8.76,8.75v2.38c0,5.73,3.68,8.75,8.76,8.75h20c3.89,0,6.27,2.27,6.27,5.62s-2.38,5.62-6.27,5.62h-19.24c-5.08,0-9.51,3.13-9.51,9.51v3.03c0,6.38,4.43,9.51,9.51,9.51h25.08c3.89,0,6.27,2.27,6.27,5.62s-2.38,5.62-6.27,5.62h-40.86c-3.89,0-6.27-2.27-6.27-5.62ZM334.35,46c0-23.34,17.51-39.45,38.05-39.45s38.05,16.1,38.05,39.45-17.51,39.45-38.05,39.45-38.05-16.1-38.05-39.45ZM348.62,46c0,16.43,9.73,26.91,23.78,26.91s23.78-10.48,23.78-26.91-9.73-26.91-23.78-26.91-23.78,10.37-23.78,26.91ZM425.47,78.42c0,4.32,2.49,7.02,6.27,7.02s6.27-2.7,6.27-7.02v-33.07c0-4,2.38-5.94,4.86-5.94,1.95,0,3.57,1.08,4.76,3.03l20.75,34.69c2.81,4.76,5.4,8.32,10.7,8.32s8.76-3.67,8.76-9.62V13.58c0-4.32-2.49-7.02-6.27-7.02s-6.27,2.7-6.27,7.02v33.07c0,4-2.38,5.94-4.86,5.94-1.94,0-3.57-1.08-4.76-3.03l-20.75-34.69c-2.81-4.76-5.4-8.32-10.7-8.32s-8.76,3.67-8.76,9.62v62.25Z"/>
</svg>