<?xml version="1.0" encoding="UTF-8"?>
<!-- Generator: Adobe Illustrator 15.0.0, SVG Export Plug-In . SVG Version: 6.00 Build 0)  -->
<!DOCTYPE svg PUBLIC "-//W3C//DTD SVG 1.1//EN" "http://www.w3.org/Graphics/SVG/1.1/DTD/svg11.dtd">
<svg version="1.1" id="Layer_1" xmlns="http://www.w3.org/2000/svg" xmlns:xlink="http://www.w3.org/1999/xlink" x="0px" y="0px" width="286.048px" height="76.225px" viewBox="121.565 23.381 286.048 76.225" enable-background="new 121.565 23.381 286.048 76.225" xml:space="preserve">
<g id="Layer_1_1_">
	<g>
		<g>
			<g>
				<g>
					<path fill="#FFFFFF" d="M314.585,23.381h-22.25c-1.521,0-2.816,1.107-3.053,2.609l-8.998,57.053       c-0.178,1.126,0.691,2.146,1.832,2.146h11.416c1.064,0,1.973-0.775,2.137-1.827l2.553-16.175       c0.236-1.503,1.531-2.609,3.054-2.609h7.041c14.655,0,23.113-7.093,25.324-21.151c0.995-6.147,0.04-10.979-2.839-14.36       C327.638,25.347,322.029,23.381,314.585,23.381z M317.153,44.218c-1.216,7.987-7.315,7.987-13.216,7.987h-3.355l2.354-14.912       c0.143-0.9,0.92-1.564,1.832-1.564h1.539c4.016,0,7.811,0,9.766,2.288C317.242,39.385,317.596,41.414,317.153,44.218z"/>
					<path fill="#FFFFFF" d="M155.89,23.381h-22.25c-1.521,0-2.816,1.107-3.054,2.609l-8.998,57.053       c-0.177,1.126,0.693,2.146,1.833,2.146h10.624c1.521,0,2.816-1.107,3.054-2.61l2.428-15.392       c0.237-1.503,1.532-2.609,3.053-2.609h7.041c14.656,0,23.114-7.093,25.325-21.151c0.995-6.147,0.04-10.979-2.838-14.36       C168.941,25.347,163.333,23.381,155.89,23.381z M158.457,44.218c-1.216,7.987-7.316,7.987-13.215,7.987h-3.357l2.354-14.912       c0.143-0.9,0.919-1.564,1.832-1.564h1.539c4.016,0,7.81,0,9.765,2.288C158.545,39.385,158.899,41.414,158.457,44.218z"/>
					<path fill="#FFFFFF" d="M222.393,43.963H211.74c-0.912,0-1.689,0.664-1.832,1.566l-0.469,2.979l-0.745-1.078       c-2.308-3.351-7.45-4.469-12.585-4.469c-11.77,0-21.826,8.92-23.783,21.432c-1.019,6.24,0.427,12.205,3.966,16.367       c3.251,3.825,7.891,5.417,13.419,5.417c9.487,0,14.75-6.096,14.75-6.096l-0.476,2.962c-0.179,1.126,0.691,2.146,1.832,2.146       h9.595c1.521,0,2.815-1.107,3.053-2.609l5.761-36.473C224.402,44.98,223.533,43.963,222.393,43.963z M207.544,64.701       c-1.028,6.088-5.861,10.174-12.025,10.174c-3.09,0-5.564-0.994-7.154-2.875c-1.576-1.866-2.169-4.523-1.669-7.483       c0.959-6.033,5.87-10.252,11.94-10.252c3.025,0,5.482,1.004,7.103,2.902C207.371,59.08,208.012,61.755,207.544,64.701z"/>
					<path fill="#FFFFFF" d="M381.089,43.963h-10.653c-0.913,0-1.69,0.664-1.832,1.566l-0.47,2.979l-0.744-1.078       c-2.309-3.351-7.45-4.469-12.585-4.469c-11.771,0-21.826,8.92-23.782,21.432c-1.02,6.24,0.428,12.205,3.966,16.367       c3.251,3.825,7.892,5.417,13.419,5.417c9.487,0,14.75-6.096,14.75-6.096l-0.476,2.962c-0.179,1.126,0.69,2.146,1.832,2.146       h9.595c1.521,0,2.814-1.107,3.053-2.609l5.76-36.473C383.1,44.98,382.229,43.963,381.089,43.963z M366.242,64.701       c-1.029,6.088-5.861,10.174-12.025,10.174c-3.092,0-5.564-0.994-7.155-2.875c-1.575-1.866-2.169-4.523-1.669-7.483       c0.96-6.033,5.869-10.252,11.939-10.252c3.024,0,5.481,1.004,7.104,2.902C366.066,59.08,366.708,61.755,366.242,64.701z"/>
					<path fill="#FFFFFF" d="M279.139,43.963H268.43c-1.024,0-1.981,0.509-2.558,1.355L251.1,67.075l-6.261-20.906       c-0.393-1.309-1.596-2.206-2.961-2.206h-10.527c-1.271,0-2.165,1.25-1.756,2.454l11.792,34.612l-11.091,15.648       c-0.871,1.229,0.008,2.928,1.514,2.928h10.697c1.015,0,1.964-0.497,2.541-1.33l35.615-51.4       C281.515,45.645,280.634,43.963,279.139,43.963z"/>
					<path fill="#FFFFFF" d="M393.647,24.948l-9.133,58.097c-0.177,1.126,0.692,2.145,1.832,2.145h9.185       c1.521,0,2.816-1.107,3.055-2.609l9.004-57.053c0.178-1.126-0.691-2.145-1.832-2.145H395.48       C394.566,23.381,393.789,24.046,393.647,24.948z"/>
				</g>
			</g>
		</g>
	</g>
</g>
<g id="Layer_2">
</g>
<script xmlns=""/></svg>